<?xml version="1.0" standalone="no"?>
<!DOCTYPE svg PUBLIC "-//W3C//DTD SVG 20010904//EN"
 "http://www.w3.org/TR/2001/REC-SVG-20010904/DTD/svg10.dtd">
<svg version="1.0" xmlns="http://www.w3.org/2000/svg"
 width="316.000000pt" height="316.000000pt" viewBox="0 0 316.000000 316.000000"
 preserveAspectRatio="xMidYMid meet">
<metadata>
Created by potrace 1.11, written by Peter Selinger 2001-2013
</metadata>
<g transform="translate(0.000000,316.000000) scale(0.100000,-0.100000)"
fill="#000000" stroke="none">
<path d="M1562 3149 c-13 -5 -36 -11 -52 -14 -15 -3 -74 -21 -131 -41 -328
-114 -599 -317 -783 -588 -91 -133 -165 -311 -202 -486 -19 -92 -26 -348 -11
-449 48 -339 233 -655 502 -856 121 -91 348 -190 478 -209 l48 -7 -6 -127
c-10 -236 -16 -246 -160 -267 -81 -13 -137 -57 -108 -86 5 -5 80 -10 167 -11
216 -2 200 -21 201 257 0 118 2 215 5 216 3 0 57 2 120 3 l115 4 0 -197 c0
-231 1 -243 26 -270 18 -19 31 -21 169 -21 161 0 180 3 180 30 0 37 -40 56
-160 76 -19 3 -47 12 -62 20 -34 17 -45 70 -53 246 -7 140 -11 131 65 143 19
3 68 15 109 26 409 114 678 417 757 852 22 121 27 375 9 492 -58 376 -252 663
-552 814 -148 74 -343 117 -550 120 -99 2 -129 41 -110 146 4 28 21 56 56 94
27 29 47 61 46 70 -2 9 -4 19 -4 24 -1 10 -81 8 -109 -4z m-468 -1075 c19 -19
26 -37 26 -63 -1 -82 -86 -119 -150 -64 -29 24 -32 30 -27 71 6 55 35 81 88
82 26 0 44 -7 63 -26z m1070 -5 c35 -41 34 -83 -3 -120 -56 -56 -149 -22 -153
56 -1 33 20 75 44 85 47 18 85 12 112 -21z"/>
</g>
</svg>
