<?xml version="1.0" encoding="utf-8"?>
<!-- Generator: Adobe Illustrator 22.0.1, SVG Export Plug-In . SVG Version: 6.00 Build 0)  -->
<svg version="1.1" id="_x31_" xmlns="http://www.w3.org/2000/svg" xmlns:xlink="http://www.w3.org/1999/xlink" x="0px" y="0px"
	 viewBox="0 0 710.6 169.5" style="enable-background:new 0 0 710.6 169.5;" xml:space="preserve">
<style type="text/css">
	.st0{fill-rule:evenodd;clip-rule:evenodd;fill:#003082;}
</style>
<g>
	<path class="st0" d="M38.5,112.2c-5-3.4-15-12.9-19.8-18.9C11.3,84.2,5.2,73.2,1.4,61.8c-0.9-2.6-1.4-4-1.4-5.4
		c0-1.6,0.6-3.3,2-7.2c3.5-9.8,9.7-20.9,16.3-29.3C21.7,15.7,31.4,6,35.7,2.8L39.3,0h99.1l-1,3.2c-0.5,1.8-1.5,4.6-2.1,6.3l-1.2,3
		H42.8l-2.3,1.9c-1.2,1.1-2.9,2.4-3.6,3.1l-1.4,1.2l47.8,0c26.3,0,47.8,0.1,47.8,0.2c0,0.3-2.8,5-5.2,8.7l-2.3,3.6l-49.4,0.1
		l-49.5,0.1l-1.9,2.7c-1,1.5-1.9,3-1.9,3.2c0,0.4,9.9,0.5,48.5,0.5H118l-3.1,3.2c-1.7,1.7-4.7,4.5-6.7,6.1l-3.6,2.9H14.3l-1.2,3.2
		L12,56.4l1.2,3.3c5.1,14.5,14.2,28.1,25.4,38l3,2.7h40.2c22.1,0,40.2-0.1,40.2-0.1c0-0.4-2.3-5.6-3.6-8.2
		c-3.7-7.3-8.4-13.8-14.3-19.7l-3.6-3.6l-38.4-0.1l-38.4-0.1L22.1,65c-1-1.9-2.1-4.6-2.6-6l-0.9-2.4h86.3l5.7,5.6
		c11,10.7,18.6,21.8,23.4,34.2c1.5,3.9,3.5,11.1,3.9,14.4l0.3,2.1H88.8C43.2,112.9,39.4,112.9,38.5,112.2L38.5,112.2z M402.5,147.3
		c6-0.8,9.4-3.9,10.7-10c1.3-6.4-1.1-12.8-5.8-15.2c-2.9-1.4-5.4-1.8-13.3-1.8h-7.4v27.3l6.5,0C396.7,147.7,400.9,147.5,402.5,147.3
		L402.5,147.3z M361.2,112.7V56.3h37.7c20.7,0,37.7,0.1,37.7,0.3c0,0.2-1.6,5-3.6,10.7l-3.6,10.5h-42.8v21l11.2,0.2
		c7.5,0.1,12.4,0.4,14.8,0.8c12.5,2.1,20.7,7.7,25.4,17.2c2.9,5.8,3.4,8.6,3.4,16.8c0,6.3-0.1,7.4-1,10.8
		c-3.7,13.9-14.2,22.2-30.4,24.2c-1.9,0.2-12.7,0.4-26.1,0.4h-22.8V112.7L361.2,112.7z M224.5,99.6c6.1-2,8.5-11.5,4.4-16.9
		c-2.6-3.4-5.6-4.2-15.8-4.2h-6.7v22l8.3-0.2C219.9,100.2,223.6,99.9,224.5,99.6L224.5,99.6z M226.5,146.8c2.4-1.2,3.8-2.6,5.1-5.3
		c3.4-6.7,1.4-15.6-4.1-18.4c-2.2-1.1-6.9-1.6-14.4-1.4l-6.4,0.1l-0.1,12.7c0,7,0,12.9,0.1,13.2c0.2,0.4,1.8,0.5,8.9,0.4
		C224.1,147.9,224.3,147.8,226.5,146.8L226.5,146.8z M181.5,112.9V56.6l24.7,0.2c26.6,0.2,26.4,0.2,32.4,2.4c4.1,1.5,6.8,3.3,10.5,7
		c2.8,2.8,3.7,4,5.2,7c2.3,4.8,3.2,8.9,2.9,14.2c-0.5,9.1-4.9,16.7-12,20.8l-2.1,1.2l3.2,1.7c3.9,2,8.7,6.4,10.9,9.9
		c4.2,6.7,5.4,16.3,3.2,25.2c-0.4,1.7-1.6,4.7-2.6,6.7c-1.5,3-2.4,4.2-5,6.8c-3.7,3.6-6.3,5.3-11.1,7.1c-6.4,2.4-8,2.5-35.5,2.5
		h-24.7V112.9L181.5,112.9z M294.8,123.8V78.1h-32V56.6h92.2l-3.6,10.6l-3.6,10.6l-14,0.1l-14,0.1v91.4h-25V123.8z"/>
	<path class="st0" d="M475.1,83c-1.8,1.5-4.3,2.7-7.9,2.7c-4.6,0-7.4-1.7-9.3-3.9c-2.5-2.8-3.5-6.2-3.5-10.2c0-3.3,0.7-6.5,1.9-8.8
		c2.2-4.1,6.3-6.6,10.9-6.6c4.1,0,6.6,1.8,7.2,2.3l-2.6,3.9c-1.6-1.3-3.4-1.6-4.4-1.6c-2.1,0-3.9,1.1-4.9,2.5
		c-1.4,2.1-1.6,5.7-1.6,7.9c0,3.9,0.4,5.7,1.2,7.1c1.3,2.4,3.5,3.2,5.5,3.2c1.8,0,3.5-0.7,4.9-1.8L475.1,83L475.1,83z"/>
	<polygon class="st0" points="495.6,61.4 488.8,61.4 488.8,85.2 482.9,85.2 482.9,61.4 476,61.4 476,56.6 496.6,56.6 495.6,61.4 	
		"/>
	<path class="st0" d="M507.5,70c2.6,0,3.2-0.5,3.8-1.5c0.3-0.5,0.7-1.3,0.7-2.9c0-1.4-0.4-2.5-0.9-3.1c-0.4-0.5-1.3-1.2-3-1.2h-3.7
		V70H507.5L507.5,70L507.5,70z M507.6,56.6c3.4,0,5.3,0.7,6.6,1.4c2.7,1.5,4.1,4.1,4.1,7.4c0,2.3-0.7,6.3-4.9,8.3
		c-1.6,0.7-2.9,0.9-5.7,0.9h-3.2v10.5h-5.8V56.6H507.6L507.6,56.6z"/>
	<path class="st0" d="M531.3,73.7c-0.9-2.9-1.2-4.4-1.6-5.8c-0.4-1.5-0.6-2.3-1.2-5c-0.4,1.7-1,4.2-1.3,5.5c-0.7,2.8-1,3.7-1.5,5.3
		H531.3L531.3,73.7L531.3,73.7z M534.7,85.2l-2-6.8h-8.4l-2,6.8h-6l9.4-28.7h6.2l9,28.7H534.7L534.7,85.2z"/>
	<polygon class="st0" points="557.4,85.2 552.2,75.1 547.1,85.2 540,85.2 548.9,69.9 541.2,56.6 548.2,56.6 552.1,64.3 556,56.6 
		562.9,56.6 555.4,69.6 564.3,85.2 557.4,85.2 	"/>
	<path class="st0" d="M572.7,63.6c-0.5,1.1-1.2,2.8-1.2,7.4c0,4.5,0.7,6.2,1.2,7.3c0.7,1.5,2,3,4.7,3c2.7,0,4-1.6,4.7-3
		c0.5-1.1,1.2-2.8,1.2-7.3c0-4.6-0.6-6.3-1.2-7.4c-0.5-1-1.7-3-4.7-3C574.4,60.5,573.2,62.6,572.7,63.6L572.7,63.6L572.7,63.6z
		 M586.3,59.9c2.3,2.6,3.5,6.5,3.5,11c0,4.5-1.2,8.4-3.5,11c-1.6,1.8-4.4,3.8-8.9,3.8c-4.5,0-7.3-1.9-8.9-3.8
		c-2.3-2.6-3.5-6.5-3.5-11c0-4.6,1.2-8.5,3.5-11c1.6-1.8,4.4-3.8,8.9-3.8C581.9,56.1,584.7,58.1,586.3,59.9L586.3,59.9z"/>
	<path class="st0" d="M604.1,80.5c1.1,0,2.1-0.2,3-1.4c0.5-0.7,0.8-1.6,0.8-2.6c0-1.2-0.4-2.3-1.1-2.9c-0.8-0.8-1.9-0.9-2.8-0.9H600
		v7.7H604.1L604.1,80.5L604.1,80.5z M600,68.1h3.9c0.9,0,1.9,0,2.7-0.9c0.5-0.6,0.8-1.5,0.8-2.3c0-1.3-0.6-2.4-1.6-2.9
		c-0.9-0.4-1.9-0.4-2.4-0.4H600V68.1L600,68.1z M603.9,56.6c2.8,0,5.1,0.3,7.1,2.1c1.4,1.3,2.3,3,2.3,5.1c0,1.2-0.2,3.2-1.9,4.8
		c-0.4,0.4-1.3,1.1-2.6,1.5c1.1,0.2,2.1,0.7,3.2,1.6c1.8,1.5,2.5,3.2,2.5,5.6c0,4.4-2.9,8-8.7,8h-11.5V56.6H603.9L603.9,56.6z"/>
	<path class="st0" d="M629.9,73.7c-0.9-2.9-1.2-4.4-1.6-5.8c-0.4-1.5-0.6-2.3-1.1-5c-0.4,1.7-1,4.2-1.4,5.5c-0.7,2.8-1,3.7-1.5,5.3
		H629.9L629.9,73.7L629.9,73.7z M633.3,85.2l-2-6.8H623l-2,6.8h-6l9.4-28.7h6.2l9,28.7H633.3L633.3,85.2z"/>
	<polygon class="st0" points="656.1,85.2 656.1,72.5 647.9,72.5 647.9,85.2 642.1,85.2 642.1,56.6 647.9,56.6 647.9,67.7 
		656.1,67.7 656.1,56.6 661.9,56.6 661.9,85.2 656.1,85.2 	"/>
	<path class="st0" d="M682.4,85.2V71.1c0-1.4,0.1-4.2,0.3-6c-0.7,2.3-1.3,3.4-2,5l-7,15.2h-6V56.6h5.8v14.1c0,1.4-0.1,4.2-0.2,6
		c0.7-2.3,1.3-3.4,2-5l6.9-15.2h6v28.6H682.4L682.4,85.2z"/>
	<polygon class="st0" points="694,85.2 694,56.6 710.3,56.6 709.5,61.4 699.8,61.4 699.8,67.9 707.9,67.9 707.9,72.7 699.8,72.7 
		699.8,80.3 710.6,80.3 710.6,85.2 694,85.2 	"/>
</g>
</svg>
