<?xml version="1.0" encoding="utf-8"?>
<!-- Generator: Adobe Illustrator 22.0.1, SVG Export Plug-In . SVG Version: 6.00 Build 0)  -->
<svg version="1.1" xmlns="http://www.w3.org/2000/svg" xmlns:xlink="http://www.w3.org/1999/xlink" x="0px" y="0px"
	 viewBox="0 0 236.5 73" style="enable-background:new 0 0 236.5 73;" xml:space="preserve">
<style type="text/css">
	.st0{fill-rule:evenodd;clip-rule:evenodd;fill:#D3DADE;}
	.st1{fill:#FFFFFF;}
	.st2{fill-rule:evenodd;clip-rule:evenodd;fill:#FFE710;}
	.st3{fill-rule:evenodd;clip-rule:evenodd;}
</style>
<g id="Layer_1">
</g>
<g id="Layer_2">
	<g>
		<g>
			<g>
				<path d="M114.7,30.3c0.3-0.4,0.5-0.8,0.8-1.3h0.2v9.4h4.2V22.5h-4.2l-4.8,7.2c-0.3,0.4-0.5,0.8-0.8,1.2
					c-0.3,0.4-0.5,0.8-0.8,1.2h-0.2v-9.7h-4.2v15.9h4.2c0.8-1.1,1.6-2.2,2.3-3.4c0.8-1.2,1.5-2.3,2.3-3.4
					C114.1,31.2,114.4,30.7,114.7,30.3"/>
				<polygon points="128.2,31.8 134.5,31.8 134.5,38.4 138.8,38.4 138.8,22.5 134.5,22.5 134.5,28.6 128.2,28.6 128.2,22.5 
					124,22.5 124,38.4 128.2,38.4 				"/>
				<path d="M156.3,33.3c0-1.6-0.6-2.9-1.7-3.8c-1.1-0.9-2.6-1.3-4.5-1.3H147v-5.6h-4.2v15.9h7.5c1.8,0,3.3-0.4,4.4-1.2
					C155.8,36.4,156.3,35.1,156.3,33.3 M151.4,34.8c-0.4,0.3-1,0.5-1.7,0.5H147v-3.9h2.7c0.7,0,1.3,0.2,1.7,0.5
					c0.4,0.3,0.6,0.8,0.6,1.5C152.1,34,151.9,34.5,151.4,34.8"/>
				<path d="M211,36.3c0.7-0.7,1.3-1.6,1.8-2.6c0.4-1,0.7-2.1,0.7-3.4c0-1.2-0.2-2.3-0.6-3.2c-0.4-1-1-1.8-1.7-2.5
					c-0.7-0.7-1.6-1.3-2.7-1.7c-1-0.4-2.1-0.6-3.3-0.7v-6l-4,1.5v4.4c-1.2,0.1-2.3,0.3-3.3,0.7c-1,0.4-1.9,1-2.7,1.7
					c-0.8,0.7-1.4,1.5-1.8,2.5c-0.4,1-0.7,2-0.7,3.2c0,1.3,0.2,2.4,0.6,3.4c0.4,1,1,1.9,1.7,2.6c0.7,0.7,1.6,1.3,2.7,1.7
					c1,0.4,2.2,0.6,3.5,0.7v6.7l4-1.5v-5.2c1.2-0.1,2.3-0.3,3.3-0.7C209.4,37.6,210.2,37,211,36.3 M201,35.6c-0.6,0-1.2-0.2-1.7-0.4
					c-0.5-0.2-1-0.6-1.4-1c-0.4-0.4-0.7-1-1-1.6c-0.2-0.6-0.4-1.3-0.4-2.2c0-1.4,0.4-2.5,1.2-3.5c0.8-0.9,1.9-1.5,3.3-1.6V35.6z
					 M206.6,35.2c-0.5,0.2-1.1,0.4-1.6,0.4V25.4c1.4,0.1,2.5,0.6,3.2,1.6c0.8,0.9,1.1,2.1,1.1,3.5c0,0.8-0.1,1.6-0.4,2.2
					c-0.2,0.6-0.6,1.2-1,1.6C207.6,34.7,207.2,35,206.6,35.2"/>
				<path d="M235.8,33.8c0.4-1,0.6-2.1,0.6-3.4c0-1.2-0.2-2.3-0.6-3.2c-0.4-1-1-1.8-1.8-2.5c-0.7-0.7-1.6-1.3-2.7-1.7
					c-1-0.4-2.2-0.6-3.3-0.7v-6l-4,1.5v4.4c-1.2,0.1-2.3,0.3-3.3,0.7c-1,0.4-1.9,1-2.7,1.7c-0.8,0.7-1.4,1.5-1.8,2.5
					c-0.4,1-0.7,2-0.7,3.2c0,1.3,0.2,2.4,0.6,3.4c0.4,1,1,1.9,1.7,2.6c0.7,0.7,1.6,1.3,2.7,1.7c1,0.4,2.2,0.6,3.5,0.7v6.7l4-1.5
					v-5.2c1.2-0.1,2.3-0.3,3.3-0.7c1-0.4,1.9-1,2.6-1.7C234.8,35.6,235.4,34.8,235.8,33.8 M224.1,35.6c-0.6,0-1.2-0.2-1.7-0.4
					c-0.5-0.2-1-0.6-1.4-1c-0.4-0.4-0.7-1-1-1.6c-0.2-0.6-0.4-1.3-0.4-2.2c0-1.4,0.4-2.5,1.2-3.5c0.8-0.9,1.9-1.5,3.3-1.6V35.6z
					 M232.1,32.6c-0.2,0.6-0.6,1.2-1,1.6c-0.4,0.4-0.9,0.8-1.4,1c-0.5,0.2-1.1,0.4-1.6,0.4V25.4c1.4,0.1,2.5,0.6,3.2,1.6
					c0.8,0.9,1.1,2.1,1.1,3.5C232.4,31.3,232.3,32,232.1,32.6"/>
				<polygon points="87.7,19.5 93.9,19.5 93.9,38.4 98.3,38.4 98.3,19.5 104.3,19.5 104.3,15.8 87.7,15.8 				"/>
				<polygon points="174,22.6 169.2,22.6 163.5,29.4 163.5,22.5 159.3,22.5 159.3,38.4 163.5,38.4 163.5,30.7 169,38.4 174,38.4 
					167.8,29.9 				"/>
				<path d="M188.2,24.5c-0.7-0.7-1.5-1.3-2.5-1.6c-1-0.4-2-0.6-3.1-0.6c-1.1,0-2.2,0.2-3.1,0.6c-1,0.4-1.8,0.9-2.5,1.6
					c-0.7,0.7-1.2,1.6-1.6,2.6c-0.4,1-0.6,2.2-0.6,3.5c0,1.3,0.2,2.4,0.6,3.4c0.4,1,0.9,1.9,1.6,2.6c0.7,0.7,1.5,1.3,2.4,1.7
					c0.9,0.4,2,0.6,3.2,0.6c1.1,0,2.2-0.2,3.1-0.6c1-0.4,1.8-0.9,2.5-1.6c0.7-0.7,1.2-1.6,1.6-2.6c0.4-1,0.6-2.2,0.6-3.5
					c0-1.3-0.2-2.4-0.6-3.4C189.4,26,188.8,25.2,188.2,24.5 M185.8,32.4c-0.2,0.6-0.4,1.1-0.7,1.5c-0.3,0.4-0.7,0.8-1.1,1
					c-0.4,0.2-0.9,0.4-1.5,0.4c-1.1,0-2-0.4-2.6-1.3c-0.6-0.9-0.9-2.1-0.9-3.6c0-1.4,0.3-2.5,0.9-3.4c0.6-0.9,1.4-1.4,2.6-1.4
					c1.2,0,2.1,0.5,2.7,1.3c0.6,0.9,0.9,2.1,0.9,3.5C186.1,31.2,186,31.8,185.8,32.4"/>
			</g>
			<g>
				<path d="M98.6,46.8c1,0,2,0.2,2.8,0.5c0.8,0.3,1.5,0.9,2.1,1.6l-1.3,1.3c-0.5-0.6-1.1-1-1.7-1.3c-0.6-0.3-1.2-0.4-2-0.4
					c-0.7,0-1.4,0.2-2,0.5c-0.6,0.3-1.1,0.7-1.4,1.3c-0.4,0.6-0.7,1.2-0.9,2c-0.2,0.8-0.3,1.6-0.3,2.5c0,0.9,0.1,1.7,0.3,2.5
					c0.2,0.8,0.5,1.5,0.9,2c0.4,0.6,0.9,1,1.5,1.3c0.6,0.3,1.3,0.5,2,0.5c1.4,0,2.6-0.6,3.7-1.8l1.3,1.2c-0.6,0.7-1.3,1.3-2.1,1.7
					c-0.8,0.4-1.7,0.6-2.9,0.6c-0.9,0-1.8-0.2-2.6-0.5c-0.8-0.4-1.5-0.9-2.1-1.6c-0.6-0.7-1-1.5-1.3-2.5c-0.3-1-0.5-2.1-0.5-3.3
					c0-1.2,0.2-2.3,0.5-3.3c0.3-1,0.8-1.8,1.3-2.5c0.6-0.7,1.3-1.2,2.1-1.6C96.7,47,97.6,46.8,98.6,46.8z"/>
				<path d="M109.8,52.3v10.2h-1.7V52.3h-3.7v-1.4h9.1v1.4H109.8z"/>
				<path d="M124.6,56.6c0,1.1-0.1,2-0.4,2.8c-0.3,0.8-0.6,1.4-1.1,1.9c-0.5,0.5-1,0.8-1.5,1.1c-0.6,0.2-1.1,0.3-1.7,0.3
					c-0.6,0-1.1-0.1-1.6-0.3c-0.5-0.2-1-0.5-1.5-1h0v4.9l-1.7,0.8V50.9h1.7V52h0c0.5-0.5,1.1-0.9,1.7-1.1c0.6-0.2,1.1-0.3,1.7-0.3
					c0.6,0,1.1,0.1,1.6,0.3c0.5,0.2,1,0.6,1.4,1.1c0.4,0.5,0.7,1.1,1,1.8C124.4,54.7,124.6,55.6,124.6,56.6z M122.9,56.6
					c0-1.4-0.3-2.5-0.9-3.3c-0.6-0.8-1.3-1.2-2.2-1.2c-0.7,0-1.2,0.2-1.8,0.5c-0.5,0.3-0.9,0.7-1.3,1.1v5.9c0.3,0.4,0.7,0.8,1.3,1.1
					c0.5,0.3,1.1,0.5,1.6,0.5c1,0,1.8-0.4,2.4-1.2C122.6,59.2,122.9,58.1,122.9,56.6z"/>
				<path d="M131.5,50.7c1.3,0,2.4,0.3,3.1,0.9c0.7,0.6,1.1,1.6,1.1,2.8v8H134v-1.1h0c-0.6,0.6-1.2,0.9-1.8,1.1
					c-0.6,0.2-1.2,0.3-1.7,0.3c-0.5,0-0.9-0.1-1.4-0.2c-0.5-0.1-0.9-0.3-1.2-0.6c-0.4-0.3-0.7-0.7-0.9-1.1c-0.2-0.5-0.3-1-0.3-1.7
					c0-0.6,0.1-1.1,0.3-1.5c0.2-0.5,0.5-0.8,0.9-1.2c0.4-0.3,0.8-0.6,1.4-0.7c0.5-0.2,1.1-0.3,1.7-0.3c0.5,0,1,0.1,1.5,0.2
					c0.5,0.1,1.1,0.3,1.6,0.6v-1.4c0-0.9-0.2-1.5-0.7-2c-0.4-0.4-1.1-0.6-2-0.6c-0.6,0-1.1,0.1-1.6,0.2c-0.5,0.1-1,0.3-1.5,0.6
					l-0.6-1.3c0.6-0.3,1.1-0.5,1.8-0.6C130,50.8,130.7,50.7,131.5,50.7z M134,57.5c-0.5-0.3-0.9-0.5-1.4-0.6c-0.5-0.2-1-0.2-1.7-0.2
					c-0.8,0-1.4,0.2-1.9,0.6c-0.5,0.4-0.8,1-0.8,1.7c0,0.8,0.2,1.3,0.7,1.7c0.4,0.4,1.1,0.6,1.9,0.6c0.6,0,1.2-0.2,1.8-0.5
					c0.6-0.3,1.1-0.7,1.5-1.1V57.5z"/>
				<path d="M144.5,62.5l-2.6-4.6l-2.6,4.6h-1.9l3.6-6l-3.3-5.6h1.9l2.4,4.2l2.4-4.2h1.9l-3.4,5.5l3.6,6.1H144.5z"/>
				<path d="M157.8,56.7c0,1-0.1,1.8-0.4,2.6c-0.3,0.8-0.6,1.4-1.1,1.9c-0.5,0.5-1,0.9-1.6,1.2c-0.6,0.3-1.3,0.4-2,0.4
					c-0.7,0-1.4-0.1-2-0.4c-0.6-0.3-1.1-0.7-1.6-1.2c-0.4-0.5-0.8-1.2-1-1.9c-0.2-0.7-0.4-1.6-0.4-2.5c0-1,0.1-1.8,0.4-2.6
					c0.3-0.8,0.6-1.4,1.1-1.9c0.5-0.5,1-0.9,1.6-1.2c0.6-0.3,1.3-0.4,2-0.4s1.4,0.1,2,0.4c0.6,0.3,1.2,0.7,1.6,1.2
					c0.5,0.5,0.8,1.1,1.1,1.9C157.6,54.9,157.8,55.7,157.8,56.7z M156.1,56.7c0-0.6-0.1-1.2-0.2-1.8c-0.1-0.6-0.4-1-0.6-1.4
					c-0.3-0.4-0.6-0.7-1.1-0.9c-0.4-0.2-0.9-0.3-1.5-0.3c-0.5,0-1,0.1-1.4,0.4c-0.4,0.2-0.8,0.6-1,1c-0.3,0.4-0.5,0.9-0.6,1.4
					c-0.1,0.5-0.2,1.1-0.2,1.7c0,1.4,0.3,2.5,0.9,3.3c0.6,0.8,1.4,1.2,2.5,1.2c0.6,0,1-0.1,1.5-0.4c0.4-0.2,0.8-0.6,1-1
					c0.3-0.4,0.5-0.9,0.6-1.4C156,57.9,156.1,57.3,156.1,56.7z"/>
				<path d="M167.1,56.2c0.6,0.2,1.1,0.5,1.5,1c0.4,0.5,0.6,1.1,0.6,1.8c0,1.1-0.4,2-1.1,2.6c-0.7,0.6-1.8,0.9-3,0.9h-5V50.9h5.1
					c1,0,1.9,0.2,2.5,0.7c0.7,0.5,1,1.2,1,2.2c0,0.5-0.1,1-0.4,1.4C168,55.7,167.6,56,167.1,56.2L167.1,56.2z M161.8,52.3v3.3h3.2
					c0.6,0,1.1-0.2,1.5-0.5c0.3-0.3,0.5-0.7,0.5-1.2c0-0.5-0.2-0.9-0.5-1.2c-0.3-0.3-0.8-0.4-1.4-0.4H161.8z M161.8,57.1v4h3.3
					c0.9,0,1.5-0.2,1.9-0.5c0.4-0.4,0.6-0.9,0.6-1.5c0-0.6-0.2-1.1-0.7-1.5c-0.5-0.3-1-0.5-1.7-0.5H161.8z"/>
				<path d="M175.9,50.7c1.3,0,2.4,0.3,3.1,0.9c0.7,0.6,1.1,1.6,1.1,2.8v8h-1.7v-1.1h0c-0.6,0.6-1.2,0.9-1.8,1.1
					c-0.6,0.2-1.2,0.3-1.7,0.3c-0.5,0-0.9-0.1-1.4-0.2c-0.5-0.1-0.9-0.3-1.2-0.6c-0.4-0.3-0.7-0.7-0.9-1.1c-0.2-0.5-0.3-1-0.3-1.7
					c0-0.6,0.1-1.1,0.3-1.5c0.2-0.5,0.5-0.8,0.9-1.2c0.4-0.3,0.8-0.6,1.4-0.7c0.5-0.2,1.1-0.3,1.7-0.3c0.5,0,1,0.1,1.5,0.2
					c0.5,0.1,1.1,0.3,1.6,0.6v-1.4c0-0.9-0.2-1.5-0.7-2c-0.4-0.4-1.1-0.6-2-0.6c-0.6,0-1.1,0.1-1.6,0.2c-0.5,0.1-1,0.3-1.5,0.6
					l-0.6-1.3c0.6-0.3,1.1-0.5,1.8-0.6C174.4,50.8,175.1,50.7,175.9,50.7z M178.4,57.5c-0.5-0.3-0.9-0.5-1.4-0.6
					c-0.5-0.2-1-0.2-1.7-0.2c-0.8,0-1.4,0.2-1.9,0.6c-0.5,0.4-0.8,1-0.8,1.7c0,0.8,0.2,1.3,0.7,1.7c0.4,0.4,1.1,0.6,1.9,0.6
					c0.6,0,1.2-0.2,1.8-0.5c0.6-0.3,1.1-0.7,1.5-1.1V57.5z"/>
				<path d="M190.4,62.5v-5.3h-6.1v5.3h-1.7V50.9h1.7v4.8h6.1v-4.8h1.7v11.6H190.4z"/>
				<path d="M202.2,53.7l-1.6,2.4l-4.3,6.4h-1.7V50.9h1.7v8.9h0.1l1.7-2.6l4.2-6.3h1.7v11.6h-1.7L202.2,53.7L202.2,53.7z"/>
				<path d="M211.3,50.7c0.8,0,1.5,0.1,2.1,0.4c0.6,0.3,1.1,0.7,1.5,1.2c0.4,0.5,0.7,1.1,0.9,1.9c0.2,0.7,0.3,1.5,0.3,2.4v0.8h-8
					c0.1,1.3,0.4,2.3,1.1,2.9c0.6,0.7,1.4,1,2.3,1c0.5,0,1-0.1,1.5-0.3c0.5-0.2,0.9-0.5,1.3-0.8l1,1.1c-1.1,1-2.4,1.5-3.9,1.5
					c-0.6,0-1.3-0.1-1.9-0.4c-0.6-0.3-1.1-0.6-1.6-1.1c-0.5-0.5-0.8-1.1-1.1-1.9c-0.3-0.8-0.4-1.6-0.4-2.6c0-0.9,0.1-1.8,0.4-2.5
					c0.3-0.7,0.6-1.4,1-1.9c0.4-0.5,1-0.9,1.5-1.2C209.9,50.8,210.6,50.7,211.3,50.7z M214.4,56c0-0.5-0.1-1-0.2-1.5
					c-0.1-0.5-0.3-0.9-0.6-1.2c-0.3-0.3-0.6-0.6-1-0.8c-0.4-0.2-0.9-0.3-1.4-0.3c-0.4,0-0.8,0.1-1.2,0.3c-0.4,0.2-0.7,0.4-1,0.8
					c-0.3,0.3-0.5,0.7-0.7,1.2c-0.2,0.5-0.3,1-0.3,1.6H214.4z"/>
			</g>
		</g>
		<g>
			<g>
				<g>
					<g>
						<path class="st0" d="M23.3,52.9c1-0.8,1.9-1.2,1.8-3.2c-1.5,0.8-5.9,0.7-7.7-1.8c-0.5-0.7,0-1.1,0.5-0.5
							c1.2,1.4,3.6,0.8,4.4,0.4c-0.1-0.5-0.5-1.1-0.8-1.4c0.3-0.3,1.2-0.8,1.4-1.6c-0.5-0.3-2.3-0.4-2.3-0.4
							c0.3-0.3,0.7-0.7,0.4-1.7c-1.9,0.6-4.2-0.2-4.8-0.9c-0.5-0.7,0-1.3,0.4-0.9c0.9,1,5.6,2.1,7.3,0.4c-0.6-0.2-1.3-0.8-1.5-1.1
							c1.6-0.2,2.9-1.1,3-2.3c-0.9,0-2.6-0.1-3.1-0.5c0.8-0.3,1.2-0.6,1.5-1.4c-2.9-0.2-3.2-2.3-3.2-2.7c1.9,1.1,5.3,0.6,4.4-2.1
							c-1.6-0.1-3.2-2.6,1.2-5c4-2.1,8.5-4.5,8.1-8.3c-0.3-2.4-4.3-4.1-4.8-5.3c-1.7,0.8-2,1.7-1.3,3.3c0,0-3.7,0.4-4-1.9
							c-0.1-1,0.6-2,1.3-2.7c-0.4,0-3.2-0.8-4.1,1.5c-1.6-1.1-2.9-1-4,0.1c1.7,1,2.7,4.4,5.5,5.5c-2,1.1-5.2,0.6-7.1-2.7
							c-1.8,2.7-2.8,5.3,1,8.2C10.1,27,10.1,33,4.1,35.9c0.6,1.6,1.9,1.6,3.5,1.4c-2.6,3.4-0.4,6.9-4.5,8.4c0.4,1.4,1.2,2.5,2.7,2.1
							c-0.4,0.7-0.7,0.7-1.4,1.4c2.3,1.4,4.9,0.4,5.5-4.2c0.1-0.8,1.2-0.3,0.8,0.5c-2.6,5.3,3.9,9.3,1.6,13.2c2-0.1,3.6-0.2,4.4-0.9
							c0.4,0.8,0.7,1.6,0.6,2.4c1.1-0.2,1.5-0.9,1.6-1.6c0.7,2.1,3.4,4.4,7.6,4.4C24.4,59.8,26.4,56.6,23.3,52.9 M19.1,56.8
							l-0.9,1.5c-0.3-1-0.9-2-1.3-2.8c-0.7,1.5-1.9,1.5-3,1.5c0.2-3.6-4.2-7.1-2.3-11.2c0.4-0.8,0.1-1.8-0.7-2.2
							c-3-1.5-1.6,4.8-4.6,5c0.6-0.7,0.8-2.2,0.9-2.3c-0.6,0.2-2.2,1.1-2.9-0.1c1.8-1,2.3-2.4,2.5-3.8c0.3-1.8,0.5-2.7,0.9-3.4
							c0.4-0.8,1-1.5,2.2-3.1c-0.3,0-3.7,0.8-4.4,0.4c5.8-3.6,4.5-8.1,13.4-12.2c-2.3-1.7-4.7-3.1-3-6.4c2.4,2.9,7.1,1.9,9.6,0.6
							c-2.5-0.5-5.7-2.7-6.4-5.1c0.9-0.1,2.1,0.9,2.8,1.3c0.3-0.9,0.5-1.9,1.6-2.2c-1.4,3.1,1.4,4.7,4.1,4.7c0.4,0,2.2-0.2,2.2-0.2
							c-0.3-0.6-1.4-2.2-0.6-2.8c0.7,0.6,1.5,1.1,2.2,1.7c5.3,4.1-2.5,7.9-5.7,9.6c-5,2.7-3.7,5.9-1.6,6.8c0,0.4-0.2,0.5-0.6,0.6
							c-1.5,0.5-2.8-0.6-4-1.2c0.1,2-0.1,4,2.2,5.1l-1.5,0.6c1.3,1,1.7,1.5,3.3,1.7c-0.7,0.4-1.7,0.4-2.5,0.4
							c0.2,0.6,0.4,1.3,0.8,1.8c-3.3,0.4-4.6-1.5-5.6-1.4c-2.2,0.2-2,4.2,3.3,4.2L19,44.8c0,0,1,0.6,1.9,0.7c-0.4,0.3-0.7,0.7-1,1
							l0.8,0.7c-2.2,0.4-2.8-1.9-4.2-0.8c-2.1,1.7,2.6,5.3,7.1,4.7c-0.4,0.5-1.4,1.2-1.9,1.6c3.7,3.5,1.9,6.8,3.4,9.2
							C22,61.7,19.7,59.4,19.1,56.8"/>
						<path class="st0" d="M13.3,44.1c0.8,0.8,1.7,0.9,3.5,0.8c-1.9-0.2-3-0.7-3.7-2c-0.1-0.7-0.2-1.4-0.2-2.1c-0.1-2,0.6-4.5,2-7.1
							c0,1.7,1.3,4.3,4.3,4.7c-2.6-1.2-4.2-3.8-3.4-6.3c0.6-0.9,1.2-1.8,1.9-2.7c0.4-0.4,0.7-0.9,1-1.3c-0.4,1.3,1.2,2.6,2.2,2.8
							c-0.6-0.6-1.8-2.3,1-5.3c-0.8,0.4-1.6,0.9-2.3,1.4c5.1-5.5,9.3-5.6,11.2-8.4c-2.8,1.9-10.1,2.9-13.5,2
							c1.8,1.2,6.2,1.1,7.3,0.9c-3.6,3.5-11.4,7.1-12.8,10.3c1.9-2.1,3.1-2.5,4.8-3c-1.3,1.9-2.5,3.7-3.3,5.6
							c-2.1,4.5-4.9,4.6-5.1,8.3c1-2.9,2.9-3.6,4.2-5.5c-0.2,1.2-0.3,2.6-0.3,4.1c0,1.7,0.4,3.2,0.9,4.5c-0.1,1.8,0,5,2.1,7.1
							c-1.4-1.8-1.7-4.8-1.6-5.9c1.7,3.2,6.4,7.6,8.7,10.6C20.1,53.7,14.5,49.3,13.3,44.1"/>
						<path class="st0" d="M65.6,28.8c1.6,0.5,2.9,0.9,4.8,3C69,28.6,61.2,25,57.6,21.5c1.1,0.2,5.5,0.3,7.3-0.9
							c-3.3,0.9-10.7-0.1-13.5-2c1.9,2.8,6.1,2.9,11.2,8.4c-0.7-0.5-1.5-1-2.3-1.4c2.8,3,1.6,4.8,1,5.3c1-0.2,2.6-1.6,2.2-2.8
							c0.3,0.4,0.7,0.8,1,1.3c0.7,0.9,1.3,1.8,1.9,2.7c0.8,2.5-0.7,5.1-3.4,6.3c2.9-0.4,4.3-3.1,4.3-4.7c1.4,2.7,2.1,5.1,2,7.1
							c0,0.8-0.1,1.5-0.2,2.1c-0.7,1.3-1.8,1.8-3.7,2c1.8,0.1,2.7,0,3.5-0.8c-1.2,5.1-6.8,9.6-9.1,13.4c2.3-3,7-7.4,8.7-10.6
							c0.1,1.2-0.2,4.1-1.6,5.9c2.1-2.1,2.3-5.2,2.1-7.1c0.5-1.3,0.9-2.8,0.9-4.5c0.1-1.6-0.1-2.9-0.3-4.1c1.3,1.9,3.3,2.6,4.2,5.5
							c-0.2-3.7-3-3.8-5.1-8.3C68.1,32.4,66.9,30.7,65.6,28.8"/>
						<path class="st0" d="M74.7,37.3c1.6,0.3,2.9,0.3,3.5-1.4c-6-2.9-6-8.9-12.9-12.1c3.8-2.8,2.8-5.5,1-8.2
							c-1.9,3.3-5.1,3.8-7.1,2.7c2.8-1,3.8-4.5,5.5-5.5c-1.1-1.1-2.4-1.2-4-0.1c-0.9-2.3-3.7-1.5-4.1-1.5c0.7,0.7,1.4,1.7,1.3,2.7
							c-0.3,2.3-4,1.9-4,1.9c0.8-1.5,0.4-2.5-1.3-3.3c-0.5,1.2-4.5,2.9-4.8,5.3c-0.4,3.8,4.1,6.1,8.1,8.3c4.4,2.4,2.8,4.9,1.2,5
							c-0.9,2.7,2.5,3.2,4.4,2.1c0,0.4-0.2,2.5-3.2,2.7c0.2,0.9,0.7,1.1,1.5,1.4c-0.6,0.4-2.2,0.5-3.1,0.5c0.1,1.2,1.4,2.1,3,2.3
							c-0.1,0.4-0.8,0.9-1.5,1.1c1.7,1.7,6.4,0.6,7.3-0.4c0.4-0.5,1,0.2,0.4,0.9c-0.5,0.7-2.9,1.5-4.8,0.9c-0.2,1.1,0.1,1.5,0.4,1.7
							c0,0-1.8,0.2-2.3,0.4c0.2,0.8,1.1,1.3,1.4,1.6c-0.3,0.3-0.7,0.9-0.8,1.4c0.8,0.4,3.2,1,4.4-0.4c0.5-0.6,1.1-0.2,0.5,0.5
							c-1.8,2.5-6.2,2.5-7.7,1.8c0,2,0.8,2.4,1.8,3.2c-3.1,3.6-1.1,6.9-3.3,10c4.2,0,6.8-2.3,7.6-4.4c0.1,0.8,0.5,1.4,1.6,1.6
							c-0.1-0.8,0.2-1.6,0.6-2.4c0.9,0.7,2.4,0.8,4.4,0.9c-2.3-3.9,4.2-7.9,1.6-13.2c-0.4-0.8,0.7-1.3,0.8-0.5
							c0.6,4.6,3.3,5.6,5.5,4.2c-0.7-0.7-1-0.7-1.4-1.4c1.5,0.4,2.3-0.7,2.7-2.1C75.1,44.2,77.3,40.7,74.7,37.3 M75,46.3
							c0.1,0.1,0.3,1.6,0.9,2.3c-3-0.2-1.6-6.5-4.6-5c-0.8,0.4-1.1,1.4-0.7,2.2c2,4.1-2.5,7.6-2.3,11.2c-1.1,0-2.3,0-3-1.5
							c-0.4,0.7-1,1.8-1.3,2.8l-0.9-1.5c-0.6,2.5-2.9,4.9-6.1,5.1c1.5-2.4-0.3-5.7,3.4-9.2c-0.5-0.4-1.5-1.1-1.9-1.6
							c4.5,0.5,9.3-3,7.1-4.7c-1.4-1.1-2,1.2-4.2,0.8l0.8-0.7c-0.3-0.3-0.6-0.7-1-1c0.9-0.1,1.9-0.7,1.9-0.7l-0.5-0.9
							c5.3,0,5.4-4.1,3.3-4.2c-1-0.1-2.3,1.8-5.6,1.4c0.4-0.5,0.6-1.3,0.8-1.8c-0.8-0.1-1.7-0.1-2.5-0.4c1.6-0.2,2-0.7,3.3-1.7
							l-1.5-0.6c2.2-1.1,2.1-3.1,2.2-5.1c-1.2,0.7-2.5,1.7-4,1.2c-0.3-0.1-0.6-0.3-0.6-0.6c2.1-0.8,3.4-4.1-1.6-6.8
							c-3.2-1.7-11-5.5-5.7-9.6c0.7-0.6,1.5-1.1,2.2-1.7c0.8,0.6-0.3,2.2-0.6,2.8c0,0,1.8,0.2,2.2,0.2c2.7,0,5.6-1.6,4.1-4.7
							c1.1,0.2,1.2,1.3,1.5,2.2c0.7-0.5,1.9-1.5,2.8-1.3c-0.8,2.4-3.9,4.6-6.4,5.1c2.5,1.4,7.1,2.4,9.6-0.6c1.7,3.3-0.7,4.7-3,6.4
							c8.9,4.1,7.6,8.6,13.4,12.2c-0.8,0.4-4.1-0.4-4.4-0.4c1.3,1.6,1.9,2.3,2.2,3.1c0.4,0.8,0.5,1.6,0.9,3.4
							c0.3,1.4,0.8,2.9,2.5,3.8C77.2,47.5,75.6,46.5,75,46.3"/>
						<path class="st0" d="M32.6,56.3l1.3-1.1l-0.2-0.4c-0.1-0.3-0.1-0.3,0.1-0.4l0.7-0.5c0.2-0.1,0.3-0.1,0.5-0.1l2,0.5h-2.1
							c-0.5,0-0.6,0.2-0.8,0.6l-0.1,0.3l-0.5,1.1c-0.2,0.4-0.3,0.9,0.2,1.5l0.4,0.5l-0.8,1.6h0.7l0.5-1.1c0,0,0.8-0.8,1-1.5
							c-0.2-0.2-0.4-0.3-0.3-0.6l0.2-0.5c0.1-0.2,0.1-0.2,0.3-0.2l2.1,0.5c0.3,0.1,0.6,0.2,0.9-0.2c0.3-0.4,0.3-0.4,1-0.3l1.1,0.1
							c1.5,0.1,2.9-0.2,3.5-0.7c0.2,0.5,0.6,0.8,0.8,1.2c0.1,0.1,0,0.3-0.1,0.5l-1.2,2.9h1.9l1.1-2.6c0.1-0.2,0.2-0.5,0.4-0.5
							l-0.6,3.2h1.8l0.5-3.2c0.1-0.7,0-0.9-0.3-1.2c-0.8-0.6-0.7-2-1-2.8c0.1-0.1,0.3-0.1,0.5-0.1c0.4,0,0.7,1,1.2,1.7
							c0.9,1.3,2.2,2.7,3.6,0.7c-0.1-0.2-0.3-0.4-0.5-0.6l-0.4-0.5c-0.2-0.3-1.4-1.5-1.8-2c-1.1-1.1-2.7-0.9-3.3-0.4
							c-1.5-0.8-3,0-3.4,0l-2.5-0.2c-0.1,0-0.3,0-0.4-0.2l0.5-0.2c-0.4-1.8-1.5-3.4-3.5-3.6c0,0-0.1-0.6-0.4-0.7l-0.6,0.7
							c-0.2,0-0.3,0.1-0.5,0.1l-2.5-0.9l1.9,1.9c0,0-1,1.4-1.2,1.6c-0.2,0.3-0.2,0.5,0,0.7l0.4,0.5c0.2,0.2,0.4,0.2,0.7,0.1l0.4-0.2
							c0.2-0.1,0.8,0.1,1-0.1c-0.2,0.5-0.2,1-0.3,1.5l-1.7-0.2c-0.4,0-0.5,0-0.8,0.2l-1.4,1.1c-0.5,0.4-0.6,1-0.3,1.6L32.6,56.3z
							 M46.4,56.6l-1.1,2.8h-0.7l1.1-2.7c0.1-0.3-0.1-0.5-0.4-0.9c0.4,0.2,0.7,0.4,1.2,0.6C46.5,56.5,46.4,56.5,46.4,56.6
							 M35.5,50.6l-0.3,0.2c-0.2,0.1-0.3,0.2-0.5-0.1l-0.1-0.2c-0.1-0.1-0.1-0.3,0.1-0.4l1.4-1.6l-1.3-1l1.6,0.6l0.6-0.7
							c0.2,0.2,0.1,0.6,0.1,0.6c0.7,0,2.6,0.9,2.6,3.3c0,0,0.4,0.6,1,0.7l2.8,0.2c0.5,0,1.6-0.9,3.1,0c0.4-0.2,0.8-0.4,1.2-0.5
							c1.3-0.1,2.3,0.8,3,1.7c0.5,0.7,1.3,1.7,1.3,1.7c-0.3,0.4-0.6,0.5-0.9,0.4c-0.4-0.2-0.5-0.5-0.6-0.9c-0.2-0.7-1-1.3-1-1.3
							c0.3,0.5,0.3,1,0.4,1.5c-1.1-1.1-1.3-2.4-2.1-2.6c-0.3-0.1-0.7,0.1-1.1,0.5c0.4,0.9,0.4,1.9,0.8,2.6c0.3,0.5,0.4,0.6,0.5,0.7
							c0.3,0.2,0.1,0.7,0.1,1l-0.4,2.6h-0.7l0.5-2.6c0.1-0.8-2-0.8-3.2-2.3c-1,1.1-3.6,0.8-4.8,0.7c-0.5-0.1-0.9,0-1.2,0.4
							c-0.1,0.3-0.4,0.2-0.6,0.1l-2.1-0.5c-0.4-0.1-0.5,0-0.7,0.3l-0.4,0.9c-0.1,0.2-0.1,0.4,0.1,0.5l0.2,0.2
							c-0.1,0.4-0.5,0.7-0.5,0.7l-0.5-0.5c-0.2-0.3-0.2-0.6-0.1-1l0.7-1.4c0.1-0.2,0.2-0.3,0.5-0.3l2.6,0l-0.8-1.3
							c-0.6-1,0.4-2.7,0.2-3.5C37.1,50.9,35.7,50.4,35.5,50.6 M32.7,53.9l1.2-0.9c0.2-0.2,0.4-0.3,0.6-0.2l1.7,0.2
							c0.1,0.4,0.4,0.8,0.4,0.8l-1.9-0.4c-0.3,0-0.3,0-0.6,0.2l-0.9,0.7c-0.2,0.1-0.2,0.4-0.1,0.6l0.1,0.3l-0.6,0.5l-0.2-0.4
							C32.3,54.6,32.3,54.2,32.7,53.9"/>
						<path class="st0" d="M38.1,20.3c0.7,0.5,1.9,1,1.9,1v-0.8l-2.6-1C37.3,19.5,37.3,19.8,38.1,20.3"/>
						<path class="st0" d="M39.9,19.4v-0.8l-3-1.1c0,0,0.4,0.4,1.1,0.9C38.7,18.9,39.9,19.4,39.9,19.4"/>
						<path class="st0" d="M39.9,17.6v-0.8l-3.3-1.2c0,0,0.6,0.5,1.4,1C38.7,17.1,39.9,17.6,39.9,17.6"/>
						<path class="st0" d="M49.1,28.4h3.4c-0.1-0.5-0.7-1-1.6-1C49.9,27.5,49.4,28,49.1,28.4"/>
						<path class="st0" d="M45.6,15.6l-3.3,1.2v0.8c0,0,1.2-0.5,1.9-1C45,16.1,45.6,15.6,45.6,15.6"/>
						<path class="st0" d="M45,19.5l-2.6,1v0.8c0,0,1.2-0.5,1.9-1C45,19.8,45,19.5,45,19.5"/>
						<path class="st0" d="M45.4,17.5l-3,1.1v0.8c0,0,1.2-0.5,1.9-1C45,17.9,45.4,17.5,45.4,17.5"/>
						<path class="st0" d="M31.4,27.5c-1,0-1.5,0.5-1.6,1h3.4C32.9,28,32.4,27.5,31.4,27.5"/>
						<path class="st0" d="M47.8,13.4c0-1.9-3.2-3.6-6.7-3.6c-3.5,0-6.7,1.7-6.7,3.6l0.1,0.5l1.4,8l-6.6,3.8
							c-0.7,0.4-1.6,1.6-1.7,2.7h1.2c0.2-1.1,1.1-2.4,2.8-2.3c1.5,0.1,2.4,1,3.3,2.3l0.2,0.4l0.3,0.5h-9.7c0.7,1.4,1.4,3,1.4,4.6
							v20.2c0,5.2,4,7.7,8.3,7.7c3.3,0,3.8-0.2,5.6,1.7c1.8-1.8,2.3-1.7,5.6-1.7c4.3,0,8.3-2.5,8.3-7.7V33.9c0-1.6,0.7-3.2,1.4-4.6
							h-9.7l0.3-0.5l0.2-0.4c0.9-1.3,1.8-2.3,3.3-2.3c1.7-0.1,2.6,1.2,2.8,2.3h1.2c-0.1-1.1-1-2.3-1.7-2.7l-6.6-3.8l1.4-8L47.8,13.4
							z M35.8,14.3l4.9,1.7v7.7l-3.6-1.9L35.8,14.3z M37,30.7c0.6,0.9,1.7,1.5,2.9,1.8c0.1,0.5,0.4,1,0.9,1.4
							c-0.2,1.4,0.4,2.7,1.9,3c0.2,0.7,0.6,1.2,1.3,1.5l-1,1.2c-0.4,0.5-0.9,0.6-1.3,0.5l-4.6-0.5c0.2-0.5-0.3-1.1-1.8-0.9l1.8-5.1
							L36,31.3l-2.1,1.8l-0.2,5.3L32.8,38c-1.2-0.5-1.5,1.6-0.4,1.6l0.4,0c0,0.2,0,0.5,0.2,0.5c-0.2,0.1-0.3,0.5,0,0.6
							c-0.3,0.1-0.3,0.5-0.1,0.7c-0.2,0.4-0.3,1.2,0.5,1.4c0.7,0.2,1.1-0.5,1.2-1l7.2,2.2c1,0.3,1.7,0.1,2.6-0.6l1.9-1.6
							c-0.2,1.1,0.2,2,1,2.3c0,0-0.1,1-0.1,1.4H28.6V33.9c0-1.1-0.3-2.2-0.7-3.2H37z M44.7,35.2c-0.4,0.8-0.4,1.6,0.1,2.4l-0.3,0.3
							c-1.3-0.2-1.9-2.2-1.9-2.2c0,0.2,0,0.4,0,0.5c-0.8-0.3-1.3-1-1.2-1.9c0.3,0.2,0.6,0.3,1,0.3l0.1-0.6c-0.9-0.2-1.5-0.8-1.7-1.4
							c0,0-0.1,0-0.1,0c0.2,0,0.3,0,0.5,0c0.6,0,1.1-0.1,1.6-0.2c0.4,0.6,1.1,1,1.8,1C44.4,33.9,44.5,34.5,44.7,35.2 M46.7,40.5
							c-0.1,0.2-0.2,0.4-0.3,0.6l-0.7,0.7c0.2-1.1-0.6-2.4-1.3-2.9l0.8-0.8l0.2,0.2C45.1,38.9,45.6,40.3,46.7,40.5 M43.1,40.1
							l0.6-0.6c0.6,0.5,1.5,1.8,1.2,2.9l-0.7,0.6c-0.1,0.1-0.3,0.2-0.4,0.3C44.2,42.4,43.7,40.8,43.1,40.1 M41.8,40.6L41.8,40.6
							c0.2,0,0.5,0,0.7-0.1c0.5,0.7,0.8,2.2,0.3,3.2c-0.3,0-0.6-0.1-0.9-0.1l-0.2-0.1C42.1,42.8,42,41.4,41.8,40.6 M40.2,40.4
							l0.9,0.1c0.1,0.7,0,2-0.4,2.7l-1-0.3C40.1,42.3,40.3,41.1,40.2,40.4 M38.4,40.2l1.1,0.1c0.1,0.6-0.1,1.8-0.5,2.4l-1.1-0.3
							C38.3,41.9,38.5,40.9,38.4,40.2 M34.2,39.9c-0.5,0.2-0.7-0.2-0.7-0.5c1-0.4,1.4-0.1,1.7,0.1c0.3,0.2,0.5,0.6,0.8,0.9
							c-0.1,0.4-0.2,1-0.3,1.3c-1-0.3-1-1.1-0.7-1.7C34.8,39.9,34.5,39.8,34.2,39.9 M33.5,41.9c0,0,0.3,0.1,0.7,0.2
							c0,0.2-0.2,0.4-0.5,0.3C33.5,42.3,33.4,42,33.5,41.9 M32.5,39c-0.2-0.2-0.1-0.5,0.1-0.5c0.3,0,0.7,0.3,1.1,0.5
							C33.7,39,32.7,39.2,32.5,39 M33.5,41.1c0.2,0.2,0.8,0.1,0.8,0.1l0,0.1C34.1,41.7,33.3,41.5,33.5,41.1 M34.4,40.7
							c-0.5,0.2-0.9-0.1-0.8-0.4c0.2,0.2,0.8,0.1,0.8,0.1L34.4,40.7z M35,35.4l-0.9,3.2l0.3-5.1l1.4-1.2l0.7,1.5l-1.7,5l0.5-3.4
							C35.3,35.2,35.1,35.1,35,35.4 M35.1,39.2c0,0,1,0,1.2,0.1c0.2,0.1,0.1,0.4-0.2,0.4C35.9,39.6,35.1,39.2,35.1,39.2 M36.6,40
							l1.1,0.1c0.1,0.6-0.1,1.6-0.5,2.1l-1-0.3C36.5,41.3,36.5,40.7,36.6,40 M53.7,54.1c0,2.5-1.1,4.3-3,5.4l0.7-1.4h-0.7l-0.9,1.8
							c-0.9,0.3-1.9,0.5-3,0.5c-3.4,0-4.4,0.1-5.6,1.4c-1.3-1.3-2.2-1.4-5.6-1.4c-1.1,0-2.1-0.2-3-0.5h0l0.9-1.8h-0.7L32,59.6
							c-0.2-0.1-0.4-0.2-0.5-0.3l0.6-1.3h-0.6L30.9,59c-1.5-1.1-2.3-2.8-2.3-4.9v-7.7h25.1V54.1z M54.4,30.7c-0.4,1-0.7,2.1-0.7,3.2
							v11.8h-1.4c-0.6-0.6-1.1-2.6-1.1-2.6c-0.3,0.7,0,2.2,0.4,2.6h-1.8C49.4,45.1,49,43,49,43c-0.5,0.6-0.2,2.2,0.1,2.7H48
							c-0.1-0.8,0.2-1.7,0.2-1.7c-0.6-0.1-1.3-0.4-1.3-1.1c0.3,0.3,0.4,0.3,0.9,0.3l0.5-0.4c-1.7,0.1-1.7-1.8-0.4-2.6
							c-1.3,0-2.3-0.7-1.8-2.1c-0.9-0.5-1.3-2.1-0.6-2.7c-0.5-0.5-0.6-1.6-0.3-2.3c-0.7,0-1.4-0.3-1.8-0.7c0,0-0.1,0-0.1,0
							c0.8-0.3,1.5-0.9,2-1.5H54.4z M49.4,25c-1.4,0.2-2.5,1.9-3.5,3.4l-0.1,0.2h-1l0,0.2c-0.1,1.2-1.2,2.7-3.6,2.7
							c-1.1,0-2-0.3-2.5-0.8c-0.5-0.4-0.8-0.9-1-1.4c-0.1-0.2-0.1-0.4-0.1-0.5l0-0.2h-1l-0.1-0.2c-1-1.5-2.1-3.2-3.5-3.4l3.7-2.1
							l4.5,2.5l4.5-2.5L49.4,25z M45.2,21.8l-3.6,1.9V16l4.9-1.7L45.2,21.8z M41.1,15.2L35.8,13c0.5-1.1,2.6-2,5.4-2s4.9,0.9,5.4,2
							L41.1,15.2z"/>
						<path class="st0" d="M53.1,38.3l0-0.6c-1.8,0-2.2-2.2-2.2-2.2C50.4,37.1,51.8,38.3,53.1,38.3"/>
						<path class="st0" d="M50.8,41.9l-0.2-0.6c-1.5,0.4-2.3-2.1-2.3-2.1C47.8,41.1,49.5,42.4,50.8,41.9"/>
						<path class="st0" d="M51.9,39.7c-1.8,0.3-2.6-1.9-2.6-1.9c-0.2,1.2,0.6,2.4,1.8,2.5c-0.3,1.5,1.1,2.3,2.4,1.8l-0.2-0.5
							C52.2,41.9,51.2,40.8,51.9,39.7"/>
						<path class="st0" d="M50.8,33.5l0-0.6c-2.4-0.5-2.2-2.2-2.2-2.2C48.1,32.3,49.4,33.5,50.8,33.5"/>
						<polygon class="st0" points="35.4,58.1 34.5,59.8 35.1,59.8 36,58.1 						"/>
						<polygon class="st0" points="36.7,58.1 35.8,59.8 36.5,59.8 37.3,58.1 						"/>
						<polygon class="st0" points="42,58.1 41.1,59.8 41.7,59.8 42.6,58.1 						"/>
						<polygon class="st0" points="43.3,58.1 42.4,59.8 43.1,59.8 43.9,58.1 						"/>
						<polygon class="st0" points="40.6,58.1 39.8,59.8 40.4,59.8 41.3,58.1 						"/>
						<polygon class="st0" points="48.3,59.8 49,59.8 49.9,58.1 49.2,58.1 						"/>
						<polygon class="st0" points="38,58.1 37.1,59.8 37.8,59.8 38.7,58.1 						"/>
						<polygon class="st0" points="39.3,58.1 38.4,59.8 39.1,59.8 40,58.1 						"/>
						<path class="st0" d="M36.3,48.6c-0.1,0-0.2,0.1-0.2,0.3c0,0.1,0.1,0.3,0.2,0.3c0.1,0,0.2-0.1,0.2-0.3
							C36.6,48.7,36.5,48.6,36.3,48.6"/>
						<path class="st0" d="M41.1,8.6c2.7,0,4.9,0.9,6.1,1.9c0,0,0.4-2.1,1.6-4l-2.2,0.2l-1.1-2.4l-2.2,1.1l-2.1-2.1L39,5.4l-2.2-1.1
							l-1.1,2.4l-2.2-0.2c1.2,1.9,1.6,4,1.6,4C36.3,9.5,38.4,8.6,41.1,8.6 M36.1,7.7l1-2.2l1.9,1l2.1-2.1l2.1,2.1l1.9-1l1,2.2
							l1.3-0.2c-0.3,0.6-0.6,1.2-0.8,1.9c-1.4-0.8-3.5-1.4-5.6-1.4c-2.1,0-4.2,0.6-5.6,1.4c-0.2-0.8-0.5-1.3-0.8-1.9L36.1,7.7z"/>
						<path class="st0" d="M43.4,4.3c0.3,0,0.6-0.2,0.6-0.5c0-0.3-0.4-1.2-0.4-1.2s-0.7,0.7-0.7,1.1C42.8,4,43.1,4.3,43.4,4.3"/>
						<path class="st0" d="M46.9,5.6c0.3,0.2,0.6,0,0.8-0.2c0.2-0.3,0.1-1.2,0.1-1.2s-0.9,0.4-1.1,0.7C46.6,5.1,46.7,5.4,46.9,5.6"
							/>
						<path class="st0" d="M38.9,4.3c0.3,0,0.6-0.3,0.5-0.6c0-0.3-0.7-1.1-0.7-1.1s-0.5,0.8-0.4,1.2C38.3,4.1,38.6,4.3,38.9,4.3"/>
						<path class="st0" d="M35.4,5.6c0.3-0.2,0.4-0.5,0.2-0.8c-0.1-0.3-1.1-0.7-1.1-0.7s-0.1,1,0.1,1.2C34.7,5.6,35.1,5.8,35.4,5.6"
							/>
						<path class="st0" d="M78.2,25.2c0.8-0.3,1.3-1,1.6-1.7c-1.9-0.3-7.1-2.4-11.3-0.7c1.6-1.5,3-1.7,3.1-3.9
							c0.7,0.5,1.8,0.7,2.4-0.4c-0.4-1.3-1.5-0.2-1.7-0.6c-0.2-0.5,1.4,0.2,1.7-1.5c-1.2-0.4-1.6,0.6-1.8,0.4
							c-0.2-0.2,0.8-0.7,0.1-2c-1.3,0.8-0.6,1.6-0.9,1.7c-0.3,0.1-0.1-0.9-1.5-0.9c-0.1,1.5,1.4,1.6,1.1,1.8
							c-0.3,0.3-0.7-0.9-1.8-0.3c0,1.2,1,1.9,2.1,1.6c-0.2,2.4-2.3,1.9-4,4.6c3.4,1.8,5,4.8,7.1,6.9c0.7-0.5,1.9-2.7,1.9-2.7
							c2.3,1.8,3.9,0,3.9,0C79.4,26.9,79.4,26.3,78.2,25.2 M74.8,25.7c0.2,0.5,0.7,2.3-0.4,3.7c-1.3-2.5-3-4.7-4.4-5.7
							c-0.3-0.2,0.2-0.6,1-0.7c2.6-0.5,5.7,0.6,7.2,1c-0.7,0.5-1.2,0.7-1.9,0.8c1.1,0.9,1.8,1.7,2.4,2.5
							C77.7,27.6,77.1,27,74.8,25.7"/>
						<path class="st0" d="M40.5,67.2L39,67.1l-0.2,0.6l0.2,0c0.1,0,0.1-0.1,0.1-0.2c0,0,0.3-0.1,0.5,0l0.6,0
							c-0.4,0.8-1.3,1.5-1.3,2c0,0.3,0.3,0.3,0.4,0.3c0.3,0,0.4-0.2,0.5-0.5c0.2-0.8,0.5-1.3,0.8-2.2L40.5,67.2L40.5,67.2z"/>
						<path class="st0" d="M41.5,68.1l0-0.5h1.3l-0.1-0.5c-0.4,0-0.9,0.1-1.3,0.1l-0.1,1c0.6,0,1,0.2,1,0.9c0,0.2-0.2,0.7-0.4,0.7
							c-0.1,0-0.1,0-0.2,0c-0.1-0.1,0-0.2,0-0.4c0-0.2-0.2-0.3-0.4-0.3c-0.2,0-0.3,0.2-0.3,0.3c0,0.4,0.5,0.5,0.8,0.5
							c0.5,0,1.1-0.3,1.1-0.9C43,68.3,42.1,68.1,41.5,68.1"/>
						<path class="st0" d="M44.3,67c-0.5,0-0.8,0.3-0.8,0.8c0,0.7,0.8,1,1.4,0.7c0.1,0.6,0,1-0.3,1c-0.2,0-0.2-0.1-0.2-0.3
							c0-0.2-0.2-0.3-0.4-0.2c-0.2,0.1-0.2,0.2-0.2,0.4c0.1,0.3,0.4,0.3,0.6,0.3c0.8-0.1,1.1-0.6,1.1-1.3C45.5,67.7,45.1,67,44.3,67
							 M44.6,68.5c-0.5,0-0.5-0.7-0.5-1.1c0-0.1,0.1-0.2,0.2-0.2c0.4,0,0.5,1,0.6,1.2C44.8,68.5,44.7,68.5,44.6,68.5"/>
						<path class="st0" d="M38,66.9c-0.1,0.1-0.4,0.5-1.1,1L37,68c0.1,0,0.2-0.1,0.4-0.2L37,69.2c0,0.1-0.1,0.1-0.2,0.1l-0.2,0
							l0,0.2l1.3,0.2l0-0.2l-0.2-0.1c-0.1,0-0.1-0.1-0.1-0.1l0.6-2.3L38,66.9z"/>
						<path class="st0" d="M52.9,65.1v-2.9c-2.2,1-5.1,1.9-8.7,2.2l-0.2,1c0.3,0,0.7,0.1,1.2,0.1c-1.4,0.2-3.1,0.3-4.1,0.3
							c-1,0-2.7-0.1-4.1-0.3c0.5,0,0.9-0.1,1.2-0.1l-0.2-1c-3.7-0.3-6.5-1.2-8.7-2.2v2.9l-3,1.2c2.2,1.2,4.8,2.1,7.8,2.9l-0.4,1.2
							c1.7,0.5,4.4,1,7.3,1c2.9,0,5.6-0.5,7.3-1l-0.4-1.2c3-0.8,5.6-1.7,7.8-2.9L52.9,65.1z M28,66.4l2-0.8v-2.4
							c1.3,0.5,3,1,5.5,1.5l-1.2,3.8C31.9,68,29.7,67.2,28,66.4 M41.1,70.8c-2.3,0-4.6-0.3-6.5-0.8l1.2-4c0.8,0.2,2.8,0.4,5.3,0.4
							s4.4-0.2,5.3-0.4l1.2,4C45.7,70.4,43.4,70.8,41.1,70.8 M47.9,68.6l-1.2-3.8c2.5-0.5,4.2-1,5.5-1.5v2.4l2,0.8
							C52.6,67.2,50.4,68,47.9,68.6"/>
						<path class="st0" d="M6,27.7c0,0,1.2,2.2,1.9,2.7c2.1-2.1,3.7-5.2,7.1-6.9c-1.6-2.7-3.8-2.2-3.9-4.6c1,0.3,2-0.4,2.1-1.6
							c-1.1-0.6-1.5,0.6-1.8,0.3c-0.2-0.2,1.2-0.3,1.1-1.8c-1.4,0-1.2,1-1.5,0.9c-0.3-0.1,0.4-1-0.9-1.7c-0.7,1.4,0.3,1.8,0.1,2
							c-0.2,0.2-0.6-0.8-1.8-0.4c0.3,1.7,1.9,1,1.7,1.5c-0.2,0.4-1.3-0.7-1.7,0.6c0.6,1.1,1.7,0.9,2.4,0.4c0.1,2.2,1.6,2.3,3.1,3.9
							c-4.2-1.8-9.4,0.4-11.3,0.7c0.3,0.7,0.9,1.4,1.6,1.7c-1.2,1.1-1.2,1.7-2,2.5C2.1,27.7,3.7,29.5,6,27.7 M3.6,27.4
							c0.6-0.8,1.3-1.6,2.4-2.5c-0.7-0.1-1.3-0.3-1.9-0.8c1.5-0.4,4.6-1.5,7.2-1c0.9,0.1,1.4,0.5,1,0.7c-1.4,0.9-3.2,3.1-4.4,5.6
							c-1.1-1.4-0.6-3.2-0.4-3.7C5.2,27,4.6,27.6,3.6,27.4"/>
						<path class="st0" d="M39.3,26.1v1.3c0.4-0.5,1.3-0.4,1.3-0.4v1.8c0,0,0,0.9-0.3,1.3h0.9h0.9c-0.3-0.4-0.3-1.3-0.3-1.3V27
							c0,0,0.8-0.1,1.3,0.4v-1.3h-1.9H39.3z"/>
					</g>
					<g>
						<g>
							<path class="st1" d="M81.3,26.7c-0.2-0.2-0.4-0.4-0.5-0.7c-0.1-0.1-0.2-0.3-0.3-0.5c0.3-0.4,0.6-0.8,0.8-1.3l0.8-1.9L80,22
								c-0.3-0.1-0.9-0.2-1.5-0.4c-1.2-0.3-2.8-0.7-4.6-0.9c0.6-0.3,1.1-0.7,1.4-1.4l0.3-0.6c0,0-0.1-0.8-0.4-1.1
								c0.1-0.3,0.2-0.5,0.3-0.9l0.3-1.3l-1.3-0.4c-0.2-0.1-0.4-0.1-0.6-0.2c-0.1-0.2-0.2-0.5-0.3-0.8l-0.8-1.4l-1.4,0.8
								c-0.3,0.2-0.6,0.4-0.9,0.7c-0.2,0-0.4-0.1-0.7-0.1c0,0-0.8-0.1-1.7,0.2l-1.1-1.2l-1.3-1.4c-1.2-1.3-2.9-1.7-4.6-1.1
								c-0.6-0.6-1.7-1.2-3.2-1.2c-0.5,0-1,0.1-1.3,0.1c0,0-2.2,0.4-3.4,1.5l-1.5-0.7c-1,1.6-2.7,2.1-2.7,2.1
								c-0.1-0.5-0.3-0.9-0.6-1.3l0.1-0.5c0,0,0.3-1.9,1.3-3.4l1.8-2.7l-2.5,0.3c0-0.2,0-0.5,0-0.9l-0.2-2.1l-2,0.9
								c-0.2,0.1-0.4,0.2-0.6,0.3l-0.4-0.8l-0.9,0.5c-0.1-0.2-0.2-0.5-0.4-0.8l-1-1.9l-1.5,1.6C42.3,1.8,42.2,1.9,42,2l-0.9-0.9
								L40.3,2c-0.1-0.1-0.2-0.3-0.4-0.5L38.4,0l-1,1.9c-0.2,0.3-0.3,0.5-0.4,0.8l-0.9-0.5L35.7,3c-0.2-0.1-0.4-0.2-0.6-0.3l-2-0.9
								L33,4c0,0.3,0,0.6,0,0.9l-2.5-0.3l1.8,2.7c1,1.6,1.3,3.4,1.3,3.4l0.1,0.5c-0.3,0.4-0.5,0.8-0.6,1.3c0,0-1.6-0.7-2.7-2.1
								l-1.5,0.7c-1.7-1.2-2.8-1.6-4.6-1.7c-1.6,0-2.6,0.5-3.2,1.2c-1.7-0.6-3.4-0.3-4.6,1.1c0,0-0.8,0.9-1.3,1.4
								c-0.5,0.5-1.3,1-1.3,1s-1.1-0.2-2.2,0c-0.2-0.3-0.5-0.5-0.9-0.7l-1.4-0.8l-0.8,1.4c-0.1,0.3-0.3,0.5-0.3,0.8
								c-0.2,0-0.4,0.1-0.6,0.2l-1.3,0.4l0.3,1.3c0.1,0.3,0.2,0.6,0.3,0.9c-0.1,0.1-0.1,0.3-0.2,0.5l-0.2,0.6l0.3,0.6
								c0.3,0.6,0.8,1.1,1.4,1.4c-1.7,0.2-3.3,0.6-4.6,0.9C3.2,21.8,2.6,22,2.3,22l-2,0.3l0.5,1l0.4,0.8c0.2,0.5,0.5,0.9,0.8,1.3
								c-0.1,0.2-0.6,1-0.9,1.2l-1,1l1,1.1c0.1,0.1,1.2,1.3,3,1.3c0.5,0,1-0.1,1.4-0.3c0.5,0.7,1,1.5,1.6,1.9
								c-0.9,1.1-2,2.1-3.6,2.8l-1.3,0.6l0.5,1.5c0.4,0.9,1.1,1.9,2.4,2.2c-0.3,0.9-0.4,1.7-0.6,2.4c-0.3,1.7-0.4,2.5-1.9,3
								l-1.4,0.5l0.4,1.4C2,47.2,2.4,48,2.9,48.5l-0.9,1c0,0,2.2,1.6,4.3,1.8c0,0,1.8,0.1,2.6-0.9c0.3,1.2,0.8,2.3,1.3,3.2
								c1,2,1.5,3.2,0.8,4.3l-1.4,2.5l2.8-0.1c1.2-0.1,2.4-0.1,3.4-0.4c0,0.1,0,0.1,0,0.2l-0.2,2.1l2.5-0.5c0.3-0.1,0.5-0.2,0.7-0.3
								c1.5,1.8,4.2,3.2,7.7,3.2h0.2l-4.1,1.7l3,1.5c2,1,4.1,1.9,6.6,2.6l-0.3,1.2l1.5,0.4c0.9,0.3,4,1.1,7.7,1.1s6.9-0.8,7.7-1.1
								l1.5-0.4L50,70.3c2.5-0.7,4.6-1.6,6.6-2.6l3-1.5l-4.1-1.7h0.2c3.5,0,6.2-1.4,7.7-3.2c0.2,0.1,0.5,0.2,0.7,0.3l2.5,0.5
								L66.4,60c0-0.1,0-0.1,0-0.2c1,0.2,2.2,0.3,3.4,0.4l2.8,0.1l-1.4-2.5c-0.6-1.1-0.1-2.3,0.8-4.3c0.5-1,1-2.1,1.3-3.2
								c0.5,0.4,1.1,0.7,1.7,0.8c0,0,0.5,0.1,0.9,0.1c1.3,0,1.9-0.3,2.8-0.9l1.6-1l-0.9-1c0.5-0.5,1-1.2,1.3-2.4l0.4-1.4l-1.4-0.5
								c-1.5-0.5-1.6-1.3-1.9-3c-0.1-0.7-0.3-1.6-0.6-2.4c1.4-0.4,2-1.3,2.4-2.2l0.5-1.5l-1.3-0.6c-1.5-0.7-2.6-1.7-3.6-2.8
								c0.5-0.4,1.1-1.1,1.6-1.9c0.5,0.2,1,0.3,1.4,0.3l0,0c1.8,0,2.9-1.2,3-1.3l1-1.1L81.3,26.7z"/>
							<path class="st2" d="M28.6,45.7V33.9c0-1.1-0.3-2.2-0.7-3.2H37c0.8,1.2,2.4,1.9,4.1,1.9c1.7,0,3.3-0.8,4.1-1.9h9.1
								c-0.4,1-0.7,2.1-0.7,3.2v11.8H28.6z M41.1,61.8c-1.3-1.3-2.2-1.4-5.6-1.4c-4.1,0-6.9-2.4-6.9-6.3v-7.7h25.1v7.7
								c0,3.9-2.8,6.3-6.9,6.3C43.3,60.4,42.4,60.5,41.1,61.8"/>
							<path class="st1" d="M30.1,63.2v2.4l-2,0.8c1.7,0.8,3.9,1.6,6.4,2.1l1.2-3.8C33.1,64.3,31.4,63.7,30.1,63.2"/>
							<path class="st1" d="M41.1,66.4c-2.4,0-4.4-0.2-5.3-0.4l-1.2,4c1.9,0.5,4.2,0.8,6.5,0.8c2.3,0,4.5-0.3,6.5-0.8l-1.2-4
								C45.6,66.2,43.6,66.4,41.1,66.4"/>
							<path class="st1" d="M52.2,63.2c-1.3,0.5-3,1-5.5,1.5l1.2,3.8c2.5-0.6,4.7-1.4,6.4-2.1l-2-0.8V63.2z"/>
							<path class="st1" d="M25.8,25.3c3.2-1.7,11-5.5,5.7-9.6c-0.7-0.6-1.5-1.1-2.2-1.7c-0.8,0.6,0.3,2.2,0.6,2.8
								c0,0-1.8,0.2-2.2,0.2c-2.7,0-5.6-1.6-4.1-4.7c-1.1,0.2-1.2,1.3-1.5,2.2c-0.7-0.5-1.9-1.5-2.8-1.3c0.8,2.4,3.9,4.6,6.4,5.1
								c-2.5,1.4-7.1,2.4-9.6-0.6c-1.7,3.3,0.7,4.7,3,6.4c-8.9,4.1-7.6,8.6-13.4,12.2c0.8,0.4,4.1-0.4,4.4-0.4
								c-1.3,1.6-1.9,2.3-2.2,3.1c-0.4,0.8-0.5,1.6-0.9,3.4c-0.3,1.4-0.8,2.9-2.5,3.8c0.7,1.2,2.2,0.3,2.8,0.1
								C7.2,46.5,7,48,6.4,48.7c3-0.2,1.6-6.5,4.6-5c0.8,0.4,1.1,1.4,0.7,2.2c-2,4.1,2.5,7.6,2.3,11.2c1.1,0,2.2,0,3-1.5
								c0.4,0.7,1,1.8,1.3,2.8l0.9-1.5c0.6,2.5,2.9,4.9,6.1,5.1c-1.5-2.4,0.3-5.7-3.4-9.2c0.5-0.4,1.5-1.1,1.9-1.6
								c-4.5,0.5-9.2-3-7.1-4.7c1.4-1.1,2,1.2,4.2,0.8L20,46.5c0.3-0.3,0.6-0.7,1-1C20,45.4,19,44.8,19,44.8l0.5-0.9
								c-5.3,0-5.4-4.1-3.3-4.2c1-0.1,2.3,1.8,5.6,1.4c-0.4-0.5-0.6-1.3-0.8-1.8c0.8-0.1,1.7-0.1,2.5-0.4c-1.6-0.2-2-0.7-3.3-1.7
								l1.5-0.6c-2.2-1.1-2.1-3.1-2.2-5.1c1.2,0.7,2.5,1.7,4,1.2c0.3-0.1,0.6-0.3,0.6-0.6C22.1,31.2,20.8,28,25.8,25.3 M22,25.6
								c-2.8,3-1.6,4.8-1,5.3c-1-0.2-2.6-1.6-2.2-2.8c-0.3,0.4-0.7,0.8-1,1.3c-0.7,0.9-1.3,1.8-1.9,2.7c-0.8,2.5,0.7,5.1,3.4,6.3
								c-2.9-0.4-4.3-3.1-4.3-4.7c-1.4,2.7-2.1,5.1-2,7.1c0,0.8,0.1,1.5,0.2,2.1c0.7,1.3,1.8,1.8,3.7,2c-1.8,0.1-2.7,0-3.5-0.8
								c1.2,5.1,6.8,9.6,9.1,13.4c-2.3-3-7-7.4-8.7-10.6c-0.1,1.2,0.2,4.1,1.6,5.9c-2.1-2.1-2.3-5.2-2.1-7.1
								c-0.5-1.3-0.9-2.8-0.9-4.5c0-1.6,0.1-2.9,0.3-4.1c-1.3,1.9-3.3,2.6-4.2,5.5c0.2-3.7,3-3.8,5.1-8.3c0.8-2,2-3.7,3.3-5.6
								c-1.7,0.5-2.9,0.9-4.8,3c1.4-3.2,9.2-6.8,12.8-10.3c-1.1,0.2-5.5,0.3-7.3-0.9c3.3,0.9,10.7-0.1,13.5-2
								c-1.9,2.8-6.1,2.9-11.2,8.4C20.3,26.5,21.2,26,22,25.6"/>
							<path class="st1" d="M75.3,42.4c-0.4-1.8-0.5-2.7-0.9-3.4c-0.4-0.8-1-1.5-2.2-3.1c0.3,0,3.7,0.8,4.4,0.4
								c-5.8-3.6-4.5-8.1-13.4-12.2c2.3-1.7,4.7-3.1,3-6.4c-2.4,2.9-7.1,1.9-9.6,0.6c2.5-0.5,5.7-2.7,6.4-5.1
								c-0.9-0.1-2.1,0.9-2.8,1.3c-0.3-0.9-0.5-1.9-1.5-2.2c1.4,3.1-1.4,4.7-4.1,4.7c-0.4,0-2.2-0.2-2.2-0.2
								c0.3-0.6,1.4-2.2,0.6-2.8c-0.7,0.6-1.5,1.1-2.2,1.7c-5.3,4.1,2.5,7.9,5.7,9.6c5,2.7,3.7,5.9,1.6,6.8c0,0.4,0.2,0.5,0.6,0.6
								c1.5,0.5,2.8-0.6,4-1.2c-0.1,2,0.1,4-2.2,5.1l1.5,0.6c-1.3,1-1.7,1.5-3.3,1.7c0.7,0.4,1.7,0.4,2.5,0.4
								c-0.2,0.6-0.4,1.3-0.8,1.8c3.3,0.4,4.6-1.5,5.6-1.4c2.1,0.2,2,4.2-3.3,4.2l0.5,0.9c0,0-1,0.6-1.9,0.7c0.4,0.3,0.7,0.7,1,1
								l-0.8,0.7c2.2,0.4,2.8-1.9,4.2-0.8c2.1,1.7-2.6,5.3-7.1,4.7c0.4,0.5,1.4,1.2,1.9,1.6c-3.7,3.5-1.9,6.8-3.4,9.2
								c3.2-0.2,5.5-2.5,6.1-5.1l0.9,1.5c0.3-1,0.9-2,1.3-2.8c0.7,1.5,1.9,1.5,3,1.5c-0.2-3.6,4.2-7.1,2.3-11.2
								c-0.4-0.8-0.1-1.8,0.7-2.2c3-1.5,1.6,4.8,4.6,5c-0.6-0.7-0.8-2.2-0.9-2.3c0.6,0.2,2.2,1.1,2.8-0.1
								C76.1,45.3,75.6,43.8,75.3,42.4 M69.7,37.2c0.2,1.2,0.4,2.6,0.3,4.1c-0.1,1.7-0.4,3.2-0.9,4.5c0.1,1.8,0,5-2.1,7.1
								c1.4-1.8,1.7-4.8,1.6-5.9c-1.7,3.2-6.4,7.6-8.7,10.6c2.3-3.8,7.9-8.3,9.1-13.4c-0.8,0.8-1.7,0.9-3.5,0.8c1.9-0.2,3-0.7,3.7-2
								c0.1-0.7,0.2-1.4,0.2-2.1c0.1-2-0.6-4.5-2-7.1c0,1.7-1.3,4.3-4.3,4.7c2.6-1.2,4.2-3.8,3.4-6.3c-0.5-0.9-1.2-1.8-1.9-2.7
								c-0.3-0.4-0.7-0.9-1-1.3c0.4,1.3-1.2,2.6-2.2,2.8c0.6-0.6,1.8-2.3-1-5.3c0.8,0.4,1.6,0.9,2.3,1.4c-5.1-5.5-9.3-5.6-11.2-8.4
								c2.8,1.9,10.1,2.9,13.5,2c-1.8,1.2-6.2,1.1-7.3,0.9C61.2,25,69,28.6,70.4,31.8c-1.9-2.1-3.1-2.5-4.8-3
								c1.3,1.9,2.5,3.6,3.3,5.6c2.1,4.5,4.9,4.6,5.1,8.3C73,39.9,71,39.1,69.7,37.2"/>
							<path class="st1" d="M45.2,30.7c-0.8,1.2-2.4,1.9-4.1,1.9c-0.4,0-0.8,0-1.2-0.1c0.1,0.5,0.3,1,0.9,1.4
								c-0.2,1.4,0.4,2.7,1.9,3c0.2,0.7,0.6,1.2,1.3,1.5l-1,1.2c-0.4,0.5-0.9,0.6-1.3,0.5l-4.6-0.5c0.2-0.5-0.3-1.1-1.8-0.8l1.8-5.1
								L36,31.4l-2.1,1.8l-0.2,5.3L32.8,38c-1.2-0.5-1.5,1.6-0.4,1.6l0.4,0c0,0.2,0,0.5,0.2,0.5c-0.2,0.1-0.3,0.5,0,0.6
								c-0.3,0.1-0.3,0.5-0.1,0.7c-0.2,0.4-0.3,1.2,0.5,1.4c0.7,0.2,1.1-0.5,1.2-1l7.2,2.2c1,0.3,1.7,0.1,2.6-0.6l1.9-1.6
								c-0.2,1.1,0.1,2,1,2.3c0,0-0.1,1-0.1,1.4l2.5,0h3.9V33.9c0-1.1,0.3-2.2,0.7-3.2h-4.6H45.2z"/>
							<path class="st1" d="M34.5,50.5l0.1,0.2c0.2,0.2,0.3,0.2,0.5,0.1l0.3-0.2c0.2-0.2,1.5,0.4,1.6-0.8c0.1,0.8-0.8,2.6-0.2,3.5
								l0.8,1.3l-2.6,0c-0.3,0-0.4,0.2-0.5,0.3l-0.7,1.4c-0.2,0.4-0.2,0.8,0.1,1l0.5,0.5c0,0,0.4-0.3,0.5-0.7L34.7,57
								c-0.2-0.2-0.2-0.3-0.1-0.5l0.4-0.9c0.2-0.3,0.3-0.4,0.7-0.3l2.1,0.5c0.2,0,0.4,0.1,0.6-0.1c0.3-0.5,0.7-0.5,1.2-0.4
								c1.2,0.2,3.8,0.5,4.8-0.7c1.1,1.5,3.3,1.5,3.2,2.3l-0.5,2.6h0.7l0.4-2.6c0-0.3,0.2-0.7-0.1-1c-0.1-0.1-0.2-0.2-0.5-0.7
								c-0.4-0.7-0.4-1.7-0.8-2.6c0.4-0.4,0.8-0.6,1.1-0.5c0.8,0.2,1,1.5,2.1,2.6c-0.1-0.5-0.2-1-0.4-1.5c0,0,0.8,0.6,1,1.3
								c0.1,0.4,0.3,0.7,0.6,0.9c0.3,0.1,0.6,0,0.9-0.4c0,0-0.7-1-1.3-1.7c-0.7-0.9-1.7-1.8-3-1.7c-0.4,0-0.8,0.2-1.2,0.5
								c-1.5-0.8-2.7,0-3.1,0l-2.8-0.2c-0.6,0-1-0.7-1-0.7c-0.1-2.4-2-3.3-2.6-3.3c0,0,0.1-0.4-0.1-0.6L36.3,48l-1.6-0.6l1.3,1
								l-1.4,1.6C34.4,50.2,34.5,50.4,34.5,50.5"/>
							<path class="st1" d="M32.7,53.9c-0.4,0.3-0.4,0.7-0.1,1.2l0.2,0.4l0.6-0.5l-0.1-0.3c-0.1-0.2-0.1-0.4,0.1-0.6l0.9-0.7
								c0.2-0.2,0.3-0.2,0.6-0.2l1.9,0.4c0,0-0.3-0.4-0.4-0.8l-1.7-0.2c-0.2,0-0.4,0.1-0.6,0.2L32.7,53.9z"/>
							<path class="st1" d="M44.6,59.4h0.7l1.1-2.8c0-0.1,0.1-0.1,0.1-0.2c-0.5-0.2-0.8-0.3-1.2-0.6c0.3,0.4,0.5,0.5,0.4,0.9
								L44.6,59.4z"/>
							<path class="st1" d="M45.2,21.8l1.3-7.5L41.5,16v7.7L45.2,21.8z M42.4,16.8l3.3-1.2c0,0-0.6,0.5-1.4,1c-0.7,0.5-1.9,1-1.9,1
								V16.8z M42.4,18.6l3-1.1c0,0-0.4,0.4-1.1,0.9c-0.7,0.5-1.9,1-1.9,1V18.6z M42.4,20.5l2.6-1c0,0,0,0.3-0.8,0.8
								c-0.7,0.5-1.9,1-1.9,1V20.5z"/>
							<path class="st1" d="M36.4,28.4l0.1,0.2h1l0,0.2c0,0.2,0.1,0.3,0.1,0.5c0.2,0.5,0.5,1,1,1.4c0.6,0.5,1.4,0.8,2.5,0.8
								c2.4,0,3.5-1.6,3.6-2.7l0-0.2h1l0.1-0.2c1-1.5,2.1-3.2,3.5-3.4l-3.7-2.1l-4.5,2.5l-4.5-2.5L32.9,25
								C34.3,25.3,35.4,26.9,36.4,28.4"/>
							<path class="st1" d="M40.8,23.7V16l-4.9-1.7l1.3,7.5L40.8,23.7z M39.9,21.3c0,0-1.2-0.5-1.9-1c-0.8-0.5-0.8-0.8-0.8-0.8
								l2.6,1V21.3z M39.9,16.8v0.8c0,0-1.2-0.5-1.9-1c-0.8-0.5-1.4-1-1.4-1L39.9,16.8z M39.9,18.6v0.8c0,0-1.2-0.5-1.9-1
								c-0.8-0.5-1.1-0.9-1.1-0.9L39.9,18.6z"/>
							<path class="st1" d="M41.1,11c-2.8,0-4.9,0.9-5.4,2l5.4,2.1l5.4-2.1C46.1,12,44,11,41.1,11"/>
							<path class="st1" d="M41.1,8c2.1,0,4.2,0.6,5.5,1.4c0.2-0.8,0.5-1.3,0.8-1.9l-1.3,0.2l-1-2.2l-1.9,1l-2.1-2.1L39,6.5l-1.9-1
								l-1,2.2l-1.3-0.2c0.3,0.6,0.6,1.2,0.8,1.9C37,8.6,39.1,8,41.1,8"/>
							<path class="st1" d="M76.3,24.9c0.7-0.1,1.3-0.3,1.9-0.8c-1.5-0.4-4.6-1.5-7.2-1c-0.9,0.1-1.4,0.5-1,0.7
								c1.4,0.9,3.2,3.1,4.4,5.6c1.1-1.4,0.6-3.2,0.4-3.7c2.2,1.3,2.8,2,3.8,1.7C78.1,26.6,77.3,25.8,76.3,24.9"/>
							<path class="st1" d="M7.9,29.4c1.3-2.5,3-4.7,4.4-5.6c0.3-0.2-0.2-0.6-1-0.7c-2.6-0.5-5.7,0.6-7.2,1c0.7,0.5,1.2,0.7,1.9,0.8
								c-1.1,0.9-1.8,1.6-2.4,2.5c1,0.3,1.6-0.4,3.8-1.7C7.2,26.2,6.8,28,7.9,29.4"/>
							<path class="st3" d="M23.3,52.9c1-0.8,1.9-1.2,1.8-3.2c-1.5,0.8-5.9,0.7-7.7-1.8c-0.5-0.7,0-1.1,0.5-0.5
								c1.2,1.4,3.6,0.8,4.4,0.4c-0.1-0.5-0.5-1.1-0.8-1.4c0.3-0.3,1.2-0.8,1.4-1.6c-0.5-0.3-2.3-0.4-2.3-0.4
								c0.3-0.3,0.7-0.7,0.4-1.7c-1.9,0.6-4.2-0.2-4.8-0.9c-0.5-0.7,0-1.3,0.4-0.9c0.9,1,5.6,2.1,7.3,0.4c-0.6-0.2-1.3-0.8-1.5-1.1
								c1.6-0.2,2.9-1.1,3-2.3c-0.9,0-2.6-0.1-3.1-0.5c0.8-0.3,1.3-0.6,1.5-1.4c-2.9-0.2-3.2-2.3-3.2-2.7c1.9,1.1,5.3,0.6,4.4-2.1
								c-1.6-0.1-3.2-2.6,1.2-5c4-2.1,8.5-4.5,8.1-8.3c-0.3-2.4-4.3-4.1-4.8-5.3c-1.7,0.8-2,1.7-1.3,3.3c0,0-3.7,0.4-4-1.9
								c-0.1-1,0.6-2,1.3-2.7c-0.4,0-3.2-0.8-4.1,1.5c-1.6-1.1-2.9-1-4,0.1c1.7,1,2.7,4.4,5.5,5.5c-2,1.1-5.2,0.6-7.1-2.7
								c-1.8,2.7-2.8,5.3,1,8.2C10.1,27,10.1,33,4.1,35.9c0.6,1.6,1.9,1.6,3.5,1.4c-2.6,3.4-0.4,6.9-4.5,8.4
								c0.4,1.4,1.2,2.5,2.7,2.1c-0.4,0.7-0.7,0.7-1.4,1.4c2.3,1.4,4.9,0.4,5.5-4.2c0.1-0.8,1.2-0.3,0.8,0.5
								c-2.6,5.3,3.9,9.3,1.6,13.2c2-0.1,3.6-0.2,4.4-0.9c0.4,0.8,0.7,1.6,0.6,2.4c1.1-0.2,1.5-0.9,1.6-1.7c0.7,2.1,3.4,4.4,7.6,4.4
								C24.4,59.8,26.4,56.6,23.3,52.9 M19.1,56.9l-0.9,1.5c-0.3-1-0.9-2-1.3-2.8c-0.7,1.5-1.9,1.5-3,1.5c0.2-3.6-4.2-7.1-2.3-11.2
								c0.4-0.8,0.1-1.8-0.7-2.2c-3-1.5-1.6,4.8-4.6,5C7,48,7.2,46.5,7.3,46.3c-0.6,0.2-2.2,1.1-2.8-0.1c1.8-1,2.3-2.4,2.5-3.8
								c0.3-1.8,0.5-2.7,0.9-3.4c0.4-0.8,1-1.5,2.2-3.1c-0.3,0-3.7,0.8-4.4,0.4c5.8-3.6,4.5-8.1,13.4-12.2c-2.3-1.7-4.7-3.1-3-6.4
								c2.4,2.9,7.1,1.9,9.6,0.6c-2.5-0.5-5.7-2.7-6.4-5.1c0.9-0.1,2.1,0.9,2.8,1.3c0.3-0.9,0.5-1.9,1.6-2.2
								C22.1,15.4,25,17,27.7,17c0.4,0,2.2-0.2,2.2-0.2c-0.3-0.6-1.4-2.2-0.6-2.8c0.7,0.6,1.5,1.1,2.2,1.7c5.3,4.1-2.5,7.9-5.7,9.6
								c-5,2.7-3.7,5.9-1.6,6.8c0,0.4-0.2,0.5-0.6,0.6c-1.5,0.5-2.8-0.6-4-1.2c0.1,2-0.1,4,2.2,5.1l-1.5,0.6c1.3,1,1.7,1.5,3.3,1.7
								c-0.7,0.4-1.7,0.4-2.5,0.4c0.2,0.6,0.4,1.3,0.8,1.8c-3.3,0.4-4.6-1.5-5.6-1.4c-2.2,0.2-2,4.2,3.3,4.2L19,44.8
								c0,0,1,0.6,1.9,0.7c-0.4,0.3-0.7,0.7-1,1l0.8,0.7c-2.2,0.4-2.8-1.9-4.2-0.8c-2.1,1.7,2.6,5.3,7.1,4.7
								c-0.4,0.5-1.4,1.2-1.9,1.6c3.7,3.5,1.9,6.8,3.4,9.2C22,61.7,19.7,59.4,19.1,56.9"/>
							<path class="st3" d="M13.3,44.1c0.8,0.8,1.7,0.9,3.5,0.8c-1.9-0.2-3-0.7-3.7-2c-0.1-0.7-0.2-1.4-0.2-2.1
								c-0.1-2,0.6-4.5,2-7.1c0,1.7,1.3,4.3,4.3,4.7c-2.6-1.2-4.2-3.8-3.4-6.3c0.6-0.9,1.2-1.8,1.9-2.7c0.3-0.4,0.7-0.9,1-1.3
								c-0.4,1.3,1.2,2.6,2.2,2.8c-0.6-0.6-1.8-2.3,1-5.3c-0.8,0.4-1.6,0.9-2.3,1.4c5.1-5.5,9.3-5.6,11.2-8.4
								c-2.8,1.9-10.1,2.9-13.5,2c1.8,1.2,6.2,1.1,7.3,0.9c-3.6,3.5-11.4,7.1-12.8,10.3c1.9-2.1,3.1-2.5,4.8-3
								c-1.3,1.9-2.5,3.6-3.3,5.6C11.3,39,8.6,39,8.4,42.7c1-2.9,2.9-3.6,4.2-5.5c-0.2,1.2-0.3,2.6-0.3,4.1c0,1.7,0.4,3.2,0.9,4.5
								c-0.1,1.8,0,5,2.1,7.1c-1.4-1.8-1.7-4.8-1.6-5.9c1.7,3.2,6.4,7.6,8.7,10.6C20.1,53.7,14.5,49.3,13.3,44.1"/>
							<path class="st3" d="M65.6,28.8c1.6,0.5,2.9,0.9,4.8,3C69,28.6,61.2,25,57.6,21.5c1.1,0.2,5.5,0.3,7.3-0.9
								c-3.3,0.9-10.7-0.1-13.5-2c1.9,2.8,6.1,2.9,11.2,8.4c-0.7-0.5-1.5-1-2.3-1.4c2.8,3,1.6,4.8,1,5.3c1-0.2,2.6-1.6,2.2-2.8
								c0.3,0.4,0.7,0.8,1,1.3c0.7,0.9,1.3,1.8,1.9,2.7c0.8,2.5-0.7,5.1-3.4,6.3c2.9-0.4,4.3-3.1,4.3-4.7c1.4,2.7,2.1,5.1,2,7.1
								c0,0.8-0.1,1.5-0.2,2.1c-0.7,1.3-1.8,1.8-3.7,2c1.8,0.1,2.7,0,3.5-0.8c-1.2,5.1-6.8,9.6-9.1,13.4c2.3-3,7-7.4,8.7-10.6
								c0.1,1.2-0.2,4.1-1.6,5.9c2.1-2.1,2.3-5.2,2.1-7.1c0.5-1.3,0.9-2.8,0.9-4.5c0.1-1.6-0.1-2.9-0.3-4.1c1.3,1.9,3.3,2.6,4.2,5.5
								c-0.2-3.7-3-3.8-5.1-8.3C68.1,32.5,66.9,30.7,65.6,28.8"/>
							<path class="st3" d="M74.7,37.3c1.6,0.3,2.9,0.3,3.5-1.4c-6-2.9-6-8.9-12.9-12.1c3.8-2.8,2.8-5.5,1-8.2
								c-1.9,3.3-5.1,3.8-7.1,2.7c2.8-1,3.8-4.5,5.5-5.5c-1.1-1.1-2.4-1.2-4-0.1c-0.9-2.3-3.7-1.5-4.1-1.5C57.4,12,58.1,13,58,14
								c-0.3,2.3-4,1.9-4,1.9c0.8-1.5,0.4-2.5-1.3-3.3c-0.5,1.2-4.5,2.9-4.8,5.3c-0.4,3.8,4.1,6.1,8.1,8.3c4.4,2.4,2.8,4.9,1.2,5
								c-0.9,2.7,2.5,3.2,4.4,2.1c0,0.4-0.3,2.5-3.2,2.7c0.2,0.9,0.7,1.1,1.5,1.4c-0.6,0.4-2.2,0.5-3.1,0.5c0.1,1.2,1.4,2.1,3,2.3
								c-0.1,0.4-0.8,0.9-1.5,1.1c1.7,1.7,6.4,0.6,7.3-0.4c0.4-0.5,1,0.2,0.4,0.9c-0.5,0.7-2.9,1.5-4.8,0.9
								c-0.2,1.1,0.1,1.5,0.4,1.7c0,0-1.8,0.2-2.3,0.4c0.2,0.8,1.1,1.3,1.4,1.6c-0.3,0.3-0.7,0.9-0.8,1.4c0.8,0.4,3.2,1,4.4-0.4
								c0.5-0.6,1-0.2,0.5,0.5c-1.8,2.5-6.2,2.5-7.7,1.8c0,2,0.8,2.4,1.8,3.2c-3.2,3.6-1.1,6.9-3.3,10c4.2,0,6.8-2.3,7.6-4.4
								c0.1,0.8,0.5,1.4,1.6,1.7c-0.1-0.8,0.2-1.6,0.6-2.4c0.8,0.7,2.4,0.8,4.4,0.9c-2.3-3.9,4.2-7.9,1.6-13.2
								c-0.4-0.8,0.7-1.3,0.8-0.5c0.6,4.6,3.3,5.6,5.5,4.2c-0.7-0.7-1-0.7-1.4-1.4c1.5,0.4,2.3-0.7,2.7-2.1
								C75,44.2,77.3,40.7,74.7,37.3 M75,46.3c0.1,0.1,0.3,1.6,0.9,2.3c-3-0.2-1.6-6.5-4.6-5c-0.8,0.4-1.1,1.4-0.7,2.2
								c2,4.1-2.5,7.6-2.3,11.2c-1.1,0-2.3,0-3-1.5c-0.4,0.7-1,1.8-1.3,2.8l-0.9-1.5c-0.6,2.5-2.9,4.9-6.1,5.1
								c1.5-2.4-0.3-5.7,3.4-9.2c-0.5-0.4-1.5-1.1-1.9-1.6c4.5,0.5,9.2-3,7.1-4.7c-1.4-1.1-2,1.2-4.2,0.8l0.8-0.7
								c-0.3-0.3-0.6-0.7-1-1c0.9-0.1,1.9-0.7,1.9-0.7l-0.5-0.9c5.3,0,5.4-4.1,3.3-4.2c-1-0.1-2.3,1.8-5.6,1.4
								c0.4-0.5,0.6-1.3,0.8-1.8c-0.8-0.1-1.7-0.1-2.5-0.4c1.6-0.2,2-0.7,3.3-1.7l-1.5-0.6c2.2-1.1,2.1-3.1,2.2-5.1
								c-1.2,0.7-2.5,1.7-4,1.2c-0.3-0.1-0.6-0.3-0.6-0.6c2.1-0.8,3.4-4.1-1.6-6.8c-3.2-1.7-11-5.5-5.7-9.6c0.7-0.6,1.5-1.1,2.2-1.7
								c0.8,0.6-0.3,2.2-0.6,2.8c0,0,1.8,0.2,2.2,0.2c2.7,0,5.6-1.6,4.1-4.7c1.1,0.2,1.2,1.3,1.5,2.2c0.7-0.5,1.9-1.5,2.8-1.3
								c-0.8,2.4-3.9,4.6-6.4,5.1c2.5,1.4,7.1,2.4,9.6-0.6c1.7,3.3-0.7,4.7-3,6.4c8.9,4.1,7.6,8.6,13.4,12.2
								c-0.8,0.4-4.1-0.4-4.4-0.4c1.3,1.6,1.9,2.3,2.2,3.1c0.4,0.7,0.5,1.6,0.9,3.4c0.3,1.4,0.8,2.9,2.5,3.8
								C77.2,47.5,75.6,46.5,75,46.3"/>
							<path class="st3" d="M32.6,56.3l1.3-1.1l-0.2-0.4c-0.1-0.3-0.1-0.3,0.1-0.4l0.7-0.5c0.2-0.1,0.3-0.1,0.5-0.1l2,0.5h-2.1
								c-0.5,0-0.6,0.2-0.8,0.6l-0.1,0.3l-0.5,1.1c-0.2,0.4-0.3,0.9,0.2,1.5l0.4,0.5l-0.8,1.6h0.7l0.5-1.1c0,0,0.8-0.8,1-1.5
								c-0.2-0.2-0.4-0.3-0.3-0.6l0.2-0.5c0.1-0.2,0.1-0.2,0.3-0.2l2.1,0.5c0.3,0.1,0.6,0.2,0.9-0.2c0.3-0.4,0.3-0.4,1-0.3l1.1,0.1
								c1.5,0.1,2.9-0.2,3.5-0.7c0.2,0.5,0.6,0.8,0.8,1.2c0.1,0.1,0,0.3-0.1,0.5l-1.2,2.9h1.9l1.1-2.6c0.1-0.3,0.2-0.5,0.3-0.6
								l-0.6,3.2h1.8l0.5-3.2c0.1-0.7,0-0.9-0.3-1.2c-0.8-0.6-0.7-2-1-2.8c0.1-0.1,0.3-0.1,0.5-0.1c0.4,0,0.7,1,1.2,1.7
								c0.9,1.3,2.2,2.7,3.6,0.7c-0.1-0.2-0.3-0.4-0.5-0.6l-0.4-0.5c-0.2-0.3-1.4-1.5-1.8-2c-1.1-1.1-2.7-0.9-3.3-0.4
								c-1.5-0.8-3,0-3.4,0l-2.5-0.2c-0.1,0-0.3,0-0.4-0.2l0.5-0.2c-0.4-1.8-1.5-3.4-3.5-3.6c0,0-0.1-0.6-0.4-0.7l-0.6,0.7
								c-0.2,0-0.3,0.1-0.5,0.1l-2.5-0.9l1.9,1.9c0,0-1,1.4-1.2,1.6c-0.2,0.3-0.2,0.5,0,0.7l0.4,0.5c0.2,0.2,0.4,0.2,0.7,0.1
								l0.4-0.2c0.2-0.1,0.8,0.1,1-0.1c-0.2,0.5-0.2,1-0.3,1.5l-1.7-0.2c-0.4,0-0.5,0-0.8,0.2l-1.4,1.1c-0.5,0.4-0.6,1-0.3,1.6
								L32.6,56.3z M46.4,56.6l-1.1,2.8h-0.7l1.1-2.7c0.1-0.3-0.1-0.5-0.4-0.9c0.4,0.2,0.7,0.4,1.2,0.6
								C46.5,56.5,46.4,56.5,46.4,56.6 M35.5,50.6l-0.3,0.2c-0.2,0.1-0.3,0.2-0.5-0.1l-0.1-0.2c-0.1-0.1-0.1-0.3,0.1-0.5l1.4-1.6
								l-1.3-1l1.6,0.6l0.6-0.7c0.2,0.1,0.1,0.6,0.1,0.6c0.7,0,2.6,0.9,2.6,3.3c0,0,0.4,0.6,1,0.7l2.8,0.2c0.5,0,1.6-0.9,3.1,0
								c0.4-0.2,0.8-0.4,1.2-0.5c1.3-0.1,2.3,0.8,3,1.7c0.5,0.7,1.3,1.7,1.3,1.7c-0.3,0.4-0.6,0.5-0.9,0.4c-0.4-0.2-0.5-0.5-0.6-0.9
								c-0.2-0.7-1-1.3-1-1.3c0.3,0.5,0.3,1,0.4,1.5c-1.1-1.1-1.3-2.4-2.1-2.6c-0.3-0.1-0.7,0.1-1.1,0.5c0.4,0.9,0.4,1.9,0.8,2.6
								c0.3,0.5,0.4,0.6,0.5,0.7c0.3,0.2,0.1,0.7,0.1,1l-0.4,2.6h-0.7l0.5-2.6c0.1-0.8-2-0.8-3.2-2.3c-1,1.1-3.6,0.8-4.8,0.7
								c-0.5-0.1-0.9,0-1.2,0.4c-0.2,0.3-0.4,0.2-0.6,0.1l-2.1-0.5c-0.4-0.1-0.5,0-0.7,0.3l-0.4,0.9c-0.1,0.2-0.1,0.4,0.1,0.5
								l0.2,0.2c-0.1,0.4-0.5,0.7-0.5,0.7l-0.5-0.5c-0.2-0.3-0.2-0.6-0.1-1l0.7-1.4c0.1-0.2,0.2-0.3,0.5-0.3l2.6,0l-0.8-1.3
								c-0.6-1,0.4-2.7,0.2-3.5C37.1,50.9,35.7,50.4,35.5,50.6 M32.7,53.9l1.2-0.9c0.2-0.2,0.4-0.3,0.6-0.2l1.7,0.2
								c0.1,0.4,0.4,0.8,0.4,0.8l-1.9-0.4c-0.3,0-0.3,0-0.6,0.2l-0.9,0.7c-0.2,0.1-0.2,0.4-0.1,0.6l0.1,0.3l-0.6,0.5l-0.2-0.4
								C32.3,54.6,32.3,54.2,32.7,53.9"/>
							<path class="st3" d="M38.1,20.3c0.7,0.5,1.9,1,1.9,1v-0.8l-2.6-1C37.3,19.5,37.3,19.8,38.1,20.3"/>
							<path class="st3" d="M39.9,19.4v-0.8l-3-1.1c0,0,0.4,0.4,1.1,0.9C38.7,18.9,39.9,19.4,39.9,19.4"/>
							<path class="st3" d="M39.9,17.6v-0.8l-3.3-1.2c0,0,0.6,0.5,1.4,1C38.7,17.1,39.9,17.6,39.9,17.6"/>
							<path class="st3" d="M49.1,28.4h3.4c-0.1-0.5-0.7-1-1.6-1C49.9,27.5,49.4,28,49.1,28.4"/>
							<path class="st3" d="M45.6,15.6l-3.3,1.2v0.8c0,0,1.2-0.5,1.9-1C45,16.1,45.6,15.6,45.6,15.6"/>
							<path class="st3" d="M45,19.5l-2.6,1v0.8c0,0,1.2-0.5,1.9-1C45,19.8,45,19.5,45,19.5"/>
							<path class="st3" d="M45.4,17.5l-3,1.1v0.8c0,0,1.2-0.5,1.9-1C45,17.9,45.4,17.5,45.4,17.5"/>
							<path class="st3" d="M31.4,27.5c-1,0-1.5,0.5-1.6,1h3.4C32.9,28,32.4,27.5,31.4,27.5"/>
							<path class="st3" d="M47.8,13.4c0-1.9-3.2-3.6-6.7-3.6c-3.5,0-6.7,1.7-6.7,3.6l0.1,0.5l1.4,8l-6.6,3.8
								c-0.7,0.4-1.6,1.5-1.7,2.7h1.2c0.2-1.1,1.1-2.4,2.8-2.3c1.5,0.1,2.4,1,3.3,2.3l0.2,0.3l0.3,0.5h-9.7c0.7,1.4,1.4,3,1.4,4.6
								v20.2c0,5.2,4,7.7,8.3,7.7c3.3,0,3.8-0.2,5.6,1.7c1.8-1.8,2.3-1.7,5.6-1.7c4.3,0,8.3-2.5,8.3-7.7V33.9c0-1.6,0.7-3.2,1.4-4.6
								h-9.7l0.3-0.5l0.2-0.3c0.9-1.3,1.8-2.3,3.3-2.3c1.7-0.1,2.6,1.2,2.8,2.3h1.2c-0.1-1.1-1-2.3-1.7-2.7l-6.6-3.8l1.4-8
								L47.8,13.4z M35.8,14.3l4.9,1.7v7.7l-3.6-1.9L35.8,14.3z M37,30.7c0.6,0.9,1.7,1.5,2.9,1.8c0.1,0.5,0.4,1,0.9,1.4
								c-0.2,1.4,0.4,2.7,1.9,3c0.2,0.7,0.6,1.2,1.3,1.5l-1,1.2c-0.4,0.5-0.9,0.6-1.3,0.5l-4.6-0.5c0.2-0.5-0.3-1.1-1.8-0.8l1.8-5.1
								L36,31.4l-2.1,1.8l-0.2,5.3L32.9,38c-1.2-0.5-1.5,1.6-0.4,1.6l0.4,0c0,0.2,0,0.5,0.2,0.5c-0.2,0.1-0.3,0.5,0,0.6
								c-0.3,0.1-0.3,0.5-0.1,0.7c-0.2,0.4-0.3,1.2,0.5,1.4c0.7,0.2,1.1-0.5,1.2-1l7.2,2.2c1,0.3,1.7,0.1,2.6-0.6l1.9-1.6
								c-0.2,1.1,0.2,2,1,2.3c0,0-0.1,1-0.1,1.4H28.6V33.9c0-1.1-0.3-2.2-0.7-3.2H37z M44.7,35.2c-0.4,0.8-0.4,1.6,0.1,2.4l-0.3,0.3
								c-1.3-0.2-1.9-2.2-1.9-2.2c0,0.2,0,0.4,0,0.5c-0.8-0.3-1.3-1-1.2-1.9c0.3,0.2,0.6,0.3,1,0.3l0.1-0.6
								c-0.9-0.2-1.5-0.8-1.7-1.4c0,0-0.1,0-0.1,0c0.2,0,0.3,0,0.5,0c0.6,0,1.1-0.1,1.6-0.2c0.4,0.6,1.1,1,1.8,1
								C44.4,33.9,44.5,34.5,44.7,35.2 M46.7,40.5c-0.1,0.2-0.2,0.4-0.3,0.6l-0.7,0.7c0.2-1.1-0.6-2.4-1.3-2.9l0.8-0.8l0.2,0.2
								C45.1,38.9,45.6,40.3,46.7,40.5 M43.1,40.1l0.6-0.6c0.6,0.5,1.5,1.8,1.2,2.9l-0.7,0.6c-0.1,0.1-0.3,0.2-0.4,0.3
								C44.2,42.4,43.7,40.8,43.1,40.1 M41.8,40.6L41.8,40.6c0.2,0,0.5,0,0.7-0.1c0.5,0.7,0.8,2.2,0.3,3.2c-0.3,0-0.6-0.1-0.9-0.1
								l-0.2-0.1C42.1,42.8,42,41.5,41.8,40.6 M40.2,40.4l0.9,0.1c0.1,0.7,0,2-0.4,2.7l-1-0.3C40.1,42.3,40.3,41.1,40.2,40.4
								 M38.4,40.2l1.1,0.1c0.1,0.6-0.1,1.8-0.5,2.4l-1.1-0.3C38.3,41.9,38.5,40.9,38.4,40.2 M34.2,39.9c-0.5,0.2-0.7-0.2-0.7-0.5
								c1-0.4,1.4-0.1,1.7,0.1c0.3,0.2,0.5,0.6,0.8,0.9c-0.1,0.4-0.2,1-0.3,1.3c-1-0.3-1-1.1-0.7-1.6C34.8,39.9,34.6,39.8,34.2,39.9
								 M33.5,41.9c0,0,0.3,0.1,0.7,0.2c0,0.2-0.2,0.4-0.5,0.3C33.5,42.3,33.4,42.1,33.5,41.9 M32.5,39c-0.2-0.2-0.1-0.5,0.1-0.5
								c0.3,0,0.7,0.3,1.1,0.5C33.7,39,32.7,39.2,32.5,39 M33.5,41.1c0.2,0.2,0.8,0.1,0.8,0.1l0,0.1C34.1,41.7,33.3,41.6,33.5,41.1
								 M34.4,40.7c-0.5,0.2-0.9-0.1-0.8-0.4c0.2,0.2,0.8,0.1,0.8,0.1L34.4,40.7z M35,35.4l-0.9,3.2l0.3-5.1l1.4-1.2l0.7,1.5l-1.7,5
								l0.5-3.4C35.3,35.2,35.1,35.1,35,35.4 M35.1,39.2c0,0,1,0,1.2,0.1c0.2,0.1,0.1,0.4-0.2,0.4C35.9,39.6,35.1,39.2,35.1,39.2
								 M36.6,40l1.1,0.1c0.1,0.6-0.1,1.6-0.4,2.1l-1-0.3C36.5,41.3,36.5,40.7,36.6,40 M53.7,54.1c0,2.5-1.1,4.3-3,5.4l0.7-1.4h-0.7
								l-0.9,1.8c-0.9,0.3-1.9,0.5-3,0.5c-3.4,0-4.4,0.1-5.6,1.4c-1.3-1.3-2.2-1.4-5.6-1.4c-1.1,0-2.1-0.2-3-0.5h0l0.9-1.8h-0.7
								L32,59.6c-0.2-0.1-0.4-0.2-0.5-0.3l0.6-1.3h-0.7L30.9,59c-1.5-1.1-2.3-2.8-2.3-4.9v-7.7h25.1V54.1z M54.4,30.7
								c-0.4,1-0.7,2.1-0.7,3.2v11.8h-1.4c-0.6-0.6-1.1-2.6-1.1-2.6c-0.3,0.7,0.1,2.2,0.4,2.6h-1.8C49.4,45.1,49,43,49,43
								c-0.5,0.6-0.2,2.2,0.1,2.7H48c-0.1-0.8,0.2-1.7,0.2-1.7c-0.6-0.1-1.3-0.4-1.3-1.1c0.3,0.3,0.4,0.3,0.9,0.3l0.5-0.4
								c-1.7,0.1-1.7-1.8-0.4-2.6c-1.3,0-2.3-0.7-1.8-2.1c-0.9-0.5-1.3-2.1-0.6-2.8c-0.5-0.5-0.6-1.6-0.3-2.3
								c-0.7,0-1.4-0.3-1.8-0.7c0,0-0.1,0-0.1,0c0.8-0.3,1.5-0.9,2-1.5H54.4z M49.4,25c-1.4,0.2-2.5,1.9-3.5,3.4l-0.1,0.2h-1l0,0.2
								c-0.1,1.2-1.2,2.7-3.6,2.7c-1.1,0-2-0.3-2.5-0.8c-0.5-0.4-0.8-0.9-1-1.4c-0.1-0.2-0.1-0.4-0.1-0.5l0-0.2h-1l-0.1-0.2
								c-1-1.5-2.1-3.2-3.5-3.4l3.7-2.1l4.5,2.5l4.5-2.5L49.4,25z M45.2,21.8l-3.6,1.9V16l4.9-1.7L45.2,21.8z M41.1,15.2l-5.4-2.1
								c0.5-1.1,2.6-2,5.4-2c2.8,0,4.9,0.9,5.4,2L41.1,15.2z"/>
							<path class="st3" d="M53.1,38.3l0-0.6c-1.8,0-2.2-2.2-2.2-2.2C50.4,37.1,51.8,38.3,53.1,38.3"/>
							<path class="st3" d="M50.8,41.9l-0.2-0.6c-1.5,0.4-2.3-2.1-2.3-2.1C47.8,41.1,49.5,42.4,50.8,41.9"/>
							<path class="st3" d="M51.9,39.7c-1.8,0.3-2.6-1.9-2.6-1.9c-0.2,1.2,0.6,2.4,1.8,2.5c-0.3,1.5,1.1,2.3,2.4,1.8l-0.2-0.5
								C52.2,41.9,51.2,40.8,51.9,39.7"/>
							<path class="st3" d="M50.8,33.5l0-0.6c-2.4-0.5-2.2-2.2-2.2-2.2C48.1,32.3,49.4,33.5,50.8,33.5"/>
							<polygon class="st3" points="35.4,58.1 34.5,59.9 35.1,59.9 36,58.1 							"/>
							<polygon class="st3" points="36.7,58.1 35.8,59.9 36.5,59.9 37.3,58.1 							"/>
							<polygon class="st3" points="42,58.1 41.1,59.9 41.7,59.9 42.6,58.1 							"/>
							<polygon class="st3" points="43.3,58.1 42.4,59.9 43.1,59.9 43.9,58.1 							"/>
							<polygon class="st3" points="40.6,58.1 39.8,59.9 40.4,59.9 41.3,58.1 							"/>
							<polygon class="st3" points="48.3,59.9 49,59.9 49.9,58.1 49.2,58.1 							"/>
							<polygon class="st3" points="38,58.1 37.1,59.9 37.8,59.9 38.7,58.1 							"/>
							<polygon class="st3" points="39.3,58.1 38.4,59.9 39.1,59.9 40,58.1 							"/>
							<path class="st3" d="M36.3,48.6c-0.1,0-0.2,0.1-0.2,0.3c0,0.1,0.1,0.3,0.2,0.3c0.1,0,0.2-0.1,0.2-0.3
								C36.6,48.7,36.5,48.6,36.3,48.6"/>
							<path class="st3" d="M41.1,8.7c2.7,0,4.9,0.9,6.1,1.9c0,0,0.4-2.1,1.6-4l-2.2,0.2l-1.1-2.4l-2.2,1.1l-2.1-2.1L39,5.5
								l-2.2-1.1l-1.1,2.4l-2.2-0.2c1.2,1.9,1.6,4,1.6,4C36.3,9.6,38.4,8.7,41.1,8.7 M36.1,7.7l1-2.2l1.9,1l2.1-2.1l2.1,2.1l1.9-1
								l1,2.2l1.3-0.2c-0.3,0.6-0.6,1.1-0.8,1.9C45.3,8.6,43.2,8,41.1,8c-2.1,0-4.2,0.6-5.6,1.4c-0.2-0.8-0.5-1.3-0.8-1.9L36.1,7.7z
								"/>
							<path class="st3" d="M43.4,4.3c0.3,0,0.6-0.2,0.6-0.5c0-0.3-0.4-1.2-0.4-1.2s-0.7,0.7-0.7,1.1C42.8,4,43.1,4.3,43.4,4.3"/>
							<path class="st3" d="M46.9,5.6c0.3,0.2,0.6,0,0.8-0.2c0.2-0.3,0.1-1.2,0.1-1.2s-0.9,0.4-1.1,0.7C46.6,5.1,46.7,5.5,46.9,5.6"
								/>
							<path class="st3" d="M38.9,4.3c0.3,0,0.6-0.3,0.5-0.6c0-0.3-0.7-1.1-0.7-1.1s-0.5,0.8-0.4,1.2C38.3,4.1,38.6,4.4,38.9,4.3"/>
							<path class="st3" d="M35.4,5.6c0.3-0.2,0.4-0.5,0.2-0.8c-0.1-0.3-1.1-0.7-1.1-0.7s-0.1,1,0.1,1.2C34.7,5.7,35.1,5.8,35.4,5.6
								"/>
							<path class="st3" d="M78.2,25.2c0.8-0.3,1.3-1,1.6-1.7c-1.9-0.3-7.1-2.4-11.3-0.7c1.6-1.5,3-1.7,3.1-3.9
								c0.7,0.5,1.8,0.7,2.4-0.4c-0.4-1.3-1.5-0.2-1.7-0.6c-0.2-0.5,1.4,0.2,1.7-1.5c-1.2-0.4-1.6,0.6-1.8,0.4
								c-0.2-0.2,0.8-0.7,0.1-2c-1.3,0.8-0.6,1.6-0.9,1.7c-0.3,0.1-0.1-0.9-1.5-0.9c-0.1,1.5,1.3,1.6,1.1,1.8
								c-0.3,0.3-0.7-0.9-1.8-0.3c0,1.2,1,1.9,2.1,1.6c-0.2,2.4-2.3,1.9-4,4.6c3.4,1.8,5,4.8,7.1,6.9c0.7-0.5,1.9-2.7,1.9-2.7
								c2.3,1.8,3.9,0,3.9,0C79.4,26.9,79.4,26.3,78.2,25.2 M74.8,25.7c0.2,0.5,0.7,2.3-0.4,3.7c-1.3-2.5-3-4.7-4.4-5.6
								c-0.3-0.2,0.2-0.6,1-0.7c2.6-0.5,5.7,0.6,7.2,1c-0.7,0.5-1.2,0.7-1.9,0.8c1.1,0.9,1.8,1.7,2.4,2.5
								C77.6,27.7,77.1,27,74.8,25.7"/>
							<path class="st3" d="M40.5,67.2L39,67.1l-0.2,0.6l0.2,0c0.1,0,0.1-0.1,0.1-0.2c0,0,0.3-0.1,0.5,0l0.6,0
								c-0.4,0.8-1.3,1.5-1.3,2c0,0.3,0.3,0.3,0.5,0.3c0.3,0,0.4-0.2,0.5-0.5c0.2-0.7,0.5-1.3,0.8-2.2L40.5,67.2L40.5,67.2z"/>
							<path class="st3" d="M41.5,68.1l0-0.5h1.3l-0.1-0.5c-0.4,0-0.9,0.1-1.3,0.1l-0.1,1c0.6,0,1,0.2,1,0.9c0,0.2-0.2,0.7-0.4,0.7
								c-0.1,0-0.1,0-0.2,0c-0.1-0.1,0-0.2,0-0.4c0-0.2-0.2-0.3-0.4-0.3c-0.2,0-0.3,0.2-0.3,0.3c0,0.4,0.5,0.5,0.8,0.5
								c0.5,0,1.1-0.3,1.1-0.9C43,68.2,42.1,68.1,41.5,68.1"/>
							<path class="st3" d="M44.3,67c-0.5,0-0.8,0.3-0.8,0.8c0,0.7,0.8,1,1.4,0.7c0.1,0.6,0,1-0.3,1c-0.2,0-0.2-0.1-0.2-0.3
								c0-0.2-0.2-0.3-0.4-0.2c-0.2,0.1-0.2,0.2-0.2,0.4c0.1,0.3,0.4,0.3,0.6,0.3c0.8-0.1,1.1-0.6,1.1-1.3
								C45.5,67.7,45.1,67,44.3,67 M44.6,68.5c-0.5,0-0.5-0.7-0.5-1.1c0-0.1,0.1-0.2,0.2-0.2c0.4,0,0.5,1,0.6,1.2
								C44.8,68.5,44.7,68.5,44.6,68.5"/>
							<path class="st3" d="M38,66.9c-0.1,0.1-0.4,0.5-1.1,1L37,68c0.1,0,0.2-0.1,0.4-0.2L37,69.2c0,0.1-0.1,0.1-0.2,0.1l-0.2,0
								l0,0.2l1.3,0.2l0-0.2l-0.2,0c-0.1,0-0.1-0.1-0.1-0.1l0.6-2.3L38,66.9z"/>
							<path class="st3" d="M52.9,65.1v-2.9c-2.2,1-5.1,1.9-8.7,2.2l-0.2,1c0.3,0,0.7,0.1,1.2,0.1c-1.4,0.2-3.1,0.3-4.1,0.3
								c-1,0-2.7-0.1-4.1-0.3c0.5,0,0.9-0.1,1.2-0.1l-0.2-1c-3.7-0.3-6.5-1.2-8.7-2.2v2.9l-3,1.2c2.2,1.2,4.8,2.1,7.8,2.9l-0.4,1.2
								c1.7,0.5,4.4,1,7.3,1c2.9,0,5.6-0.5,7.3-1l-0.4-1.2c3-0.8,5.6-1.7,7.8-2.9L52.9,65.1z M28,66.4l2-0.8v-2.4
								c1.3,0.5,3,1,5.5,1.5l-1.2,3.8C31.9,68,29.7,67.2,28,66.4 M41.1,70.8c-2.3,0-4.6-0.3-6.5-0.8l1.2-4c0.8,0.2,2.8,0.4,5.3,0.4
								c2.4,0,4.4-0.2,5.3-0.4l1.2,4C45.7,70.4,43.4,70.8,41.1,70.8 M47.9,68.6l-1.2-3.8c2.5-0.5,4.2-1,5.5-1.5v2.4l2,0.8
								C52.6,67.2,50.4,68,47.9,68.6"/>
							<path class="st3" d="M6,27.7c0,0,1.2,2.2,1.9,2.7c2.1-2.1,3.7-5.2,7.1-6.9c-1.6-2.7-3.8-2.2-3.9-4.6c1,0.3,2-0.4,2.1-1.6
								c-1.1-0.6-1.5,0.6-1.8,0.3c-0.2-0.2,1.2-0.3,1.1-1.8c-1.4,0-1.2,1-1.5,0.9c-0.3-0.1,0.4-1-0.9-1.7c-0.7,1.4,0.3,1.8,0.1,2
								c-0.2,0.2-0.6-0.8-1.8-0.4c0.3,1.7,1.9,1,1.7,1.5c-0.2,0.4-1.3-0.7-1.7,0.6c0.6,1.1,1.7,0.9,2.4,0.4c0.1,2.2,1.6,2.3,3.1,3.9
								c-4.2-1.8-9.4,0.4-11.3,0.7c0.3,0.7,0.9,1.4,1.6,1.7c-1.2,1.1-1.2,1.7-2,2.5C2.1,27.7,3.7,29.5,6,27.7 M3.6,27.4
								c0.6-0.8,1.3-1.6,2.4-2.5c-0.7-0.1-1.3-0.3-1.9-0.8c1.5-0.4,4.6-1.5,7.2-1c0.9,0.1,1.4,0.5,1,0.7c-1.4,0.9-3.2,3.1-4.4,5.6
								c-1.1-1.4-0.6-3.2-0.4-3.7C5.2,27,4.7,27.7,3.6,27.4"/>
							<path class="st3" d="M39.3,26.1v1.3c0.4-0.5,1.3-0.4,1.3-0.4v1.8c0,0,0,0.9-0.3,1.3h0.9h0.9c-0.3-0.4-0.3-1.3-0.3-1.3V27
								c0,0,0.8-0.1,1.3,0.4v-1.3h-1.9H39.3z"/>
						</g>
					</g>
				</g>
			</g>
		</g>
	</g>
</g>
</svg>
