<?xml version="1.0" encoding="utf-8"?>
<!-- Generator: Adobe Illustrator 22.0.1, SVG Export Plug-In . SVG Version: 6.00 Build 0)  -->
<svg version="1.1" id="OBJECTS" xmlns="http://www.w3.org/2000/svg" xmlns:xlink="http://www.w3.org/1999/xlink" x="0px" y="0px"
	 viewBox="0 0 1187.8 139.4" style="enable-background:new 0 0 1187.8 139.4;" xml:space="preserve">
<style type="text/css">
	.st0{fill:#4CB2FF;}
</style>
<g>
	<rect x="530" y="61.2" class="st0" width="2.3" height="2.9"/>
	<rect x="533" y="61.2" class="st0" width="2.3" height="2.9"/>
	<rect x="711.1" y="55" class="st0" width="2.4" height="2.5"/>
	<rect x="711.1" y="51.1" class="st0" width="2.4" height="3"/>
	<rect x="714.3" y="55" class="st0" width="2.4" height="2.5"/>
	<rect x="714.3" y="51.1" class="st0" width="2.4" height="3"/>
	<rect x="389.7" y="53.7" class="st0" width="2.4" height="2.9"/>
	<rect x="386.6" y="57.5" class="st0" width="2.4" height="2.5"/>
	<rect x="389.7" y="57.5" class="st0" width="2.4" height="2.5"/>
	<rect x="386.6" y="53.7" class="st0" width="2.4" height="2.9"/>
	<rect x="587.3" y="56.9" class="st0" width="2.4" height="2.9"/>
	<rect x="584.2" y="60.7" class="st0" width="2.4" height="2.5"/>
	<rect x="587.3" y="60.7" class="st0" width="2.4" height="2.5"/>
	<rect x="584.2" y="56.9" class="st0" width="2.4" height="2.9"/>
	<rect x="351.5" y="55" class="st0" width="2.4" height="2.5"/>
	<rect x="351.5" y="51.2" class="st0" width="2.4" height="3"/>
	<rect x="354.7" y="55" class="st0" width="2.4" height="2.5"/>
	<rect x="354.7" y="51.2" class="st0" width="2.4" height="3"/>
	<rect x="316.9" y="56.3" class="st0" width="2.4" height="3"/>
	<rect x="313.7" y="56.3" class="st0" width="2.4" height="3"/>
	<path class="st0" d="M1178.5,79.1v-7.6l-2.8-2.5v-2.5h0.2v-1.1h-2.4v1.1h0.2v0.7l-3.4-3l-8.2,7.4v9c-5.2,0.4-10.4,0.8-15.6,1.2
		l-0.3-0.5l1.3-0.1l-1.6-3l0.8,0l-2.3-4.9l-3,4.6l1,0.1l-1.8,3.6l1.2-0.1l-0.4,0.6c-7.7,0.5-15.4,0.9-23.1,1.1v-1.2l3.3,0.3L1121,80
		l1.2,0l-2-4.2l1.3-0.1l-1.6-3l0.8,0l-2.3-4.9l-3,4.6l1,0.1l-1.8,3.6l1.2-0.1l-2.5,4.2l1,0l-0.5,1.4l3.8,0.3l-0.1,1.3
		c-2.6,0.1-5.1,0.1-7.7,0.2v-0.8l2.2,0.2l-0.6-1.5l0.8,0l-1.4-2.8l0.8-0.1l-1-2l0.6,0l-1.5-3.3l-2,3.1l0.7,0l-1.2,2.4l0.8-0.1
		l-1.7,2.8l0.7,0l-0.4,0.9l2.5,0.2l-0.1,0.9c-1,0-1.9,0-2.9,0.1c-1.1,0-2.1,0-3.2,0v-8.8l-7.9-7.1l-3.3,2.9v-0.6h0.2v-1.1h-2.4v1.1
		h0.2v2.4l-2.7,2.4v8.7c-1.7,0-3.5-0.1-5.2-0.1V70.7l-12.2-11l-5,4.5v-1h0.3v-1.7h-3.6v1.7h0.3V67l-4.2,3.7v11.4
		c-5.4-0.3-10.8-0.7-16.2-1.1V65.9l-4.3-3.9v-3.8h0.3v-1.7h-3.8v1.7h0.3v1l-5.2-4.7l-12.6,11.4v12.7c-8.3-0.9-16.5-1.8-24.8-2.9
		V60.9l-4.3-3.9v-3.8h0.3v-1.7h-3.8v1.7h0.3v1l-5.2-4.7l-12.6,11.4v11.6c-4.2-0.6-8.3-1.1-12.5-1.7l-0.1-1.7l2.4-0.2l-0.3-0.9l0.7,0
		l-1.6-2.7l0.8,0l-1.1-2.3l0.7,0l-1.9-2.9l-1.4,3.1l0.5,0l-1,1.9l0.8,0.1l-1.3,2.7l0.8,0l-0.5,1.5l2.1-0.2v1.5
		c-3.6-0.5-7.1-1-10.7-1.5l-0.1-1.2l3.1-0.3l-0.4-1.2l0.8,0l-2.1-3.4l1,0.1l-1.5-3l0.9,0l-2.5-3.8l-1.8,4l0.7,0l-1.3,2.5l1,0.1
		l-1.7,3.5l1,0l-0.7,1.9l2.7-0.2v1c-4.6-0.7-9.3-1.3-13.9-2V36.2h-3.8v-1.8h-1.4v1.8h-18.7v27.5c-5.7-0.8-11.4-1.5-17.2-2.3v-30
		h-16.6v27.9c-3.3-0.4-6.7-0.8-10-1.1V14.6h-0.9V16h-3.6v-1.4h-1.1V16H854h-14.8v-1.4h-0.9v41.4c-2.9-0.3-5.8-0.5-8.7-0.8
		c-2.8-0.2-5.6-0.4-8.4-0.6V41.1l-3.6-3.3v-3.2h0.3v-1.5h-3.2v1.5h0.3v0.9l-4.4-4l-10.7,9.6v12.4c-2.7-0.1-5.3-0.2-8-0.3l-0.4-1.2
		l0.8,0l-1.4-2.9l0.9-0.1l-1.1-2.1l0.6,0l-1.6-3.4l-2.1,3.2l0.7,0l-1.2,2.5l0.8-0.1l-1.7,2.9l0.7,0l-0.4,1c-1.2,0-2.5,0-3.7-0.1
		v-9.8l-8.2-7.4l-3.4,3v-0.7h0.2v-1.1H769v1.1h0.2v2.5l-2.8,2.5V53c-1.8,0-3.6,0.1-5.4,0.1v-14l-12.6-11.4l-5.2,4.7v-1h0.3v-1.7
		h-3.8v1.7h0.3v3.8l-4.3,3.9v15.1c-2.2,0.2-4.4,0.3-6.6,0.5V0h-1.3v1.9h-5.1V0h-1.5v1.9H721v0h-20.9V0h-1.3v60.9c-3,0.3-6,0.7-9,1
		V25.8h-23.6v38.5c-2.2,0.2-4.3,0.4-6.5,0.6v-8.5l-3-2.7v-2.6h0.2v-1.2h-2.6v1.2h0.2v0.7l-3.6-3.2l-8.7,7.9v9.9
		c-2.5,0.2-5,0.3-7.5,0.5l1.2-0.5l-0.3-4l4.1-0.4l-0.6-1.6l1.1,0l-2.8-4.6l1.3,0.1l-2-4l1.2-0.1l-3.3-5.1l-2.5,5.4l0.9,0l-1.7,3.3
		l1.4,0.1l-2.3,4.7l1.3,0l-0.9,2.5l3.7-0.3v4.4c-3.5,0.2-6.9,0.4-10.4,0.6l-0.1-2.1l2.4-0.2l-0.3-0.9l0.6,0l-1.6-2.6l0.8,0l-1.1-2.3
		l0.7,0l-1.9-2.9l-1.4,3l0.5,0l-1,1.9l0.8,0l-1.3,2.6l0.7,0l-0.5,1.4l2.1-0.2v2.1c-3.7,0.2-7.4,0.4-11.1,0.5l0-0.2l2.2-0.2l-0.3-0.8
		l0.6,0l-1.5-2.4l0.7,0l-1.1-2.1l0.6,0l-1.8-2.7l-1.3,2.9l0.5,0l-0.9,1.8l0.7,0l-1.2,2.5l0.7,0l-0.5,1.3l2-0.2v0.2
		c-0.7,0-1.3,0.1-2,0.1c-1.8,0.1-3.5,0.1-5.3,0.1V23.3h-3.9v-1.9h-1.5v1.9H580v45.1c-2.4,0-4.8,0-7.2,0v-2.8l3.7,0.3l-0.9-2.5l1.3,0
		l-2.3-4.7l1.4-0.1l-1.7-3.3l0.9,0l-2.5-5.4l-3.3,5.1l1.2,0.1l-2,4l1.3-0.1l-2.8,4.6l1.1,0l-0.6,1.6l4.1,0.4l-0.2,2.8
		c-3.9,0-7.9-0.1-11.8-0.2v-2.6l3.7,0.3l-0.9-2.5l1.3,0l-2.3-4.7l1.4-0.1l-1.7-3.3l0.9,0l-2.5-5.4l-3.3,5.1l1.2,0.1l-2,4l1.3-0.1
		l-2.8,4.6l1.1,0l-0.6,1.6l4.1,0.4l-0.2,2.6c-3.8-0.1-7.6-0.2-11.5-0.3V12.2h-1.3v1.9H541v-1.9h-1.5v1.9h-0.1h-20v-1.9h-1.3v54.4
		c-4.7-0.2-9.3-0.5-14-0.7L504,64l4.1-0.4l-0.6-1.6l1.1,0l-2.8-4.6l1.3,0.1l-2-4l1.2-0.1l-3.3-5.1l-2.5,5.4l0.9,0l-1.7,3.3l1.4,0.1
		l-2.3,4.7l1.3,0l-0.9,2.5L503,64v1.8c-3.9-0.2-7.8-0.4-11.8-0.7V52.6l-3.7-3.4v-3.3h0.3v-1.5h-3.3v1.5h0.3v0.9l-4.5-4.1l-11,9.9
		v11.3c-3.8-0.2-7.7-0.4-11.5-0.7l-0.1-0.2l0.7,0l-1.7-2.7l0.8,0.1l-1.2-2.4l0.7,0l-2-3l-1.5,3.2l0.6,0l-1,2l0.8,0.1l-1.3,2.8l0.8,0
		l0,0c-1.2-0.1-2.4-0.1-3.6-0.2l-1.4-2.3l1,0.1l-1.5-3l0.9,0l-2.6-3.9l-1.9,4.1l0.7,0l-1.3,2.5l1.1,0.1l-1.1,2.2c-1-0.1-2-0.1-3-0.2
		V51l-4.4-4v-3.9h0.3v-1.8h-3.9v1.8h0.3v1l-5.4-4.8l-13,11.7v10.1c-2.5-0.1-5-0.2-7.6-0.3V20.2h-3.9v-1.9h-1.5v1.9h-19.3v40
		c-4.4-0.1-8.7-0.1-13.1-0.1V0.5H368v1.9h-5.1V0.5h-1.5v1.9h-0.1h-20.7V0.5h-1.3v60.2c-1.5,0.1-3,0.1-4.4,0.2v-39h-4v-1.9h-1.5v1.9
		h-19.8v40.4c-2.3,0.2-4.6,0.3-6.9,0.5V36.7h-15.8v28.5c-5.4,0.7-10.9,1.4-16.3,2.2V41.2h-17.8v-1.7h-1.4v1.7h-3.6v29.4
		c-4.4,0.6-8.8,1.2-13.3,1.9v-1l2.6,0.2l-0.6-1.8l0.9,0l-1.6-3.3l1-0.1l-1.2-2.4l0.7,0l-1.8-3.8l-2.4,3.6l0.8,0l-1.4,2.8l1-0.1
		l-2,3.2l0.8,0l-0.4,1.1l2.9,0.3l-0.1,1.1c-3.4,0.5-6.8,0.9-10.2,1.4v-1.5l2,0.2l-0.5-1.4l0.7,0l-1.2-2.6l0.8,0l-0.9-1.8l0.5,0
		l-1.4-2.9l-1.8,2.8l0.6,0L221,69l0.7,0l-1.5,2.5l0.6,0l-0.3,0.9l2.3,0.2l-0.1,1.6c-4,0.6-7.9,1.1-11.9,1.6v-11l-12-10.8l-5,4.5v-1
		h0.3v-1.6h-3.6v1.6h0.3V61l-4.1,3.7v14.1c-7.9,1-15.7,1.9-23.6,2.7V69.5l-12-10.8l-5,4.5v-1h0.3v-1.6H143v1.6h0.3v3.6l-4.1,3.7
		v14.3c-5.1,0.4-10.2,0.8-15.4,1.1V74l-4-3.6V67h0.3v-1.6h-3.5V67h0.3v0.9l-4.8-4.3L100.6,74v11.9c-1.7,0-3.3,0.1-5,0.1v-8.3
		l-2.6-2.3v-2.3h0.2v-1H91v1h0.2v0.6L88.1,71l-7.5,6.8v8.4c-1,0-2,0-3,0c-0.9,0-1.8,0-2.7-0.1l-0.1-0.9l2.4-0.2l-0.3-0.9l0.7,0
		l-1.6-2.6l0.8,0l-1.1-2.3l0.7,0l-1.9-2.9l-1.4,3.1l0.5,0l-1,1.9l0.8,0.1L71.9,84l0.7,0l-0.5,1.5l2.1-0.2V86c-2.4,0-4.9-0.1-7.3-0.2
		l-0.1-1.2l3.6-0.3L69.9,83l1,0l-2.4-4l1.2,0.1l-1.7-3.4l1,0L66,71.3l-2.2,4.6l0.8,0l-1.5,2.9l1.2,0.1l-1.9,4l1.1,0L62.8,85l3.2-0.3
		v1.1c-7.3-0.2-14.7-0.6-22-1.1l-0.3-0.6l1.2,0.1l-1.7-3.4l1,0l-2.9-4.4L39,81l0.8,0l-1.5,2.9l1.2,0.1l-0.2,0.5
		c-5-0.3-9.9-0.7-14.9-1.1v-8.6l-7.8-7l-3.2,2.9V70h0.2V69h-2.3V70h0.2v2.4l-2.7,2.4V82c-2.9-0.3-5.9-0.5-8.8-0.8v58.2h298.1h7.4
		h412.9h21.2h448.2V78.2C1184.7,78.5,1181.6,78.8,1178.5,79.1z M14.4,82.5c-0.6-0.1-1.2-0.1-1.8-0.2v-2.7h1.8V82.5z M17.3,74.3H16
		v-2.2h1.3V74.3z M20.6,83c-0.6-0.1-1.2-0.1-1.8-0.1v-3.3h1.8V83z M86,86.2c-0.6,0-1.2,0-1.7,0v-3.7H86V86.2z M88.8,77.4h-1.3v-2.2
		h1.3V77.4z M92,86.1c-0.6,0-1.2,0-1.7,0v-3.7H92V86.1z M109,85.7c-0.9,0-1.8,0.1-2.7,0.1v-4.5h2.7V85.7z M113.2,73.4h-2v-3.3h2
		V73.4z M118.2,85.2c-0.9,0-1.8,0.1-2.7,0.1v-4.1h2.7V85.2z M147.9,82.9h-2.8v-6h2.8V82.9z M152.2,68.8h-2v-3.4h2V68.8z M157.4,82.2
		c-0.9,0.1-1.8,0.2-2.8,0.3v-5.5h2.8V82.2z M195.5,77.7c-0.9,0.1-1.8,0.2-2.8,0.4v-5.9h2.8V77.7z M199.8,64h-2v-3.4h2V64z M205,76.5
		c-0.9,0.1-1.8,0.2-2.8,0.4v-4.7h2.8V76.5z M253.7,62h-2.4v-5.2h2.4V62z M260.2,62h-2.4v-5.2h2.4V62z M261.5,50.7h-5.1v-3.4L259,45
		l2.5,2.2V50.7z M266.8,62h-2.4v-5.2h2.4V62z M298.3,41.1h1.7v3.6h-1.7V41.1z M298.3,48.6h1.7v3.6h-1.7V48.6z M291,61.6h-1.7V58h1.7
		V61.6z M291,52.2h-1.7v-3.6h1.7V52.2z M291,44.7h-1.7v-3.6h1.7V44.7z M294.5,61.6h-1.7V58h1.7V61.6z M295.5,52.2h-1.7v-3.6h1.7
		V52.2z M295.5,44.7h-1.7v-3.6h1.7V44.7z M296,64.1v-6.4h4.4V63c-0.7,0.1-1.5,0.1-2.2,0.2v0.7C297.4,63.9,296.7,64,296,64.1z
		 M319.3,28.6l2.8-2.5l2.8,2.5v3.8h-5.6V28.6z M313.5,39.1h2.7v5.8h-2.7V39.1z M320,61.6c-0.2,0-0.5,0-0.7,0v-1.4h-2.4v1.6
		c-0.2,0-0.5,0-0.7,0v-1.6h-2.4V62c-0.2,0-0.5,0-0.7,0v-6.7h7V61.6z M320.8,39.1h2.7v5.8h-2.7V39.1z M325.1,61.3
		c-0.9,0.1-1.8,0.1-2.7,0.2v-5.6h2.7V61.3z M330.7,61c-0.9,0-1.8,0.1-2.7,0.1v-5.3h2.7V61z M330.7,44.9H328v-5.8h2.7V44.9z M356.8,7
		l3.1-1.6l3.1,1.6v1.9h-6.1V7z M360.5,39v-1.8h2.1V39H360.5z M362.6,39.7v2.1h-2.1v-2.1H362.6z M360.5,36.6v-2.1h2.1v2.1H360.5z
		 M360.5,25.3v-2.1h2.1v2.1H360.5z M360.5,22.6v-1.8h2.1v1.8H360.5z M360.5,20.3v-2.1h2.1v2.1H360.5z M354.6,18.1h2.1v2.1h-2.1V18.1
		z M354.6,20.8h2.1v1.8h-2.1V20.8z M354.6,23.2h2.1v2.1h-2.1V23.2z M354.6,34.5h2.1v2.1h-2.1V34.5z M354.6,37.2h2.1V39h-2.1V37.2z
		 M354.6,39.6h2.1v2.1h-2.1V39.6z M351.9,18.1h2.1v2.1h-2.1V18.1z M351.9,20.8h2.1v1.8h-2.1V20.8z M351.9,23.2h2.1v2.1h-2.1V23.2z
		 M351.9,34.5h2.1v2.1h-2.1V34.5z M351.9,37.2h2.1V39h-2.1V37.2z M351.9,39.6h2.1v2.1h-2.1V39.6z M345.7,7l3.1-1.6l3.1,1.6v1.9h-6.1
		V7z M343.2,18.1h2.1v2.1h-2.1V18.1z M343.2,20.8h2.1v1.8h-2.1V20.8z M343.2,23.2h2.1v2.1h-2.1V23.2z M343.2,34.5h2.1v2.1h-2.1V34.5
		z M343.2,37.2h2.1V39h-2.1V37.2z M343.2,39.6h2.1v2.1h-2.1V39.6z M348.1,58.2h-4.8v-4.5h4.8V58.2z M348.1,53.1h-4.8V51h4.8V53.1z
		 M348.1,41.7H346v-2.1h2.1V41.7z M348.1,39H346v-1.8h2.1V39z M348.1,36.6H346v-2.1h2.1V36.6z M348.1,25.3H346v-2.1h2.1V25.3z
		 M348.1,22.6H346v-1.8h2.1V22.6z M348.1,20.2H346v-2.1h2.1V20.2z M357.8,60.2c-0.2,0-0.5,0-0.7,0v-1.7h-2.4v1.8c-0.2,0-0.5,0-0.7,0
		v-1.8h-2.4v1.8c-0.2,0-0.5,0-0.7,0v-10h7V60.2z M365.3,58.2h-4.8v-4.5h4.8V58.2z M365.3,53.1h-4.8V51h4.8V53.1z M365.3,41.7h-2.1
		v-2.1h2.1V41.7z M365.3,39h-2.1v-1.8h2.1V39z M365.3,36.6h-2.1v-2.1h2.1V36.6z M365.3,25.3h-2.1v-2.1h2.1V25.3z M365.3,22.6h-2.1
		v-1.8h2.1V22.6z M365.3,20.3h-2.1v-2.1h2.1V20.3z M392.1,26.7l2.7-2.4l2.7,2.4v3.7h-5.5V26.7z M386.4,37h2.6v5.6h-2.6V37z
		 M392.8,60.4c-2.3-0.1-4.6-0.1-6.8-0.1v-7.4h6.8V60.4z M393.5,37h2.6v5.6h-2.6V37z M397.7,59h-2.6v-5.6h2.6V59z M403.2,59h-2.6
		v-5.6h2.6V59z M403.2,42.6h-2.6V37h2.6V42.6z M424.1,61.5c-1,0-2-0.1-3-0.1V59h3V61.5z M428.8,50.3h-2.2v-3.7h2.2V50.3z M434.4,62
		c-1,0-2-0.1-3-0.1V59h3V62z M477.2,64.3c-0.8,0-1.7-0.1-2.5-0.1v-4.8h2.5V64.3z M481.2,52h-1.8v-3.1h1.8V52z M485.9,64.8h-0.4
		c-0.7,0-1.4-0.1-2.1-0.1v-5.3h2.5V64.8z M535.1,18.5l2.9-1.5l2.9,1.5v1.9h-5.9V18.5z M538.7,49.4v-1.7h2v1.7H538.7z M540.7,50.1v2
		h-2v-2H540.7z M538.7,47.1v-2h2v2H538.7z M538.7,36.2v-2h2v2H538.7z M538.7,33.6v-1.7h2v1.7H538.7z M538.7,31.3v-2h2v2H538.7z
		 M533,29.3h2v2h-2V29.3z M533,31.9h2v1.7h-2V31.9z M533,34.2h2v2h-2V34.2z M533,45.1h2v2h-2V45.1z M533,47.7h2v1.7h-2V47.7z
		 M533,50h2v2h-2V50z M530.3,29.3h2v2h-2V29.3z M530.3,31.9h2v1.7h-2V31.9z M530.3,34.2h2v2h-2V34.2z M530.3,45.1h2v2h-2V45.1z
		 M530.3,47.7h2v1.7h-2V47.7z M530.3,50h2v2h-2V50z M524.3,18.5l2.9-1.5l2.9,1.5v1.9h-5.9V18.5z M522,29.3h2v2h-2V29.3z M522,31.9h2
		v1.7h-2V31.9z M522,34.2h2v2h-2V34.2z M522,45.1h2v2h-2V45.1z M522,47.7h2v1.7h-2V47.7z M522,50h2v2h-2V50z M526.7,67
		c-1.6-0.1-3.1-0.1-4.7-0.2v-3.2h4.7V67z M526.7,63H522v-2h4.7V63z M526.7,52h-2v-2h2V52z M526.7,49.4h-2v-1.7h2V49.4z M526.7,47.1
		h-2v-2h2V47.1z M526.7,36.2h-2v-2h2V36.2z M526.7,33.6h-2v-1.7h2V33.6z M526.7,31.3h-2v-2h2V31.3z M536.1,67.4
		c-0.7,0-1.5-0.1-2.2-0.1h1.5v-2.4H533v2.4c-0.2,0-0.5,0-0.7,0v-2.4H530v2.3c-0.2,0-0.5,0-0.7,0v-6.8h6.8V67.4z M543.3,67.7
		c-1.6-0.1-3.1-0.1-4.7-0.2v-3.9h4.7V67.7z M543.3,63h-4.7v-2h4.7V63z M543.3,52.1h-2v-2h2V52.1z M543.3,49.4h-2v-1.7h2V49.4z
		 M543.3,47.1h-2v-2h2V47.1z M543.3,36.2h-2v-2h2V36.2z M543.3,33.6h-2v-1.7h2V33.6z M543.3,31.3h-2v-2h2V31.3z M591.1,30.2h2.6v5.6
		h-2.6V30.2z M584,30.2h2.6v5.6H584V30.2z M584,41.8h2.6v5.6H584V41.8z M590.3,68.4c-0.2,0-0.5,0-0.7,0v-4.4h-2.4v4.4
		c-0.2,0-0.5,0-0.7,0v-4.4h-2.4v4.4c-0.2,0-0.5,0-0.7,0V56h6.8V68.4z M591.1,41.8h2.6v5.6h-2.6V41.8z M595.3,62.1h-2.6v-5.6h2.6
		V62.1z M600.8,62.1h-2.6v-5.6h2.6V62.1z M600.8,47.4h-2.6v-5.6h2.6V47.4z M600.8,35.8h-2.6v-5.6h2.6V35.8z M648.6,65.8
		c-0.7,0.1-1.3,0.1-2,0.2v-4.1h2V65.8z M651.8,55.9h-1.5v-2.5h1.5V55.9z M655.5,65.2c-0.7,0.1-1.3,0.1-2,0.2v-3.6h2V65.2z
		 M676.7,32.3h2.5v5.4h-2.5V32.3z M670,32.3h2.5v5.4H670V32.3z M670,43.4h2.5v5.4H670V43.4z M676,63.3c-2.2,0.2-4.3,0.4-6.5,0.6v-7
		h6.5V63.3z M676.7,43.4h2.5v5.4h-2.5V43.4z M680.8,62.8h-2.5v-5.4h2.5V62.8z M686,62.3c-0.8,0.1-1.7,0.2-2.5,0.3v-5.2h2.5V62.3z
		 M686,48.8h-2.5v-5.4h2.5V48.8z M686,37.7h-2.5v-5.4h2.5V37.7z M725,55.1c-1.6,0.1-3.3,0.3-4.9,0.5v-1.9h4.9V55.1z M722.9,17.9h2.1
		v2.1h-2.1V17.9z M722.9,20.6h2.1v1.8h-2.1V20.6z M722.9,23h2.1v2.1h-2.1V23z M722.9,34.4h2.1v2.1h-2.1V34.4z M722.9,37.1h2.1v1.8
		h-2.1V37.1z M722.9,39.5h2.1v2.1h-2.1V39.5z M725,50.9V53h-4.9v-2.1H725z M722.3,20.6v1.8h-2.1v-1.8H722.3z M720.2,19.9v-2.1h2.1
		v2.1H720.2z M722.3,23v2.1h-2.1V23H722.3z M722.3,34.4v2.1h-2.1v-2.1H722.3z M722.3,37.1v1.8h-2.1v-1.8H722.3z M722.3,39.5v2.1
		h-2.1v-2.1H722.3z M714.2,17.8h2.1v2.1h-2.1V17.8z M714.2,20.5h2.1v1.8h-2.1V20.5z M714.2,22.9h2.1V25h-2.1V22.9z M714.2,34.3h2.1
		v2.1h-2.1V34.3z M714.2,37h2.1v1.8h-2.1V37z M714.2,39.4h2.1v2.1h-2.1V39.4z M711.5,17.8h2.1v2.1h-2.1V17.8z M711.5,20.5h2.1v1.8
		h-2.1V20.5z M711.5,22.9h2.1V25h-2.1V22.9z M711.5,34.3h2.1v2.1h-2.1V34.3z M711.5,37h2.1v1.8h-2.1V37z M711.5,39.4h2.1v2.1h-2.1
		V39.4z M705.2,6.6l3.1-1.6l3.1,1.6v1.9h-6.2V6.6z M702.8,17.8h2.1v2.1h-2.1V17.8z M702.8,20.5h2.1v1.8h-2.1V20.5z M702.8,22.9h2.1
		V25h-2.1V22.9z M702.8,34.3h2.1v2.1h-2.1V34.3z M702.8,37h2.1v1.8h-2.1V37z M702.8,39.4h2.1v2.1h-2.1V39.4z M707.7,58.1h-4.9v-4.5
		h4.9V58.1z M707.7,53h-4.9v-2.1h4.9V53z M707.7,41.5h-2.1v-2.1h2.1V41.5z M707.7,38.8h-2.1V37h2.1V38.8z M707.7,36.4h-2.1v-2.1h2.1
		V36.4z M707.7,25h-2.1v-2.1h2.1V25z M707.7,22.3h-2.1v-1.8h2.1V22.3z M707.7,19.9h-2.1v-2.1h2.1V19.9z M717.4,58.7
		c-0.2,0-0.5,0.1-0.7,0.1v-0.4h-2.4v0.7c-0.2,0-0.5,0.1-0.7,0.1v-0.7h-2.4v1c-0.2,0-0.5,0.1-0.7,0.1v-9.4h7.1V58.7z M716.5,8.6V6.6
		l3.1-1.6l3.1,1.6v1.9H716.5z M744.8,53.2h-2.9V47h2.9V53.2z M749.4,38.4h-2.1v-3.6h2.1V38.4z M754.8,53.2h-2.9V47h2.9V53.2z
		 M772.3,52.3h-1.9v-4.1h1.9V52.3z M775.3,42.8h-1.4v-2.3h1.4V42.8z M778.8,52.3h-1.9v-4.1h1.9V52.3z M807.5,53h-2.5v-5.3h2.5V53z
		 M811.4,40.5h-1.8v-3h1.8V40.5z M816,53h-2.5v-5.3h2.5V53z M850.8,19.3l2.2-1.1l2.2,1.1v1.4h-4.3V19.3z M853.4,42.1v-1.2h1.5v1.2
		H853.4z M854.9,42.5V44h-1.5v-1.5H854.9z M853.4,40.4v-1.5h1.5v1.5H853.4z M853.4,32.4v-1.5h1.5v1.5H853.4z M853.4,30.4v-1.2h1.5
		v1.2H853.4z M853.4,28.7v-1.5h1.5v1.5H853.4z M849.3,27.2h1.5v1.5h-1.5V27.2z M849.3,29.1h1.5v1.2h-1.5V29.1z M849.3,30.8h1.5v1.5
		h-1.5V30.8z M849.3,38.9h1.5v1.5h-1.5V38.9z M849.3,40.8h1.5V42h-1.5V40.8z M849.3,42.5h1.5V44h-1.5V42.5z M847.3,27.2h1.5v1.5
		h-1.5V27.2z M847.3,29.1h1.5v1.2h-1.5V29.1z M847.3,30.8h1.5v1.5h-1.5V30.8z M847.3,38.9h1.5v1.5h-1.5V38.9z M847.3,40.8h1.5V42
		h-1.5V40.8z M847.3,42.5h1.5V44h-1.5V42.5z M842.9,19.3l2.2-1.1l2.2,1.1v1.4h-4.3V19.3z M841.2,27.2h1.5v1.5h-1.5V27.2z
		 M841.2,29.1h1.5v1.2h-1.5V29.1z M841.2,30.8h1.5v1.5h-1.5V30.8z M841.2,38.9h1.5v1.5h-1.5V38.9z M841.2,40.8h1.5V42h-1.5V40.8z
		 M841.2,42.5h1.5V44h-1.5V42.5z M844.6,55.7h-3.4v-3.2h3.4V55.7z M844.6,52.1h-3.4v-1.5h3.4V52.1z M844.6,44h-1.5v-1.5h1.5V44z
		 M844.6,42h-1.5v-1.2h1.5V42z M844.6,40.3h-1.5v-1.5h1.5V40.3z M844.6,32.3h-1.5v-1.5h1.5V32.3z M844.6,30.4h-1.5v-1.2h1.5V30.4z
		 M844.6,28.7h-1.5v-1.5h1.5V28.7z M851.5,57.4c-0.2,0-0.3,0-0.5-0.1v-1.4h-1.7v1.2c-0.2,0-0.3,0-0.5-0.1v-1.2h-1.7v1
		c-0.2,0-0.3,0-0.5-0.1v-6.8h5V57.4z M856.9,55.7h-3.4v-3.2h3.4V55.7z M856.9,52.1h-3.4v-1.5h3.4V52.1z M856.9,44h-1.5v-1.5h1.5V44z
		 M856.9,42.1h-1.5v-1.2h1.5V42.1z M856.9,40.4h-1.5v-1.5h1.5V40.4z M856.9,32.4h-1.5v-1.5h1.5V32.4z M856.9,30.4h-1.5v-1.2h1.5
		V30.4z M856.9,28.7h-1.5v-1.5h1.5V28.7z M877.2,36.1h1.8v3.8h-1.8V36.1z M872.4,36.1h1.8v3.8h-1.8V36.1z M872.4,44h1.8v3.8h-1.8V44
		z M876.7,60.3c-1.5-0.2-3.1-0.4-4.6-0.6v-6.2h4.6V60.3z M877.2,44h1.8v3.8h-1.8V44z M880,57.6h-1.8v-3.8h1.8V57.6z M883.7,57.6
		h-1.8v-3.8h1.8V57.6z M883.7,47.8h-1.8V44h1.8V47.8z M883.7,39.9h-1.8v-3.8h1.8V39.9z M910,58.1h-2.6v-5.5h2.6V58.1z M916.9,58.1
		h-2.6v-5.5h2.6V58.1z M918.2,46.1h-5.3v-3.6l2.7-2.4l2.7,2.4V46.1z M923.7,58.1h-2.6v-5.5h2.6V58.1z M975.3,73.7
		c-1-0.1-1.9-0.3-2.9-0.4v-4.6h2.9V73.7z M979.9,60.2h-2.1v-3.6h2.1V60.2z M985.2,75c-1-0.1-1.9-0.3-2.9-0.4v-5.9h2.9V75z
		 M1025.3,79.5c-1-0.1-1.9-0.2-2.9-0.3v-5.5h2.9V79.5z M1029.9,65.2h-2.1v-3.6h2.1V65.2z M1035.3,80h-2.9v-6.3h2.9V80z M1066.4,82.6
		c-0.9,0-1.9-0.1-2.8-0.1v-4.2h2.8V82.6z M1070.8,70h-2.1v-3.5h2.1V70z M1076,83c-0.9,0-1.9-0.1-2.8-0.1v-4.7h2.8V83z M1092.9,83.4
		c-0.6,0-1.2,0-1.8,0v-3.8h1.8V83.4z M1095.8,74.2h-1.3v-2.3h1.3V74.2z M1099.2,83.4c-0.6,0-1.2,0-1.8,0v-3.9h1.8V83.4z M1168,80
		c-0.6,0.1-1.3,0.1-1.9,0.2v-3.6h1.9V80z M1171,71h-1.4v-2.3h1.4V71z M1174.5,79.4c-0.6,0.1-1.3,0.1-1.9,0.2v-3h1.9V79.4z"/>
	<rect x="847.1" y="50.7" class="st0" width="1.7" height="2.1"/>
	<rect x="847.1" y="53.5" class="st0" width="1.7" height="1.8"/>
	<rect x="849.3" y="50.7" class="st0" width="1.7" height="2.1"/>
	<rect x="849.3" y="53.5" class="st0" width="1.7" height="1.8"/>
</g>
</svg>
