<?xml version="1.0" encoding="utf-8"?>
<!-- Generator: Adobe Illustrator 22.0.1, SVG Export Plug-In . SVG Version: 6.00 Build 0)  -->
<svg version="1.1" id="OBJECTS" xmlns="http://www.w3.org/2000/svg" xmlns:xlink="http://www.w3.org/1999/xlink" x="0px" y="0px"
	 viewBox="0 0 1181.3 132.9" style="enable-background:new 0 0 1181.3 132.9;" xml:space="preserve">
<style type="text/css">
	.st0{fill:#3F95D5;}
</style>
<g>
	<rect x="508" y="38.4" class="st0" width="1.8" height="2.2"/>
	<rect x="508" y="41.4" class="st0" width="1.8" height="1.9"/>
	<rect x="510.4" y="38.4" class="st0" width="1.8" height="2.2"/>
	<rect x="510.4" y="41.4" class="st0" width="1.8" height="1.9"/>
	<path class="st0" d="M1162.9,42.2V26.1l-4.6-4.1v-4.1h0.3v-1.8h-4v1.8h0.3V19l-5.5-5L1136,26.1V41c-1.9,0-3.8-0.1-5.8-0.1V30.4
		l-3-2.7v-2.6h0.2v-1.2h-2.6v1.2h0.2v0.7l-3.6-3.2l-8.7,7.9v10.5c-1.3,0-2.7,0-4,0.1l-0.4-1l0.8,0l-1.9-3.1l0.9,0.1l-1.3-2.7l0.8,0
		l-2.2-3.4l-1.7,3.6l0.6,0l-1.1,2.2l0.9,0.1l-1.5,3.1l0.9,0l-0.5,1.3c-2.8,0.1-5.7,0.2-8.5,0.3V28.1l-11.4-10.2l-4.7,4.2v-0.9h0.3
		v-1.6h-3.4v1.6h0.3v3.4l-3.9,3.5v14.5c-3,0.2-6,0.4-9,0.7c-3.1,0.3-6.2,0.5-9.3,0.8V0h-1v1.5h-15.7h-0.1V0h-1.2v1.5h-3.9V0h-1v46.5
		c-3.6,0.4-7.1,0.8-10.7,1.2V18h-17.7v31.9c-6.1,0.8-12.2,1.6-18.3,2.4V23h-20V21h-1.5V23h-4.1v32.9c-4.9,0.7-9.9,1.4-14.8,2.1v-1.1
		l2.9,0.3l-0.7-2l1,0l-1.8-3.7l1.1-0.1l-1.4-2.6l0.7,0l-2-4.2l-2.6,4l0.9,0l-1.6,3.2l1.1-0.1l-2.2,3.6l0.9,0l-0.5,1.2l3.3,0.3
		l-0.1,1.3c-3.8,0.5-7.6,1.1-11.4,1.6V58l2.3,0.2l-0.6-1.5l0.8,0l-1.4-2.9l0.9-0.1l-1.1-2.1l0.6,0l-1.5-3.3l-2.1,3.1l0.7,0l-1.2,2.5
		l0.8-0.1l-1.7,2.8l0.7,0l-0.4,1l2.6,0.2l-0.1,1.8c-4.4,0.6-8.9,1.2-13.3,1.8V49.3L904,37.2l-5.5,5v-1.1h0.3v-1.8h-4v1.8h0.3v4.1
		l-4.6,4.1v15.8c-8.8,1.1-17.6,2.1-26.4,3V54.6l-13.5-12.1l-5.5,5v-1.1h0.3v-1.8h-4v1.8h0.3v4.1l-4.6,4.1v16
		c-3.4,0.3-6.8,0.5-10.3,0.8l-0.3-0.6l1.3-0.1l-1.7-3.2l0.9,0l-2.4-5.2l-3.2,4.9l1.1,0.1l-1.9,3.9l1.3-0.1l-0.4,0.6
		c-0.6,0-1.2,0.1-1.7,0.1V59.7l-4.4-4v-3.9h0.3V50H812v1.8h0.3v1L807,48l-9.8,8.8l-0.1-0.3l-0.6,0.9l-2.5,2.2v1.5l-0.2,0.3l0.2,0
		v1.9l-1,2l1-0.1v0.5l-2.4,3.9l1.1,0l-0.6,1.5l1.8,0.2V73c-2,0.1-4.1,0.1-6.1,0.1v-0.9l2.4,0.2l-0.6-1.6l0.8,0l-1.5-3l0.9-0.1
		l-1.1-2.2l0.6,0l-1.6-3.5l-2.2,3.3l0.7,0l-1.3,2.6L786,68l-1.8,3l0.7,0l-0.4,1l2.7,0.2l-0.1,1c-1,0-2,0.1-3,0.1c-1.1,0-2.3,0-3.4,0
		v-9.4l-8.4-7.6l-3.5,3.1v-0.7h0.2v-1.2h-2.5v1.2h0.2v2.6l-2.9,2.6v9.3c-1.9,0-3.7-0.1-5.6-0.1V59.7l-13-11.7l-5.4,4.8v-1h0.3V50
		h-3.9v1.8h0.3v3.9l-4.4,4v12.2c-5.7-0.4-11.5-0.8-17.2-1.2v-16l-4.6-4.1v-4.1h0.3v-1.8h-4v1.8h0.3v1.1l-5.5-5l-13.5,12.1v13.5
		c-8.8-0.9-17.6-2-26.4-3V49.3l-4.6-4.1v-4.1h0.3v-1.8h-4v1.8h0.3v1.1l-5.5-5l-13.5,12.1v12.3c-4.4-0.6-8.9-1.2-13.3-1.8l-0.1-1.8
		l2.6-0.2l-0.4-1l0.7,0l-1.7-2.8l0.8,0.1l-1.2-2.5l0.7,0l-2.1-3.1l-1.5,3.3l0.6,0l-1.1,2.1l0.9,0.1l-1.4,2.9l0.8,0l-0.6,1.5l2.3-0.2
		v1.6c-3.8-0.5-7.6-1.1-11.4-1.6l-0.1-1.3l3.3-0.3l-0.5-1.2l0.9,0l-2.2-3.6l1.1,0.1l-1.6-3.2l0.9,0l-2.6-4l-2,4.2l0.7,0l-1.4,2.6
		l1.1,0.1l-1.8,3.7l1,0l-0.7,2l2.9-0.3V58c-4.9-0.7-9.9-1.4-14.8-2.1V23h-4.1V21h-1.5V23h-20v29.3c-6.1-0.8-12.2-1.6-18.3-2.4V18
		h-17.7v29.7c-3.5-0.4-7.1-0.8-10.7-1.2V0h-1v1.5h-3.9V0h-1.2v1.5h-0.1h-15.7V0h-1v44.2c-3.1-0.3-6.2-0.6-9.3-0.8
		c-3-0.2-6-0.5-9-0.7V28.1l-3.9-3.5v-3.4h0.3v-1.6h-3.4v1.6h0.3v0.9l-4.7-4.2l-11.4,10.2v13.2c-2.8-0.1-5.7-0.2-8.5-0.3l-0.5-1.3
		l0.9,0l-1.5-3.1l0.9-0.1l-1.1-2.2l0.6,0l-1.7-3.6l-2.2,3.4l0.8,0l-1.3,2.7l0.9-0.1l-1.9,3.1l0.8,0l-0.4,1c-1.3,0-2.7,0-4-0.1V30.4
		l-8.7-7.9l-3.6,3.2v-0.7h0.2v-1.2h-2.6v1.2h0.2v2.6l-3,2.7v10.4c-1.9,0-3.8,0.1-5.8,0.1V26.1L402.8,14l-5.5,5v-1.1h0.3v-1.8h-4v1.8
		h0.3V22l-4.6,4.1v16.1c-5.7,0.4-11.4,0.9-17.1,1.4V0h-1v1.5h-15.7h-0.1V0h-1.2v1.5h-3.9V0h-1v46.5c-3.6,0.4-7.1,0.8-10.7,1.2V18
		h-17.7v31.9c-6.1,0.8-12.2,1.6-18.3,2.4V23h-20V21h-1.5V23h-4.1v32.9c-4.9,0.7-9.9,1.4-14.8,2.1v-1.1l2.9,0.3l-0.7-2l1,0l-1.8-3.7
		l1.1-0.1l-1.4-2.6l0.7,0l-2-4.2l-2.6,4l0.9,0l-1.6,3.2l1.1-0.1l-2.2,3.6l0.9,0l-0.5,1.2l3.3,0.3l-0.1,1.3
		c-3.8,0.5-7.6,1.1-11.4,1.6V58l2.3,0.2l-0.6-1.5l0.8,0l-1.4-2.9l0.9-0.1l-1.1-2.1l0.6,0l-1.5-3.3l-2.1,3.1l0.7,0l-1.2,2.5l0.8-0.1
		l-1.7,2.8l0.7,0l-0.4,1l2.6,0.2l-0.1,1.8c-4.4,0.6-8.9,1.2-13.3,1.8V49.3l-13.5-12.1l-5.5,5v-1.1h0.3v-1.8h-4v1.8h0.3v4.1l-4.6,4.1
		v15.8c-8.8,1.1-17.6,2.1-26.4,3V54.6l-13.5-12.1l-5.5,5v-1.1h0.3v-1.8h-4v1.8h0.3v4.1l-4.6,4.1v16c-5.7,0.5-11.5,0.9-17.2,1.2V59.7
		l-4.4-4v-3.9h0.3V50h-3.9v1.8h0.3v1l-5.4-4.8l-13,11.7v13.3c-1.9,0-3.7,0.1-5.6,0.1v-9.3l-2.9-2.6v-2.6h0.2v-1.2h-2.5v1.2h0.2v0.7
		l-3.5-3.1l-8.4,7.6v9.4c-1.1,0-2.3,0-3.4,0c-1,0-2,0-3-0.1l-0.1-1l2.7-0.2L86,71l0.7,0L85,68l0.9,0.1l-1.3-2.6l0.7,0l-2.2-3.3
		l-1.6,3.5l0.6,0L81,67.8l0.9,0.1l-1.5,3l0.8,0l-0.6,1.6l2.4-0.2v0.9c-2.7-0.1-5.5-0.1-8.2-0.2l-0.1-1.4l4-0.4l-0.6-1.5l1.1,0
		l-2.7-4.4l1.3,0.1L76,61.6l1.1-0.1l-3.2-4.9l-2.4,5.2l0.9,0L70.7,65l1.3,0.1l-2.2,4.5l1.3,0L70.3,72l3.6-0.3V73
		c-8.2-0.3-16.4-0.7-24.6-1.2l-0.4-0.6l1.3,0.1l-1.9-3.9l1.1-0.1l-3.2-4.9l-2.4,5.2l0.9,0L43,70.8l1.3,0.1L44,71.4
		c-5.6-0.4-11.1-0.8-16.7-1.3v-9.6l-8.7-7.9L15,55.9v-0.7h0.2v-1.2h-2.6v1.2h0.2v2.6l-3,2.7v8.1C6.6,68.3,3.3,68,0,67.7v65.2h371
		h14.5h407H871h310.4V43.7C1175.2,43.1,1169.1,42.6,1162.9,42.2z M16.2,69.2c-0.7-0.1-1.3-0.1-2-0.2v-3h2V69.2z M19.3,60.1h-1.5
		v-2.5h1.5V60.1z M23.1,69.8c-0.7-0.1-1.3-0.1-2-0.2V66h2V69.8z M96.3,73.3c-0.6,0-1.3,0-1.9,0v-4.1h1.9V73.3z M99.4,63.5H98v-2.4
		h1.4V63.5z M103,73.2c-0.6,0-1.3,0-1.9,0v-4.1h1.9V73.2z M122,72.7c-1,0-2,0.1-3,0.1v-5.1h3V72.7z M126.8,59h-2.2v-3.7h2.2V59z
		 M132.3,72.3c-1,0.1-2,0.1-3,0.1v-4.6h3V72.3z M165.6,69.6h-3.1V63h3.1V69.6z M170.5,53.9h-2.3V50h2.3V53.9z M176.2,68.8
		c-1,0.1-2.1,0.2-3.1,0.3V63h3.1V68.8z M218.9,63.9c-1,0.1-2.1,0.3-3.1,0.4v-6.7h3.1V63.9z M223.8,48.5h-2.3v-3.8h2.3V48.5z
		 M229.5,62.5c-1,0.1-2.1,0.3-3.1,0.4v-5.3h3.1V62.5z M284.1,46.3h-2.7v-5.8h2.7V46.3z M291.4,46.3h-2.7v-5.8h2.7V46.3z M292.8,33.6
		h-5.7v-3.8l2.8-2.5l2.8,2.5V33.6z M298.7,46.3h-2.7v-5.8h2.7V46.3z M334,22.9h1.9v4H334V22.9z M334,31.2h1.9v4H334V31.2z
		 M325.8,45.8h-1.9v-4h1.9V45.8z M325.8,35.3h-1.9v-4h1.9V35.3z M325.8,26.9h-1.9v-4h1.9V26.9z M329.7,45.8h-1.9v-4h1.9V45.8z
		 M330.9,35.3H329v-4h1.9V35.3z M330.9,26.9H329v-4h1.9V26.9z M336.3,48c-1.6,0.2-3.3,0.4-4.9,0.6v-7.2h4.9V48z M362.8,5l2.3-1.2
		l2.3,1.2v1.5h-4.6V5z M365.6,29.2v-1.3h1.6v1.3H365.6z M367.2,29.7v1.6h-1.6v-1.6H367.2z M365.6,27.4v-1.6h1.6v1.6H365.6z
		 M365.6,18.8v-1.6h1.6v1.6H365.6z M365.6,16.8v-1.3h1.6v1.3H365.6z M365.6,15v-1.6h1.6V15H365.6z M361.1,13.4h1.6V15h-1.6V13.4z
		 M361.1,15.4h1.6v1.3h-1.6V15.4z M361.1,17.3h1.6v1.6h-1.6V17.3z M361.1,25.8h1.6v1.6h-1.6V25.8z M361.1,27.9h1.6v1.3h-1.6V27.9z
		 M361.1,29.7h1.6v1.6h-1.6V29.7z M359,13.4h1.6V15H359V13.4z M359,15.4h1.6v1.3H359V15.4z M359,17.3h1.6v1.6H359V17.3z M359,25.8
		h1.6v1.6H359V25.8z M359,27.9h1.6v1.3H359V27.9z M359,29.7h1.6v1.6H359V29.7z M354.3,5l2.3-1.2L359,5v1.5h-4.6V5z M352.5,13.4h1.6
		V15h-1.6V13.4z M352.5,15.5h1.6v1.3h-1.6V15.5z M352.5,17.3h1.6v1.6h-1.6V17.3z M352.5,25.9h1.6v1.6h-1.6V25.9z M352.5,27.9h1.6
		v1.3h-1.6V27.9z M352.5,29.7h1.6v1.6h-1.6V29.7z M356.2,43.7h-3.7v-3.4h3.7V43.7z M356.2,39.9h-3.7v-1.6h3.7V39.9z M356.2,31.3
		h-1.6v-1.6h1.6V31.3z M356.2,29.2h-1.6v-1.3h1.6V29.2z M356.2,27.4h-1.6v-1.6h1.6V27.4z M356.2,18.9h-1.6v-1.6h1.6V18.9z
		 M356.2,16.8h-1.6v-1.3h1.6V16.8z M356.2,15h-1.6v-1.6h1.6V15z M363.5,45c-0.2,0-0.4,0-0.5,0.1V44h-1.8v1.3c-0.2,0-0.4,0-0.5,0.1
		V44h-1.8v1.5c-0.2,0-0.4,0-0.5,0.1v-7.8h5.3V45z M369.2,43.7h-3.7v-3.4h3.7V43.7z M369.2,39.9h-3.7v-1.6h3.7V39.9z M369.2,31.2
		h-1.6v-1.6h1.6V31.2z M369.2,29.2h-1.6v-1.3h1.6V29.2z M369.2,27.4h-1.6v-1.6h1.6V27.4z M369.2,18.8h-1.6v-1.6h1.6V18.8z
		 M369.2,16.8h-1.6v-1.3h1.6V16.8z M369.2,15h-1.6v-1.6h1.6V15z M399,41.1h-3.1v-6.7h3.1V41.1z M403.9,25.3h-2.3v-3.8h2.3V25.3z
		 M409.7,41.1h-3.1v-6.7h3.1V41.1z M428.3,40.2h-2v-4.3h2V40.2z M431.5,30H430v-2.5h1.5V30z M435.2,40.2h-2v-4.3h2V40.2z
		 M465.9,40.8h-2.6v-5.6h2.6V40.8z M470,27.5h-1.9v-3.2h1.9V27.5z M474.9,40.8h-2.6v-5.6h2.6V40.8z M512,5l2.3-1.2l2.3,1.2v1.5H512
		V5z M514.8,29.2v-1.3h1.6v1.3H514.8z M516.4,29.7v1.6h-1.6v-1.6H516.4z M514.8,27.4v-1.6h1.6v1.6H514.8z M514.8,18.9v-1.6h1.6v1.6
		H514.8z M514.8,16.8v-1.3h1.6v1.3H514.8z M514.8,15v-1.6h1.6V15H514.8z M510.3,13.4h1.6V15h-1.6V13.4z M510.3,15.4h1.6v1.3h-1.6
		V15.4z M510.3,17.3h1.6v1.6h-1.6V17.3z M510.3,25.8h1.6v1.6h-1.6V25.8z M510.3,27.9h1.6v1.3h-1.6V27.9z M510.3,29.7h1.6v1.6h-1.6
		V29.7z M508.3,13.4h1.6V15h-1.6V13.4z M508.3,15.4h1.6v1.3h-1.6V15.4z M508.3,17.3h1.6v1.6h-1.6V17.3z M508.3,25.8h1.6v1.6h-1.6
		V25.8z M508.3,27.9h1.6v1.3h-1.6V27.9z M508.3,29.7h1.6v1.6h-1.6V29.7z M503.5,5l2.3-1.2l2.3,1.2v1.5h-4.6V5z M501.7,13.4h1.6V15
		h-1.6V13.4z M501.7,15.4h1.6v1.3h-1.6V15.4z M501.7,17.3h1.6v1.6h-1.6V17.3z M501.7,25.8h1.6v1.6h-1.6V25.8z M501.7,27.9h1.6v1.3
		h-1.6V27.9z M501.7,29.7h1.6v1.6h-1.6V29.7z M505.4,43.7h-3.7v-3.4h3.7V43.7z M505.4,39.9h-3.7v-1.6h3.7V39.9z M505.4,31.2h-1.6
		v-1.6h1.6V31.2z M505.4,29.2h-1.6v-1.3h1.6V29.2z M505.4,27.4h-1.6v-1.6h1.6V27.4z M505.4,18.8h-1.6v-1.6h1.6V18.8z M505.4,16.8
		h-1.6v-1.3h1.6V16.8z M505.4,15h-1.6v-1.6h1.6V15z M512.7,45.5c-0.2,0-0.4,0-0.5-0.1V44h-1.8v1.3c-0.2,0-0.4,0-0.5-0.1V44H508V45
		c-0.2,0-0.4,0-0.5-0.1v-7.2h5.3V45.5z M518.5,43.7h-3.7v-3.4h3.7V43.7z M518.5,39.9h-3.7v-1.6h3.7V39.9z M518.5,31.3h-1.6v-1.6h1.6
		V31.3z M518.5,29.2h-1.6v-1.3h1.6V29.2z M518.5,27.4h-1.6v-1.6h1.6V27.4z M518.5,18.9h-1.6v-1.6h1.6V18.9z M518.5,16.8h-1.6v-1.3
		h1.6V16.8z M518.5,15h-1.6v-1.6h1.6V15z M540.1,22.9h1.9v4h-1.9V22.9z M535,22.9h1.9v4H535V22.9z M535,31.2h1.9v4H535V31.2z
		 M539.6,48.6c-1.6-0.2-3.3-0.4-4.9-0.6v-6.6h4.9V48.6z M540.1,31.2h1.9v4h-1.9V31.2z M543.1,45.8h-1.9v-4h1.9V45.8z M547,45.8h-1.9
		v-4h1.9V45.8z M547,35.3h-1.9v-4h1.9V35.3z M547,26.9h-1.9v-4h1.9V26.9z M575,46.3h-2.7v-5.8h2.7V46.3z M582.3,46.3h-2.7v-5.8h2.7
		V46.3z M583.8,33.6h-5.7v-3.8l2.8-2.5l2.8,2.5V33.6z M589.6,46.3h-2.7v-5.8h2.7V46.3z M644.6,62.9c-1-0.1-2.1-0.3-3.1-0.4v-4.9h3.1
		V62.9z M649.5,48.5h-2.3v-3.8h2.3V48.5z M655.2,64.3c-1-0.1-2.1-0.3-3.1-0.4v-6.3h3.1V64.3z M697.9,69.1c-1-0.1-2.1-0.2-3.1-0.3V63
		h3.1V69.1z M702.8,53.9h-2.3V50h2.3V53.9z M708.5,69.6h-3.1V63h3.1V69.6z M741.7,72.4c-1,0-2-0.1-3-0.1v-4.5h3V72.4z M746.4,59
		h-2.2v-3.7h2.2V59z M751.9,72.9c-1,0-2-0.1-3-0.1v-5h3V72.9z M769.9,73.3c-0.6,0-1.3,0-1.9,0v-4.1h1.9V73.3z M773,63.5h-1.4v-2.4
		h1.4V63.5z M776.6,73.3c-0.6,0-1.3,0-1.9,0v-4.2h1.9V73.3z M856.8,68.9c-0.7,0.1-1.3,0.1-2,0.2V66h2V68.9z M849.5,50h2.3v3.2
		l-0.8,0.7h-1.5V50z M813.6,67.8v4.4c-1,0.1-2,0.1-3,0.2v-4.6H813.6z M805.9,55.3h2.2V59h-2.2V55.3z M803.4,67.8v4.9
		c-1,0-2,0.1-3,0.1V72l0.3,0l-0.3-0.9v-1.5l0.7,0l-0.7-1.4v-0.3H803.4z M900.2,63.9c-1,0.1-2.1,0.3-3.1,0.4v-6.7h3.1V63.9z
		 M905.1,48.5h-2.3v-3.8h2.3V48.5z M910.8,62.5c-1,0.1-2.1,0.3-3.1,0.4v-5.3h3.1V62.5z M965.4,46.3h-2.7v-5.8h2.7V46.3z M972.7,46.3
		H970v-5.8h2.7V46.3z M974.2,33.6h-5.7v-3.8l2.8-2.5l2.8,2.5V33.6z M980,46.3h-2.7v-5.8h2.7V46.3z M1015.4,22.9h1.9v4h-1.9V22.9z
		 M1015.4,31.2h1.9v4h-1.9V31.2z M1007.1,45.8h-1.9v-4h1.9V45.8z M1007.1,35.3h-1.9v-4h1.9V35.3z M1007.1,26.9h-1.9v-4h1.9V26.9z
		 M1011.1,45.8h-1.9v-4h1.9V45.8z M1012.2,35.3h-1.9v-4h1.9V35.3z M1012.2,26.9h-1.9v-4h1.9V26.9z M1017.6,48
		c-1.6,0.2-3.3,0.4-4.9,0.6v-7.2h4.9V48z M1044.1,5l2.3-1.2l2.3,1.2v1.5h-4.6V5z M1046.9,29.2v-1.3h1.6v1.3H1046.9z M1048.5,29.7
		v1.6h-1.6v-1.6H1048.5z M1046.9,27.4v-1.6h1.6v1.6H1046.9z M1046.9,18.8v-1.6h1.6v1.6H1046.9z M1046.9,16.8v-1.3h1.6v1.3H1046.9z
		 M1046.9,15v-1.6h1.6V15H1046.9z M1042.4,13.4h1.6V15h-1.6V13.4z M1042.4,15.4h1.6v1.3h-1.6V15.4z M1042.4,17.3h1.6v1.6h-1.6V17.3z
		 M1042.4,25.8h1.6v1.6h-1.6V25.8z M1042.4,27.9h1.6v1.3h-1.6V27.9z M1042.4,29.7h1.6v1.6h-1.6V29.7z M1040.4,13.4h1.6V15h-1.6V13.4
		z M1040.4,15.4h1.6v1.3h-1.6V15.4z M1040.4,17.3h1.6v1.6h-1.6V17.3z M1040.4,25.8h1.6v1.6h-1.6V25.8z M1040.4,27.9h1.6v1.3h-1.6
		V27.9z M1040.4,29.7h1.6v1.6h-1.6V29.7z M1035.7,5l2.3-1.2l2.3,1.2v1.5h-4.6V5z M1033.8,13.4h1.6V15h-1.6V13.4z M1033.8,15.5h1.6
		v1.3h-1.6V15.5z M1033.8,17.3h1.6v1.6h-1.6V17.3z M1033.8,25.9h1.6v1.6h-1.6V25.9z M1033.8,27.9h1.6v1.3h-1.6V27.9z M1033.8,29.7
		h1.6v1.6h-1.6V29.7z M1037.5,43.7h-3.7v-3.4h3.7V43.7z M1037.5,39.9h-3.7v-1.6h3.7V39.9z M1037.5,31.3h-1.6v-1.6h1.6V31.3z
		 M1037.5,29.2h-1.6v-1.3h1.6V29.2z M1037.5,27.4h-1.6v-1.6h1.6V27.4z M1037.5,18.9h-1.6v-1.6h1.6V18.9z M1037.5,16.8h-1.6v-1.3h1.6
		V16.8z M1037.5,15h-1.6v-1.6h1.6V15z M1044.9,45c-0.2,0-0.4,0-0.5,0.1V44h-1.8v1.3c-0.2,0-0.4,0-0.5,0.1V44h-1.8v1.5
		c-0.2,0-0.4,0-0.5,0.1v-7.8h5.3V45z M1050.6,43.7h-3.7v-3.4h3.7V43.7z M1050.6,39.9h-3.7v-1.6h3.7V39.9z M1050.6,31.2h-1.6v-1.6
		h1.6V31.2z M1050.6,29.2h-1.6v-1.3h1.6V29.2z M1050.6,27.4h-1.6v-1.6h1.6V27.4z M1050.6,18.8h-1.6v-1.6h1.6V18.8z M1050.6,16.8
		h-1.6v-1.3h1.6V16.8z M1050.6,15h-1.6v-1.6h1.6V15z M1080,40.8h-2.6v-5.6h2.6V40.8z M1084.2,27.5h-1.9v-3.2h1.9V27.5z M1089,40.8
		h-2.6v-5.6h2.6V40.8z M1119.1,40.2h-2v-4.3h2V40.2z M1122.3,30h-1.5v-2.5h1.5V30z M1126,40.2h-2v-4.3h2V40.2z M1145.7,41.1h-3.1
		v-6.7h3.1V41.1z M1150.6,25.3h-2.3v-3.8h2.3V25.3z M1156.4,41.1h-3.1v-6.7h3.1V41.1z"/>
</g>
</svg>
