<?xml version="1.0" encoding="utf-8"?>
<!-- Generator: Adobe Illustrator 22.0.1, SVG Export Plug-In . SVG Version: 6.00 Build 0)  -->
<svg version="1.1" id="Слой_1" xmlns="http://www.w3.org/2000/svg" xmlns:xlink="http://www.w3.org/1999/xlink" x="0px" y="0px"
	 viewBox="0 0 684 760.7" style="enable-background:new 0 0 684 760.7;" xml:space="preserve">
<style type="text/css">
	.st0{fill:#4CB2FF;}
</style>
<path class="st0" d="M3.4,289.5c6.7-55.1,22.3-105,48.2-148.3c27-45.1,60.1-74.7,96.9-96.1C192,19.7,237.1,7.9,282.9,2.8
	c30.2-3.4,60.3-3.2,90.4-2c0.5,0.3,1,0.6,1.5,1c14.1,2.1,28.2,3.9,42.2,7c27.5,6.2,54.1,16.2,80,29.9
	c42.6,22.5,81.4,54.2,114.5,99.2c38.8,52.7,65.9,116.2,71.5,197.1c4.3,62.6-6.5,121.3-29.3,176.1c-21.1,50.8-50,90.1-83,123.2
	c-24.7,24.7-51,45-78.3,61.7c-32.6,19.8-66.1,34.6-100.2,45.8c-21,6.9-42.2,11.4-63.3,16c-3.6,0.8-9.9,2.6-22.2,2.8
	c-3.7,0.1-14.1,0.9-14.8-7.2c-0.7-7.4,3.1-11.2,6.5-14c7.1-5.6,14-11.3,20.1-19.4c6.4-8.6,10.5-27,7.9-38
	C323,668.2,314,665,306,663.9c-10.9-1.5,2.9,0.2-21.7-2c-12.1-1.1-25.5-3.5-34.3-5c-8.2-1.4-28.7-5.6-36.8-7.9
	c-17.1-4.7-33.9-10.8-50.2-19c-23.2-11.6-46-25.1-66.7-44.3C58,550.4,28.3,503.9,11.5,440.4c-7-26.5-10.2-54.1-11.2-82.8
	C-0.6,334.7,0.7,311.7,3.4,289.5z"/>
</svg>
