<?xml version="1.0" encoding="utf-8"?>
<!-- Generator: Adobe Illustrator 22.0.1, SVG Export Plug-In . SVG Version: 6.00 Build 0)  -->
<svg version="1.1" id="Layer_1" xmlns="http://www.w3.org/2000/svg" xmlns:xlink="http://www.w3.org/1999/xlink" x="0px" y="0px"
	 viewBox="0 0 512 512" style="enable-background:new 0 0 512 512;" xml:space="preserve">
<style type="text/css">
	.st0{fill:#1A2E46;}
</style>
<g>
	<g>
		<path class="st0" d="M373.7,0H138.3C62.1,0,0,62.1,0,138.3v235.3C0,449.9,62.1,512,138.3,512h235.3c76.3,0,138.3-62.1,138.3-138.3
			V138.3C512,62.1,449.9,0,373.7,0z M470.6,373.7c0,53.5-43.5,97-97,97H138.3c-53.5,0-97-43.5-97-97V138.3c0-53.5,43.5-97,97-97
			h235.3c53.5,0,97,43.5,97,97V373.7z"/>
	</g>
</g>
<g>
	<path class="st0" d="M250,158.8l-46.9,194.4h-36.4L120,158.8h36.7l27.3,133.1c0.2,3.8,0.5,9.3,0.9,16.6c-0.1-3.8,0.2-9.3,0.9-16.6
		l27.5-133.1H250z"/>
	<path class="st0" d="M394,353h-40.3l-46.4-86.6V353h-36.6V158.8h36.6v82.1l40.6-82.1h40v1.4l-49.7,92.2L394,353z"/>
</g>
</svg>
