<?xml version="1.0" encoding="utf-8"?>
<!-- Generator: Adobe Illustrator 19.2.0, SVG Export Plug-In . SVG Version: 6.00 Build 0)  -->
<svg version="1.1" xmlns="http://www.w3.org/2000/svg" xmlns:xlink="http://www.w3.org/1999/xlink" x="0px" y="0px"
	 viewBox="0 0 140 56" style="enable-background:new 0 0 140 56;" xml:space="preserve">
<style type="text/css">
	.st0{clip-path:url(#SVGID_2_);fill:#093071;}
	.st1{fill:#093071;}
	.st2{fill:#9A248A;}
	.st3{fill:#CB1174;}
	.st4{fill:#34358F;}
	.st5{fill:#374476;}
	.st6{fill:#2B2A29;}
	.st7{fill:#BAD405;}
	.st8{fill:#1C6F41;}
	.st9{fill:#2C6C40;}
	.st10{fill:#003A7A;}
	.st11{fill:#C1B600;}
	.st12{fill:#616265;}
	.st13{fill:#002663;}
	.st14{fill:#FFFFFF;}
	.st15{fill:#170D00;}
	.st16{fill:#C2C8CC;}
	.st17{fill:#FFE428;}
	.st18{fill:#CF0A2C;}
	.st19{fill:#FF2D22;}
	.st20{fill:#3FAFE3;}
	.st21{fill:#004792;}
	.st22{fill:#2D338E;}
	.st23{fill:#C4C1BA;}
	.st24{fill:#541753;}
	.st25{fill:#A8B300;}
	.st26{fill:#1D488B;}
	.st27{fill:#1C1C1C;}
	.st28{fill:#777777;}
	.st29{fill:#B568CE;}
	.st30{fill:#808284;}
	.st31{fill:#818285;}
	.st32{fill:#00BCE4;}
	.st33{fill:#006FBA;}
	.st34{fill:#52B9E9;}
	.st35{fill-rule:evenodd;clip-rule:evenodd;fill:#004A8B;}
	.st36{fill-rule:evenodd;clip-rule:evenodd;fill:#FF0F46;}
	.st37{fill:#6DB360;}
	.st38{fill:#48443E;}
	.st39{filter:url(#Adobe_OpacityMaskFilter);}
	.st40{mask:url(#mask-2_2_);fill:#3CB3E7;}
	.st41{fill:#3CB3E7;}
	.st42{filter:url(#Adobe_OpacityMaskFilter_1_);}
	.st43{mask:url(#mask-4_2_);fill:#3CB3E7;}
	.st44{fill:#1D4382;}
	.st45{fill:#009945;}
	.st46{fill:#141C1E;}
	.st47{fill:#D76C43;}
	.st48{fill:#274578;}
</style>
<g id="Layer_1">
</g>
<g id="Layer_2">
</g>
<g id="Layer_3_1_">
</g>
<g id="Layer_4">
</g>
<g id="Layer_5">
</g>
<g id="Layer_6">
</g>
<g id="Layer_7">
</g>
<g id="Layer_8">
</g>
<g id="Layer_9">
	<g id="Page-1_6_">
		<g id="Artboard-1-Copy-8">
			<g id="Alfa120" transform="translate(0.000000, 8.000000)">
				<g id="Слой_1_3_">
					<g id="Group_8_">
						<path id="Shape_54_" class="st18" d="M20.9,6.2H9.2c-4.7,0-8.6,3.8-8.6,8.4v11.5c0,4.6,3.8,8.4,8.6,8.4h11.7
							c4.7,0,8.6-3.8,8.6-8.4V14.7C29.5,10,25.6,6.2,20.9,6.2L20.9,6.2z"/>
						<path id="Shape_53_" class="st14" d="M24.2,23.9l0,0.1c0,0.5-0.4,1-0.9,1c-0.4,0-0.7-0.1-1-0.4c-0.3-0.4-0.6-0.8-0.9-1.6
							c0.8-2.7,3.3-11.3,3.3-11.3H20c0,0-0.4,2-0.8,3.9c0,0,0-0.1-0.1-0.1c-0.4-0.8-1-1.7-1.7-2.4c-1.2-1.1-2.7-1.7-4.4-1.7
							c-2.4,0-4.4,0.9-6,2.6c-1.6,1.7-2.4,3.9-2.4,6.3c0,2.7,0.8,4.9,2.4,6.6c1.6,1.7,3.6,2.6,6.2,2.6c1.5,0,2.9-0.4,4.3-1.3
							c0.9-0.6,1.6-1.3,2.4-2.3c0.3,1,0.6,1.7,1,2.2c0.6,0.8,1.5,1.3,2.5,1.3c1,0,1.9-0.5,2.4-1.3c0.4-0.7,0.6-1.6,0.6-3.1v-0.9
							H24.2L24.2,23.9L24.2,23.9L24.2,23.9z M16.2,25.6c-0.7,1-1.7,1.6-2.7,1.6c-1.2,0-2.2-0.5-2.8-1.7c-0.7-1.2-1.1-2.9-1.1-5.2
							c0-2.1,0.4-3.8,1.1-5c0.7-1.1,1.6-1.6,2.8-1.6c1.1,0,1.9,0.4,2.6,1.4c0.8,1,1.4,2.7,1.9,4.8C17.5,22.8,16.9,24.6,16.2,25.6
							L16.2,25.6z"/>
						<g id="Shape_52_" transform="translate(27.279661, 2.769231)">
							<path class="st18" d="M16.6,9.3c-0.3-1.4-1.3-2.5-3.3-2.5c-1.9,0-3,1-3.3,2.5l-1.5,6.5h1.6c0.4,0,0.7-0.3,0.8-0.6l0.3-1.3
								h4.2l0.3,1.3c0.1,0.3,0.4,0.6,0.8,0.6h1.6L16.6,9.3L16.6,9.3z M11.7,12.1l0.5-2.3c0.1-0.4,0.4-0.9,1.2-0.9s1.1,0.6,1.2,0.9
								l0.5,2.3H11.7L11.7,12.1z"/>
							<path class="st18" d="M22,9h3.5v6.8h2.2V7.1h-6.6c-0.7,0-1.3,0.6-1.3,1.3v4.4c0,0.6-0.3,1-0.8,1.1L18.6,14l0.4,1.9h0.4
								c1.5,0,2.6-1.1,2.6-3L22,9"/>
							<path class="st18" d="M46.7,7.1h-0.8v-1h-1.5c-0.4,0-0.7,0.3-0.7,0.6v0.4H43c-2.7,0-4.4,1.8-4.4,4.4s1.7,4.4,4.4,4.4h0.8v1.1
								h1.5c0.4,0,0.7-0.3,0.7-0.6v-0.4h0.8c2.7,0,4.4-1.8,4.4-4.4S49.4,7.1,46.7,7.1L46.7,7.1z M43,13.9c-1.5,0-2.2-0.9-2.2-2.5
								C40.8,9.9,41.5,9,43,9h0.8v4.9H43L43,13.9z M46.7,13.9h-0.8V9h0.8c1.5,0,2.2,0.9,2.2,2.5C48.9,13,48.2,13.9,46.7,13.9
								L46.7,13.9z"/>
							<path class="st18" d="M34.5,9.3h-3.1V7.1h-2.2v8.1c0,0.4,0.3,0.6,0.7,0.6h4.7c1.9,0,3.3-1.4,3.3-3.3
								C37.9,10.7,36.7,9.3,34.5,9.3L34.5,9.3z M34.5,13.9h-3.1v-2.6h3.1c0.5,0,1.2,0.5,1.2,1.3C35.7,13.4,35.1,13.9,34.5,13.9
								L34.5,13.9z"/>
							<path class="st18" d="M59.3,9.3C59,7.9,58,6.9,56,6.9c-1.9,0-3,1-3.3,2.5l-1.5,6.5h1.6c0.4,0,0.7-0.3,0.8-0.6l0.3-1.3h4.2
								l0.3,1.3c0.1,0.3,0.4,0.6,0.8,0.6h1.6L59.3,9.3L59.3,9.3z M54.3,12.1l0.5-2.3c0.1-0.4,0.4-0.9,1.2-0.9c0.8,0,1.1,0.6,1.2,0.9
								l0.5,2.3H54.3L54.3,12.1z"/>
						</g>
						<g id="Shape_51_" transform="translate(28.220339, 12.923077)">
							<path class="st18" d="M71,13.5c0.4-0.4,0.6-0.9,0.6-1.6c0-1.6-1.2-2.6-2.8-2.6h-5.3c-0.4,0-0.7,0.3-0.7,0.6v7.5
								c0,0.4,0.3,0.6,0.7,0.6l5.7,0c1.7,0,2.8-1.2,2.8-2.7C72,14.5,71.6,13.9,71,13.5L71,13.5z M68.8,11.1c0.3,0,0.7,0.3,0.7,0.9
								c0,0.6-0.4,0.8-0.7,0.9H65v-1.7H68.8L68.8,11.1z M69,16.2h-4v-1.7h4c0.3,0,0.7,0.3,0.7,0.9C69.7,15.9,69.3,16.2,69,16.2
								L69,16.2z"/>
							<path class="st18" d="M56.6,9c-2.7,0-4.6,1.9-4.6,4.6c0,2.7,1.9,4.6,4.6,4.6h0.7c2.7,0,4.6-1.9,4.6-4.6
								c0-2.7-1.9-4.6-4.6-4.6H56.6L56.6,9z M54.3,13.6c0-1.6,0.9-2.8,2.4-2.8h0.5c1.5,0,2.4,1.2,2.4,2.8c0,1.6-0.9,2.8-2.4,2.8
								h-0.5C55.2,16.4,54.3,15.2,54.3,13.6L54.3,13.6z"/>
							<path class="st18" d="M15.8,9.3l0.3,1.3c0.1,0.4,0.4,0.6,0.8,0.6h2V18h2.2v-6.8h2c0.4,0,0.7-0.3,0.8-0.6l0.3-1.3L15.8,9.3"/>
							<polyline class="st18" points="89.4,9.3 89.4,12.7 85.2,12.7 85.2,9.3 83,9.3 83,18 85.2,18 85.2,14.6 89.4,14.6 89.4,18 
								91.6,18 91.6,9.3 89.4,9.3 							"/>
							<path class="st18" d="M41.2,11.5C40.9,10.1,40,9,37.9,9c-1.9,0-3,1-3.3,2.5L33.1,18h1.6c0.4,0,0.7-0.3,0.8-0.6l0.3-1.3H40
								l0.3,1.3c0.1,0.3,0.4,0.6,0.8,0.6h1.6L41.2,11.5L41.2,11.5z M36.2,14.2l0.5-2.3c0.1-0.4,0.4-0.9,1.2-0.9s1.1,0.6,1.2,0.9
								l0.5,2.3H36.2L36.2,14.2z"/>
							<path class="st18" d="M80.5,11.5C80.2,10.1,79.3,9,77.2,9c-1.9,0-3,1-3.3,2.5L72.5,18h1.6c0.4,0,0.7-0.3,0.8-0.6l0.3-1.3h4.2
								l0.3,1.3c0.1,0.3,0.4,0.6,0.8,0.6H82L80.5,11.5L80.5,11.5z M75.6,14.2l0.5-2.3c0.1-0.4,0.4-0.9,1.2-0.9
								c0.8,0,1.1,0.6,1.2,0.9l0.5,2.3H75.6L75.6,14.2z"/>
							<path class="st18" d="M16.5,18L16.5,18l-4.3,0c-2.6,0-4.4-1.8-4.4-4.4c0-2.6,1.8-4.4,4.4-4.4h3.2l-0.3,1.3
								c-0.1,0.3-0.4,0.6-0.8,0.6h-2.1c-1.4,0-2.2,1-2.2,2.4s0.8,2.4,2.2,2.4h3.2c0.4,0,0.7,0.3,0.8,0.6L16.5,18"/>
							<path class="st18" d="M30,9.3l-4.7,0c-0.4,0-0.7,0.3-0.7,0.6V18h2.2v-2.2H30c2.1,0,3.3-1.4,3.3-3.3
								C33.3,10.7,31.9,9.3,30,9.3L30,9.3z M30,13.8h-3.1v-2.6H30c0.5,0,1.2,0.5,1.2,1.3C31.2,13.4,30.5,13.8,30,13.8L30,13.8z"/>
							<path class="st18" d="M110.2,16.2h-4.7v-1.7h5.1v-1.7h-5.1v-1.7h4.7c0.4,0,0.7-0.2,0.8-0.6l0.3-1.2h-7.3
								c-0.4,0-0.7,0.3-0.7,0.6v7.5c0,0.4,0.3,0.6,0.7,0.6h7.3l-0.3-1.2C110.9,16.4,110.5,16.2,110.2,16.2"/>
							<path class="st18" d="M93.1,18V9.3h2.2v5.8l3.8-5.3c0.2-0.3,0.7-0.5,1-0.5h1.6V18h-2.2v-5.8l-3.8,5.3c-0.2,0.3-0.7,0.5-1,0.5
								H93.1"/>
							<path class="st18" d="M49.3,13.6l3.1-4.3h-2c-0.4,0-0.7,0.1-1,0.5l-1.6,2.5h-0.3l-1.6-2.5c-0.3-0.4-0.6-0.5-1-0.5h-2.1
								l3.1,4.4L42.8,18h2c0.4,0,0.7-0.1,1-0.5l1.6-2.5h0.3l1.6,2.5c0.3,0.4,0.6,0.5,1,0.5h2.1L49.3,13.6"/>
						</g>
					</g>
				</g>
			</g>
		</g>
	</g>
</g>
<g id="Layer_10">
</g>
<g id="Layer_11">
</g>
<g id="Layer_12">
</g>
<g id="Layer_13">
</g>
<g id="Layer_14">
</g>
<g id="Layer_15">
</g>
<g id="Layer_16">
</g>
<g id="Layer_20">
</g>
<g id="Layer_19">
</g>
<g id="Layer_17">
</g>
<g id="Layer_18">
</g>
</svg>
