<?xml version="1.0" encoding="utf-8"?>
<!-- Generator: Adobe Illustrator 22.0.1, SVG Export Plug-In . SVG Version: 6.00 Build 0)  -->
<svg version="1.1" id="Layer_1" xmlns="http://www.w3.org/2000/svg" xmlns:xlink="http://www.w3.org/1999/xlink" x="0px" y="0px"
	 viewBox="0 0 2376 588" style="enable-background:new 0 0 2376 588;" xml:space="preserve">
<style type="text/css">
	.st0{fill:#003781;}
</style>
<path class="st0" d="M2230.5,181.3c-6.7-7-16.7-9.7-29.5-9.7h-48.5v278.9h86.6v-1.7h1.6V216.3c0-6.8-0.9-12.9-2.7-18.2
	C2236.9,191.6,2234.7,185.9,2230.5,181.3z M2115.5,107.6c-7-6.8-16.9-8.8-29.5-8.8h-74.6v44.4h1.7v6.4h12c7.8-0.1,11.1,1.2,11.9,2.3
	l0.4,0.6c0.1,1.4,0.2,3,0.2,4.9v293.2h80.7v-1.7h1.6v-4.4h4.4v-1.7h1.6V143.6c0-7.4-0.8-13.7-2.8-19.2
	C2122.1,117.7,2119.8,112,2115.5,107.6L2115.5,107.6z M2009.4,171.6H1961c-11.9,0-21.8,2.7-28.7,9.6c-6.8,6.9-9.5,16.8-9.5,28.8
	v240.5h86.7v-1.7h1.6V177.9h-1.6V171.6L2009.4,171.6z M2248.6,463.6c-41.4,41.5-99.4,66.1-167,66.2c-133.9-0.2-229.8-100-230-236.6
	c0.1-69.1,23.9-128,64.3-169.8c40.7-41.2,97.6-65.3,164.1-65.4c136.2,0.2,233.7,98.1,234,236.7
	C2313.9,362.8,2289.6,421.6,2248.6,463.6L2248.6,463.6z M2292,83.1C2239.5,30.9,2165.8,0,2081.6,0c-83.1,0-155.9,30.9-207.7,83.2
	l-0.7,0.8l-0.9,0.9c-51.9,52.2-82.8,125.7-82.7,210.1c0,83.3,30.9,156.8,82.9,209.2c52.1,52.5,125.3,83.9,209.5,83.9h0.1
	c83.1,0,156.3-31.4,208.6-83.9l0.7-0.7l0.9-0.9c52.3-52.4,83.7-125.8,83.7-209.2C2376,208.8,2344.6,135.4,2292,83.1L2292,83.1z
	 M1657.6,391.6h-116.9l118.7-166.1v-67.6h-189.7c-11.6,0-21.2,2.3-27.8,9c-6.6,6.7-8.8,16.3-8.8,28l0,59h42.8v-12.8
	c0-7,1.5-10.4,3.5-12.3c2-2,6.3-3.5,14.4-3.5h55.8l-118.7,166v69.9h232.9v-63.4h-6.2V391.6L1657.6,391.6z M985.3,368.7
	c-16.1,15.8-31.5,22.9-46.3,22.9c-9.1,0-13.3-1.9-15.8-4.9c-2.6-3-4.4-9.3-4.4-19.9c0.6-21,4.7-27.4,20.1-33.9
	c13.3-5.7,24.8-8,46.3-11.7V368.7L985.3,368.7z M1082.6,414.3c-2.4-2.2-4.1-5.5-4.2-12.2V258.8c0-36.9-6-63.5-22.8-81.2
	c-16.9-17.6-42.9-24.2-79.5-24.2c-23.8,0-47.1,2.5-69.5,9.1c-16.3,4.7-33.3,9-59.9,22.4l-5,2.5l25.1,65.4l6-2.6l7.6-3.4
	c21.5-8.6,33.9-12.6,48.7-15c12.9-2,18.7-2.1,25.2-2.1c12.5,0,20.1,2.2,24.3,6.1c4.1,3.8,6.7,10.5,6.7,23.1v1.3
	c-37.3,6-48.4,8.4-67.3,12.5c-13.5,2.3-24.9,6.9-35.9,11.3c-37.1,16.1-54.4,46.4-54,91.8c0,28.3,5.5,50.2,18.4,65.4
	c12.8,15.2,32.4,22.3,57.3,22.3h0.4c20.7,0,41.2-4.6,57.7-14.1c8.7-5.3,15.1-9.5,25.9-18.5c0.6,8.7,3,15.9,7.7,21.3
	c5.5,6.3,13.6,9,22.3,9h87V418h-8.3C1089.4,418,1085,416.5,1082.6,414.3L1082.6,414.3z M1321.2,155.6c-31.1-0.1-57.4,10-90,36.9
	v-2.1c0-9.5-1.7-17.7-6.9-23.8c-5.4-6.2-13.6-8.8-23.3-8.7h-91.3V201h10.5c7.8,0,11.8,1.9,14.1,4.4c2.3,2.5,3.8,6.8,3.8,13.8v242
	h91.3V455v0h6.2V259.4c18.3-15.9,28.9-20.7,46.3-20.9c9.1,0.1,12.8,1.9,15.4,5.4c2.8,3.7,4.7,12,4.6,25.9v191.3h95.3V256.6
	c0.1-42-4.6-59.7-16.4-76.4C1366.3,162.9,1346.3,155.5,1321.2,155.6L1321.2,155.6z M447.6,60.8h-91.4v45.4h10.6
	c8,0,12.3,1.6,14.4,3.6c2,1.9,3.5,5.4,3.5,12.4v339H476V455h6.1V95.7c0-9.8-2.5-18.7-8.5-25.2C467.5,64,458.4,60.8,447.6,60.8
	L447.6,60.8z M145.6,292.4l37.4-125.7l33.7,125.7H145.6z M218.1,60.8H72.3v45.4h17.1c9.4-0.1,14.9,1.3,17,2.8
	c1.9,1.4,2.9,2.8,3.1,8.7c-0.1,6.4,0.2,11.5-6.4,31.1L0,461.2h100.4l1.3-4.4l27.1-90.4h104.3l26.2,94.8h108.9l-102.6-365
	C259.5,70.2,243,59.9,218.1,60.8L218.1,60.8z M602.6,60.9h-91.4v45.4h10.6c13.7,1,17.1,3.3,17.9,15.9v339.1H631V455h6.1V95.7
	c0-10-3.2-19-9.4-25.3C621.5,64.1,612.6,60.8,602.6,60.9L602.6,60.9z M738,54.3c-16.3,0-30.3,4.1-40.5,12.4
	c-10.2,8.2-16,20.9-15.9,35.6c-0.1,14.7,5.8,27,16.1,34.6c10.3,7.7,24.2,11.2,40.3,11.2c17.1,0,31.1-3.4,41.2-11.2
	c10.1-7.8,15.3-20.1,15.2-34.6c0-14.5-5-27.1-15-35.6C769.4,58.3,755.3,54.3,738,54.3L738,54.3z M759.9,157.9h-93.5V201h10.4
	c7.8,0,11.7,1.9,14.1,4.4c2.4,2.5,3.8,6.8,3.8,13.7v242h97.5V192.6c0-10-3.2-18.9-9.1-25.1C777.3,161.2,769,157.8,759.9,157.9"/>
</svg>
