<?xml version="1.0" encoding="utf-8"?>
<!-- Generator: Adobe Illustrator 22.0.1, SVG Export Plug-In . SVG Version: 6.00 Build 0)  -->
<svg version="1.1" id="Layer_1" xmlns="http://www.w3.org/2000/svg" xmlns:xlink="http://www.w3.org/1999/xlink" x="0px" y="0px"
	 viewBox="0 0 254.9 410.9" style="enable-background:new 0 0 254.9 410.9;" xml:space="preserve">
<style type="text/css">
	.st0{clip-path:url(#SVGID_2_);}
</style>
<g>
	<g>
		<defs>
			<rect id="SVGID_1_" width="254.9" height="410.9"/>
		</defs>
		<clipPath id="SVGID_2_">
			<use xlink:href="#SVGID_1_"  style="overflow:visible;"/>
		</clipPath>
		<path class="st0" d="M232,0.3H78.4c-7.2,0-14.1,3.1-18.9,8.6L6.9,69.4c-6.5,7.5-8,17.7-3.9,26.8c4.1,9,12.8,14.6,22.8,14.6h70.5
			v279.5c0,10.8,8.8,19.6,19.6,19.6h38.5c10.8,0,19.6-8.8,19.6-19.6V110.8H232c12.6,0,22.8-10.2,22.8-22.8V23.2
			C254.9,10.6,244.6,0.3,232,0.3L232,0.3z M157.6,390.3c0,1.8-1.5,3.3-3.3,3.3h-38.5c-1.8,0-3.3-1.5-3.3-3.3V110.8h45.1V390.3z
			 M238.6,88c0,3.6-2.9,6.5-6.5,6.5H25.8c-5.2,0-7.4-3.9-7.9-5.1c-0.5-1.2-2.1-5.4,1.4-9.3l52.6-60.5c1.6-1.9,4-3,6.6-3H232
			c3.6,0,6.5,2.9,6.5,6.5V88z M238.6,88"/>
	</g>
	<path d="M220.6,25.6h-44.5c-4.5,0-8.2,3.7-8.2,8.2c0,4.5,3.7,8.2,8.2,8.2h44.5c4.5,0,8.2-3.7,8.2-8.2
		C228.7,29.3,225.1,25.6,220.6,25.6L220.6,25.6z M220.6,25.6"/>
	<path d="M149.9,25.6h-3.5c-4.5,0-8.2,3.7-8.2,8.2c0,4.5,3.7,8.2,8.2,8.2h3.5c4.5,0,8.2-3.7,8.2-8.2
		C158.1,29.3,154.4,25.6,149.9,25.6L149.9,25.6z M149.9,25.6"/>
</g>
</svg>
