<?xml version="1.0" encoding="utf-8"?>
<!-- Generator: Adobe Illustrator 22.0.1, SVG Export Plug-In . SVG Version: 6.00 Build 0)  -->
<svg version="1.1"
	 id="Layer_1" xmlns:cc="http://creativecommons.org/ns#" xmlns:dc="http://purl.org/dc/elements/1.1/" xmlns:inkscape="http://www.inkscape.org/namespaces/inkscape" xmlns:rdf="http://www.w3.org/1999/02/22-rdf-syntax-ns#" xmlns:sodipodi="http://sodipodi.sourceforge.net/DTD/sodipodi-0.dtd" xmlns:svg="http://www.w3.org/2000/svg"
	 xmlns="http://www.w3.org/2000/svg" xmlns:xlink="http://www.w3.org/1999/xlink" x="0px" y="0px" viewBox="0 0 100 125"
	 style="enable-background:new 0 0 100 125;" xml:space="preserve">
<g transform="translate(0,-952.36218)">
	<path d="M55.4,971.7C55.3,971.7,55.3,971.7,55.4,971.7l-23.1,0c-2.2,0-4,1.8-4,4v48.4c0,2.2,1.8,4,4,4h2v0.5c0,1.6,1.4,3,3,3h36.5
		c1.6,0,3-1.4,3-3v-13.3c0-1.6-1.3-3-3-3h-2.7v-25.7c0,0,0,0,0-0.1c0,0,0,0,0,0c0-0.1,0-0.1,0-0.2c0,0,0,0,0,0c0,0,0,0,0-0.1
		c0,0,0,0,0,0c0,0,0,0,0,0c0,0,0,0,0-0.1c0,0,0,0,0-0.1c0,0,0,0,0,0c0,0,0,0,0-0.1c0,0,0,0,0,0c0,0,0,0,0-0.1c0,0,0,0,0,0
		c0,0,0,0,0,0l-14.6-14c0,0,0,0-0.1-0.1C56,971.8,55.7,971.7,55.4,971.7C55.4,971.7,55.4,971.7,55.4,971.7L55.4,971.7z M32.3,973.7
		h22.3v10c0,2.2,1.8,4,4,4h10.6v24.8H37.3c-1.6,0-3,1.3-3,3v10.7h-2c-1.1,0-2-0.9-2-2v-48.4C30.3,974.6,31.2,973.7,32.3,973.7
		L32.3,973.7z M56.5,975.1l11,10.6l0.1,0.1h-9.1c-1.1,0-2-0.9-2-2L56.5,975.1L56.5,975.1z M33.7,990c-0.6,0.1-0.9,0.6-0.9,1.1
		c0.1,0.6,0.6,0.9,1.1,0.9h31.5c0.6,0,1-0.4,1-1c0-0.6-0.4-1-1-1c0,0,0,0,0,0H34C33.9,990,33.8,990,33.7,990
		C33.8,990,33.7,990,33.7,990L33.7,990z M33.7,995.9c-0.6,0.1-0.9,0.6-0.9,1.1c0.1,0.6,0.6,0.9,1.1,0.9h31.5c0.6,0,1-0.4,1-1
		c0-0.6-0.4-1-1-1c0,0,0,0,0,0H34C33.9,995.9,33.8,995.9,33.7,995.9C33.8,995.9,33.7,995.9,33.7,995.9L33.7,995.9z M33.7,1001.8
		c-0.6,0.1-0.9,0.6-0.9,1.1c0.1,0.5,0.6,0.9,1.1,0.9h31.5c0.6,0,1-0.4,1-1c0-0.6-0.4-1-1-1c0,0,0,0,0,0H34
		C33.9,1001.8,33.8,1001.8,33.7,1001.8C33.8,1001.8,33.7,1001.8,33.7,1001.8L33.7,1001.8z M33.8,1007.7c-0.6,0.1-1,0.5-0.9,1.1
		c0.1,0.5,0.5,0.9,1.1,0.9h17c0.6,0,1-0.4,1-1c0-0.6-0.4-1-1-1c0,0,0,0,0,0H34C33.9,1007.7,33.9,1007.7,33.8,1007.7
		C33.8,1007.7,33.8,1007.7,33.8,1007.7L33.8,1007.7z M37.3,1014.5h36.5c0.6,0,1,0.4,1,1v13.3c0,0.6-0.4,1-1,1H37.3c-0.6,0-1-0.4-1-1
		v-13.3C36.3,1014.9,36.7,1014.5,37.3,1014.5L37.3,1014.5z M43.8,1018.3v7.7h1.5v-2.9h1c0.7,0,1.2,0,1.6-0.1
		c0.3-0.1,0.5-0.2,0.8-0.4c0.3-0.2,0.5-0.4,0.7-0.8c0.2-0.3,0.3-0.7,0.3-1.2c0-0.6-0.1-1.1-0.4-1.5c-0.3-0.4-0.7-0.6-1.1-0.8
		c-0.3-0.1-0.9-0.1-1.8-0.1L43.8,1018.3L43.8,1018.3z M51,1018.3v7.7h2.9c0.6,0,1,0,1.4-0.2c0.5-0.1,0.8-0.4,1.1-0.6
		c0.4-0.3,0.7-0.8,0.8-1.3c0.2-0.5,0.2-1,0.2-1.7c0-0.7-0.1-1.3-0.3-1.8c-0.2-0.5-0.4-0.9-0.7-1.2c-0.3-0.3-0.7-0.6-1.2-0.7
		c-0.3-0.1-0.8-0.2-1.5-0.2H51z M58.8,1018.3v7.7h1.5v-3.3h3.2v-1.3h-3.2v-1.8H64v-1.3L58.8,1018.3L58.8,1018.3z M45.4,1019.6h0.8
		c0.6,0,0.9,0,1.1,0c0.3,0,0.5,0.2,0.6,0.3c0.2,0.2,0.3,0.4,0.3,0.7c0,0.2-0.1,0.5-0.2,0.6c-0.1,0.2-0.3,0.3-0.5,0.4
		c-0.2,0.1-0.6,0.1-1.3,0.1h-0.8V1019.6z M52.6,1019.6h0.7c0.6,0,1.1,0,1.3,0.1c0.3,0.1,0.5,0.2,0.7,0.4c0.2,0.2,0.3,0.4,0.4,0.7
		c0.1,0.3,0.2,0.8,0.2,1.4c0,0.6-0.1,1.1-0.2,1.4c-0.1,0.3-0.2,0.6-0.4,0.7c-0.2,0.2-0.4,0.2-0.6,0.3c-0.2,0-0.5,0.1-0.9,0.1h-1.2
		V1019.6L52.6,1019.6z M40.8,1024.5v1.5h1.5v-1.5H40.8z"/>
</g>
</svg>
