<?xml version="1.0" encoding="utf-8"?>
<!-- Generator: Adobe Illustrator 22.0.1, SVG Export Plug-In . SVG Version: 6.00 Build 0)  -->
<svg version="1.1" id="Capa_1" xmlns="http://www.w3.org/2000/svg" xmlns:xlink="http://www.w3.org/1999/xlink" x="0px" y="0px"
	 viewBox="0 0 512 512" style="enable-background:new 0 0 512 512;" xml:space="preserve">
<style type="text/css">
	.st0{fill:#1A2E46;}
</style>
<path class="st0" d="M0,72.5v19.5v327.8v19.5h512v-19.5V92.1V72.5H0z M312.5,260.8l-46.5,46.7c-5.6,5.2-14.5,5.2-19.9,0.2
	l-46.7-46.9l0.4-0.4L31.1,89.6H481L312.1,260.4L312.5,260.8z M175.1,260.5L17.1,412.6V101.7L175.1,260.5z M187.2,272.6l47.1,47.4
	c6.1,5.6,13.8,8.5,21.6,8.5c7.9,0,15.8-2.9,22-8.7l46.9-47.1l155.6,149.8h-449L187.2,272.6z M336.9,260.6l158.1-158.8v310.9
	L336.9,260.6z"/>
</svg>
