<?xml version="1.0" encoding="utf-8"?>
<!-- Generator: Adobe Illustrator 22.0.1, SVG Export Plug-In . SVG Version: 6.00 Build 0)  -->
<svg version="1.1" id="Capa_1" xmlns="http://www.w3.org/2000/svg" xmlns:xlink="http://www.w3.org/1999/xlink" x="0px" y="0px"
	 viewBox="0 0 512 512" style="enable-background:new 0 0 512 512;" xml:space="preserve">
<style type="text/css">
	.st0{fill:#1A2E46;}
</style>
<g>
	<path class="st0" d="M431.7,0H80.3C66.6,0,55.5,11.2,55.5,24.9v462.3c0,13.7,11.2,24.9,24.9,24.9h351.3c13.7,0,24.9-11.2,24.9-24.9
		V24.9C456.5,11.2,445.4,0,431.7,0z M439.5,487.1c0,4.3-3.5,7.8-7.8,7.8H80.3c-4.3,0-7.8-3.5-7.8-7.8V24.9c0-4.3,3.5-7.8,7.8-7.8
		h351.3c4.3,0,7.8,3.5,7.8,7.8V487.1z"/>
	<path class="st0" d="M98.1,469.3H192v-93.9H98.1V469.3z M115.2,392.5h59.7v59.7h-59.7V392.5z"/>
	<path class="st0" d="M209.1,469.3h93.9v-93.9h-93.9V469.3z M226.1,392.5h59.7v59.7h-59.7V392.5z"/>
	<path class="st0" d="M320,469.3h93.9V264.5H320V469.3z M337.1,281.6h59.7v170.7h-59.7V281.6z"/>
	<path class="st0" d="M98.1,358.4H192v-93.9H98.1V358.4z M115.2,281.6h59.7v59.7h-59.7V281.6z"/>
	<path class="st0" d="M209.1,358.4h93.9v-93.9h-93.9V358.4z M226.1,281.6h59.7v59.7h-59.7V281.6z"/>
	<path class="st0" d="M98.1,247.5H192v-93.9H98.1V247.5z M115.2,170.7h59.7v59.7h-59.7V170.7z"/>
	<path class="st0" d="M209.1,247.5h93.9v-93.9h-93.9V247.5z M226.1,170.7h59.7v59.7h-59.7V170.7z"/>
	<path class="st0" d="M320,247.5h93.9v-93.9H320V247.5z M337.1,170.7h59.7v59.7h-59.7V170.7z"/>
	<path class="st0" d="M98.1,128h315.7V42.7H98.1V128z M115.2,59.7h281.6v51.2H115.2V59.7z"/>
</g>
</svg>
