<?xml version="1.0" encoding="utf-8"?>
<!-- Generator: Adobe Illustrator 22.0.1, SVG Export Plug-In . SVG Version: 6.00 Build 0)  -->
<svg version="1.1" id="Слой_1" xmlns="http://www.w3.org/2000/svg" xmlns:xlink="http://www.w3.org/1999/xlink" x="0px" y="0px"
	 viewBox="0 0 162.6 112.9" style="enable-background:new 0 0 162.6 112.9;" xml:space="preserve">
<style type="text/css">
	.st0{clip-path:url(#SVGID_2_);}
</style>
<g>
	<defs>
		<rect id="SVGID_1_" width="162.6" height="112.9"/>
	</defs>
	<clipPath id="SVGID_2_">
		<use xlink:href="#SVGID_1_"  style="overflow:visible;"/>
	</clipPath>
	<path class="st0" d="M159.4,6.3c0-0.1,0-0.1,0-0.2c0-0.2,0-0.4,0-0.6c0,0,0-0.1,0-0.1c-0.1-0.3-0.1-0.5-0.3-0.8
		c0-0.1-0.1-0.1-0.1-0.1c0,0,0,0,0,0c0,0,0,0,0,0c0,0,0-0.1-0.1-0.1c-0.2-0.2-0.4-0.4-0.6-0.6c0,0-0.1-0.1-0.2-0.1
		c-0.2-0.1-0.4-0.2-0.6-0.3c-0.1,0-0.2,0-0.3-0.1c-0.2,0-0.4,0-0.6,0c-0.1,0-0.2,0-0.3,0c-0.1,0-0.1,0-0.2,0L2.1,35.1
		C1,35.4,0.2,36.3,0,37.4c-0.2,1.1,0.4,2.2,1.4,2.7l44.2,23.3l7.8,43c0,0,0,0.1,0,0.1c0,0.2,0,0.4,0,0.6c0,0.1,0,0.2,0.1,0.3
		c0.1,0.2,0.2,0.5,0.3,0.7c0,0,0,0.1,0.1,0.1c0,0,0,0,0,0c0,0.1,0.1,0.1,0.1,0.1c0.1,0.1,0.3,0.3,0.4,0.4c0,0,0,0.1,0.1,0.1
		c0,0,0.1,0,0.1,0c0.2,0.1,0.3,0.2,0.5,0.3c0.1,0,0.1,0.1,0.2,0.1c0.2,0.1,0.5,0.1,0.7,0.1h0c0,0,0,0,0,0c0,0,0.1,0,0.1,0
		c0.7,0,1.4-0.3,1.9-0.8L87.4,89l30.8,20c0.4,0.3,0.9,0.4,1.5,0.4c0.3,0,0.6-0.1,0.8-0.1c0.8-0.2,1.4-0.8,1.6-1.6L159.3,6.8
		c0-0.1,0.1-0.2,0.1-0.3C159.4,6.5,159.4,6.5,159.4,6.3C159.4,6.4,159.4,6.4,159.4,6.3L159.4,6.3z M128.7,23.3L65,70.1
		c-0.1,0.1-0.2,0.2-0.3,0.3c0,0-0.1,0.1-0.1,0.1c-0.1,0.1-0.1,0.1-0.2,0.2c-0.1,0.1-0.1,0.1-0.1,0.2c-0.1,0.2-0.2,0.3-0.2,0.5
		c0,0,0,0.1,0,0.1c0,0,0,0,0,0l-7.3,23.7l-5.8-32.1L128.7,23.3z M60.8,100.3l7.2-23.9l11.3,7.3l3.2,2.1l-11,7.3L60.8,100.3z
		 M138.2,12.4L48,58.6L10.4,38.8L138.2,12.4z M118.3,102.7L77.4,76.2l-6.2-4l80.1-58.9L118.3,102.7z M118.3,102.7"/>
</g>
</svg>
