<?xml version="1.0" encoding="utf-8"?>
<!-- Generator: Adobe Illustrator 22.0.1, SVG Export Plug-In . SVG Version: 6.00 Build 0)  -->
<svg version="1.1" id="Слой_1" xmlns="http://www.w3.org/2000/svg" xmlns:xlink="http://www.w3.org/1999/xlink" x="0px" y="0px"
	 viewBox="0 0 120.3 105.2" style="enable-background:new 0 0 120.3 105.2;" xml:space="preserve">
<g>
	<path d="M88.2,81.7H32.1c-1,0-1.8-0.8-1.8-1.8V50.3c0-8.3-6.7-15-15-15C8.9,35.3,3.6,40.5,3.6,47c0,4.9,4,8.9,8.9,8.9
		c3.8,0,6.8-3,6.8-6.8c0-2.8-2.3-5.1-5.1-5.1c-1,0-1.8-0.8-1.8-1.8c0-1,0.8-1.8,1.8-1.8c4.8,0,8.7,3.9,8.7,8.7
		c0,5.7-4.7,10.4-10.4,10.4C5.6,59.5,0,53.9,0,47c0-8.4,6.9-15.3,15.3-15.3c10.3,0,18.6,8.4,18.6,18.7v27.8h52.4V50.3
		c0-10.3,8.4-18.7,18.7-18.7c8.4,0,15.3,6.9,15.3,15.3c0,6.9-5.6,12.6-12.6,12.6c-5.7,0-10.4-4.7-10.4-10.4c0-4.8,3.9-8.7,8.7-8.7
		c1,0,1.8,0.8,1.8,1.8c0,1-0.8,1.8-1.8,1.8c-2.8,0-5.1,2.3-5.1,5.1c0,3.7,3,6.8,6.8,6.8c4.9,0,8.9-4,8.9-8.9
		c0-6.4-5.2-11.6-11.6-11.6c-8.3,0-15,6.7-15,15v29.6C90,80.9,89.2,81.7,88.2,81.7L88.2,81.7z M88.2,81.7"/>
	<path d="M102.4,99.2H18.3c-4.2,0-7.5-3.4-7.5-7.5v-34c0-1,0.8-1.8,1.8-1.8c1,0,1.8,0.8,1.8,1.8v34c0,2.1,1.7,3.9,3.9,3.9h84.1
		c2.1,0,3.9-1.7,3.9-3.9v-34c0-1,0.8-1.8,1.8-1.8c1,0,1.8,0.8,1.8,1.8v34C109.9,95.9,106.5,99.2,102.4,99.2L102.4,99.2z M102.4,99.2
		"/>
	<path d="M88.2,66.3H32.1c-1,0-1.8-0.8-1.8-1.8c0-1,0.8-1.8,1.8-1.8h56.1c1,0,1.8,0.8,1.8,1.8C90,65.5,89.2,66.3,88.2,66.3
		L88.2,66.3z M88.2,66.3"/>
	<path d="M32.1,105.2c-1,0-1.8-0.8-1.8-1.8v-4.5c0-1,0.8-1.8,1.8-1.8c1,0,1.8,0.8,1.8,1.8v4.5C33.9,104.3,33.1,105.2,32.1,105.2
		L32.1,105.2z M32.1,105.2"/>
	<path d="M88.2,105.2c-1,0-1.8-0.8-1.8-1.8v-4.5c0-1,0.8-1.8,1.8-1.8c1,0,1.8,0.8,1.8,1.8v4.5C90,104.3,89.2,105.2,88.2,105.2
		L88.2,105.2z M88.2,105.2"/>
	<path d="M100.5,35.3c-1,0-1.8-0.8-1.8-1.8V21.6c0-9.9-8.1-18-18-18H40c-9.9,0-18,8.1-18,18v11.9c0,1-0.8,1.8-1.8,1.8
		c-1,0-1.8-0.8-1.8-1.8V21.6C18.4,9.7,28.1,0,40,0h40.6c11.9,0,21.6,9.7,21.6,21.6v11.9C102.3,34.5,101.5,35.3,100.5,35.3
		L100.5,35.3z M100.5,35.3"/>
</g>
</svg>
