<?xml version="1.0" encoding="utf-8"?>
<!-- Generator: Adobe Illustrator 22.0.1, SVG Export Plug-In . SVG Version: 6.00 Build 0)  -->
<svg version="1.1" id="Слой_1" xmlns="http://www.w3.org/2000/svg" xmlns:xlink="http://www.w3.org/1999/xlink" x="0px" y="0px"
	 viewBox="0 0 685.3 899.8" style="enable-background:new 0 0 685.3 899.8;" xml:space="preserve">
<style type="text/css">
	.st0{fill:#1d3149;}
</style>
<path class="st0" d="M683.5,384.1c-2.7-28.7-7.6-56-16.2-82c-20.6-62.3-53.1-106.9-93.4-139.9c-21.9-17.9-45.4-30-69.3-40.2
	c-16.8-7.2-33.9-12.3-51.3-15.9c-8.2-1.7-28.9-4.7-37.2-5.6c-8.9-1-22.4-2.5-34.6-2.9c-24.7-0.7-10.8,0.2-21.8-0.7
	c-8.1-0.6-17.3-3.3-21.4-17c-3.3-10.9-0.3-29.5,5.6-38.5c5.5-8.5,12.1-14.6,18.8-20.6c3.3-2.9,6.8-7,5.7-14.3
	c-1.2-8-11.5-6.5-15.3-6.3c-12.2,1-18.4,3.2-22,4.2c-20.8,5.8-41.7,11.6-62.3,19.8c-33.4,13.2-65.9,30.1-97.2,51.8
	c-26.3,18.3-51.3,40.1-74.5,66.3c-31,35-57.4,76-75.5,128C2.4,326.4-4.8,385.7,3.3,447.9C13.7,528.3,44.6,590,86.5,640.3
	c35.8,42.9,76.5,72.3,120.3,92.1c26.7,12.1,53.9,20.5,81.7,25c1.7,0.3,3.3,0.5,5,0.8c-0.4,6-0.7,12-1.1,18.1
	c-0.3,4.5,1.2,9.2-0.1,13.6c-1.2,3.8-1.1,7.6-0.7,11.2c0.4,3,0.5,6.1-0.3,8.6c-1.1,3.6-1.3,7.3-0.8,10.8c0.8,6.6-1,12.7-2.1,19
	c-0.3,1.8,1.4,4-0.9,5.5c0.3,3.9-0.2,7.6-2.9,10.8c-2.8,4.8-6.9,7.7-12.4,8.6l-0.2-0.1c-1.6,1.9-3.8,1.7-5.9,2.1
	c-7.6,2.4-15.6,2.7-23.3,4.3c-6.7,1.4-13.2,3.1-19.4,5.9c-4.4,2.7-7.6,6.4-9.9,11c1.7,7.6,5.6,10.1,15.2,10.1
	c22.1,0,44.2-0.4,66.3,0.3c11.8,0.4,19.9-3.3,23.7-14.8c0.5-4.4,1-8.9,1.5-13.3c0-0.3,0-0.7,0-1c-0.5-3-0.4-6-0.1-9
	c0-3.3,0.1-6.7,0.1-10c0.1-29.6,0.1-59.2,0.2-88.8c3.5,0.3,7,0.6,10.5,0.9c0.5,0.3,1,0.6,1.5,0.9c18.4-0.4,36.8-1.2,55.2-2.9
	c0.2,30.1,0.3,60.3,0.5,90.4c0,2.2-0.1,4.3-0.2,6.5c0,2.7,0,5.3,0,8c0,1.3,0,2.7,0.1,4c0.3,4.7,0.6,9.3,0.8,14
	c0.9,2.3,1.5,4.8,2.6,7c3.1,6.4,8.2,10,15.4,10c24.6,0,49.2,0,73.8-0.1c2,0,4-0.4,5.9-0.9c7.2-2.2,8.9-5.7,6.3-12.7
	c-3-4.2-7.2-7.1-11.8-9.3c-12-4.3-24.7-5.3-37.1-7.8c-3.7-0.7-7.5-1.5-10.9-3.4c-4.6-1.8-8.3-4.6-10.4-9.3c-2-3.4-2.6-7.3-3-11.2
	c-0.8-5.1-2.1-10.1-2.3-15.2c-1.2-23.5-2.1-47.1-3.1-70.7c0-0.8-0.1-1.7-0.1-2.5c2.8-0.4,5.6-0.9,8.4-1.4
	c45.5-7.9,89.7-22.4,131.7-50.3c35.4-23.6,66.7-55.1,90.9-101.8c23.3-44.9,35.8-95.5,39.1-151C685.8,429.9,685.6,406.9,683.5,384.1z
	 M186.4,353.5c-14.5,0.1-26.5-11.9-26.4-26.3c0.1-14.3,11.8-26,26.1-26.1c14.5-0.1,26.4,11.8,26.4,26.3
	C212.4,341.6,200.8,353.4,186.4,353.5z M487.3,353.5c-14.4-0.1-26-11.8-26-26.1c0-14.6,11.8-26.4,26.3-26.3
	c14.3,0.1,26,11.8,26,26.1C513.7,341.7,501.8,353.6,487.3,353.5z"/>
</svg>
